<svg width="950" height="870" viewBox="0 0 950 870" fill="none" xmlns="http://www.w3.org/2000/svg">
<g clip-path="url(#clip0_1024_6688)">
<rect width="950" height="870" fill="#0073E1"/>
<g clip-path="url(#clip1_1024_6688)">
<path d="M153.916 701.932H80V922.255H153.916V701.932Z" fill="#E6E6E6"/>
<path d="M271.833 657.887H197.917V876.981H271.833V657.887Z" fill="#D1D1D1"/>
<path d="M386.33 739.702H312.414V880.478H386.33V739.702Z" fill="#C7C7C7"/>
<path d="M294.584 681.685C294.584 681.685 297.656 686.873 302.772 686.338C307.888 685.802 310.164 690.468 305.873 692.613C301.583 694.759 288.801 691.164 288.801 691.164L287.728 683.83L294.584 681.685Z" fill="white"/>
<path d="M267.818 537.782C267.818 537.782 298.254 555.377 301.153 591.407C304.052 627.437 291.355 636.333 260.572 627.278C229.788 618.223 267.818 537.782 267.818 537.782Z" fill="white"/>
<path opacity="0.3" d="M267.818 537.782C267.818 537.782 298.254 555.377 301.153 591.407C304.052 627.437 291.355 636.333 260.572 627.278C229.788 618.223 267.818 537.782 267.818 537.782Z" fill="white"/>
<path d="M248.788 705.237C248.788 705.237 247.339 711.035 251.296 714.31C255.253 717.585 253.614 722.441 249.063 720.948C244.512 719.455 237.976 707.904 237.976 707.904L242.397 701.962L248.788 705.237Z" fill="white"/>
<path d="M224.121 492.882C224.121 492.882 228.382 501.882 229.092 508.65C229.163 509.305 229.103 509.966 228.916 510.597C228.729 511.228 228.419 511.816 228.004 512.327C227.589 512.837 227.077 513.261 226.498 513.572C225.919 513.884 225.283 514.078 224.628 514.143C221.208 514.462 216.497 513.897 213.643 509.346L207.845 502.215C206.833 500.667 206.327 498.842 206.397 496.994C206.467 495.145 207.11 493.364 208.236 491.897C212.077 486.171 221.816 487.259 224.121 492.882Z" fill="#F4A28C"/>
<path d="M210.019 503.853L207.686 536.39L225.715 536.405L220.31 513.317L210.019 503.853Z" fill="#F4A28C"/>
<path d="M222.034 494.113C219.192 495.3 216.219 496.148 213.179 496.638C214.482 497.6 215.475 498.922 216.036 500.441C216.598 501.96 216.703 503.611 216.338 505.189C216.012 506.723 215.164 508.097 213.937 509.075C212.71 510.054 211.182 510.575 209.613 510.551L205.265 498.493C204.595 496.788 204.399 494.934 204.698 493.127C204.996 491.319 205.778 489.627 206.961 488.228C207.977 487.013 209.071 485.866 210.237 484.794C213.135 482.127 219.092 482.561 221.324 479.083C221.551 478.737 221.864 478.455 222.233 478.266C222.601 478.076 223.013 477.985 223.427 478.001C223.841 478.017 224.244 478.14 224.596 478.357C224.949 478.575 225.24 478.88 225.44 479.242C227.324 482.692 228.802 488.678 224.599 492.489C223.841 493.17 222.974 493.719 222.034 494.113Z" fill="#24285B"/>
<path d="M217.161 504.535C217.161 504.535 215.711 500.965 213.161 502.245C210.611 503.525 212.552 508.695 216.408 507.81L217.161 504.535Z" fill="#F4A28C"/>
<path d="M226.513 498.679L230.44 501.317C230.668 501.461 230.856 501.66 230.987 501.896C231.117 502.132 231.186 502.397 231.186 502.666C231.186 502.936 231.117 503.201 230.987 503.437C230.856 503.673 230.668 503.872 230.44 504.016L227.106 506.002L226.513 498.679Z" fill="#F4A28C"/>
<path opacity="0.31" d="M220.466 513.968C218.316 513.568 216.314 512.597 214.668 511.157C214.668 511.157 213.495 518.201 222.074 520.578L220.466 513.968Z" fill="#CE8172"/>
<path d="M207.802 532.781C224.629 530.535 243.702 530.202 259.718 533.97C264.281 535.015 268.373 537.535 271.359 541.14C274.346 544.745 276.062 549.234 276.24 553.912C276.964 575.261 276.124 616.639 261.439 646.915L205.814 654.162C205.814 654.162 182.523 619.697 172.755 583C166.453 559.073 170.54 537.782 207.802 532.781Z" fill="white"/>
<path opacity="0.08" d="M213.339 560.449C213.339 560.449 206.353 602.668 236.368 623.683L205.932 654.119C205.932 654.119 181.888 614.698 176.511 594.784C171.308 576.044 200.962 557.073 213.339 560.449Z" fill="black"/>
<path d="M205.816 654.163C205.816 654.163 244.049 605.232 265.065 622.452C286.081 639.672 298.4 681.701 298.4 681.701L281.356 687.498C281.356 687.498 270.863 658.512 249.123 650.903C249.123 650.903 216.874 688.222 205.816 654.163Z" fill="#24285B"/>
<path d="M265.92 662.436L252.108 708.814L236.31 703.293L244.049 650.886C244.049 650.886 258.803 643.872 265.92 662.436Z" fill="#24285B"/>
<path d="M229.774 618.19L226.919 576.174L284.834 566.579L286.401 617.378L213.045 637.842L210.857 626.35L229.774 618.19Z" fill="#FFD200"/>
<path d="M214.048 551.738C212.092 538.504 196.555 532.115 185.424 539.52C165.003 553.103 129.354 581.392 128.61 613.961C127.552 659.644 180.105 649.136 216.048 629.701L211.7 616.584C211.7 616.584 164.756 629.179 161.09 611.859C158.177 597.769 218.164 579.464 214.048 551.738Z" fill="white"/>
<path opacity="0.3" d="M214.048 551.738C212.092 538.504 196.555 532.115 185.424 539.52C165.003 553.103 129.354 581.392 128.61 613.961C127.552 659.644 180.105 649.136 216.048 629.701L211.7 616.584C211.7 616.584 164.756 629.179 161.09 611.859C158.177 597.769 218.164 579.464 214.048 551.738Z" fill="white"/>
<path d="M259.731 600.855C262.732 600.855 265.165 598.422 265.165 595.421C265.165 592.419 262.732 589.986 259.731 589.986C256.729 589.986 254.296 592.419 254.296 595.421C254.296 598.422 256.729 600.855 259.731 600.855Z" fill="white"/>
<path d="M212.498 618.77C212.498 618.77 223.266 609.715 228.44 618.77L215.252 627.205L212.498 618.77Z" fill="#F4A28C"/>
</g>
<g filter="url(#filter0_d_1024_6688)">
<path d="M541.692 50.0001H829.308C834.638 49.9863 839.919 51.0224 844.848 53.0493C849.778 55.0761 854.26 58.0541 858.038 61.8131C861.817 65.5721 864.818 70.0386 866.87 74.9575C868.923 79.8763 869.986 85.1513 870 90.4812V778.651C869.986 783.98 868.923 789.255 866.87 794.174C864.818 799.093 861.817 803.56 858.038 807.319C854.26 811.078 849.778 814.056 844.848 816.083C839.919 818.109 834.638 819.146 829.308 819.132H541.692C536.362 819.146 531.081 818.109 526.152 816.083C521.222 814.056 516.74 811.078 512.962 807.319C509.183 803.56 506.182 799.093 504.13 794.174C502.077 789.255 501.014 783.98 501 778.651V90.4812C501.014 85.1513 502.077 79.8763 504.13 74.9575C506.182 70.0386 509.183 65.5721 512.962 61.8131C516.74 58.0541 521.222 55.0761 526.152 53.0493C531.081 51.0224 536.362 49.9863 541.692 50.0001Z" fill="url(#paint0_linear_1024_6688)"/>
</g>
<mask id="mask0_1024_6688" style="mask-type:alpha" maskUnits="userSpaceOnUse" x="513" y="62" width="345" height="745">
<path d="M822.387 806.313H548.613C539.388 806.302 530.544 802.633 524.021 796.11C517.498 789.587 513.829 780.743 513.819 771.519V97.613C513.829 88.3883 517.498 79.5443 524.021 73.0214C530.544 66.4985 539.388 62.8294 548.613 62.819L585.479 62.819C586.646 63.0671 587.718 63.6451 588.567 64.4841C589.416 65.3232 590.006 66.3883 590.268 67.5528C590.418 68.2157 590.575 69.0828 590.758 70.0854C591.108 72.0165 591.543 74.4118 592.192 76.8318C593.029 79.9633 596.728 90.1891 609.157 90.3173C613.845 90.3658 643.076 90.3759 666.772 90.3759C710.361 90.3759 760.378 90.3411 762.717 90.3173C775.146 90.1891 778.845 79.9633 779.683 76.8318C780.332 74.4063 780.768 72.0083 781.118 70.0809C781.301 69.0737 781.457 68.2111 781.607 67.5528C781.841 66.3828 782.418 65.3087 783.263 64.4661C784.108 63.6235 785.184 63.0503 786.354 62.819L822.387 62.819C831.612 62.8294 840.456 66.4985 846.979 73.0214C853.502 79.5443 857.171 88.3883 857.181 97.613V771.519C857.171 780.743 853.502 789.587 846.979 796.11C840.456 802.633 831.612 806.302 822.387 806.313Z" fill="#EEEEEE"/>
</mask>
<g mask="url(#mask0_1024_6688)">
<g clip-path="url(#clip2_1024_6688)">
<rect width="343.362" height="743.494" transform="translate(513.819 62.8188)" fill="white"/>
<g clip-path="url(#clip3_1024_6688)">
<rect width="343.362" height="80.5757" transform="translate(513.819 62.8188)" fill="#0077E8"/>
<path d="M647.642 128.12L647.833 129.775C646.895 130.068 646.046 130.186 644.595 130.186C641.475 130.186 640.347 128.809 640.347 124.956C640.347 121.103 641.475 119.725 644.595 119.725C646.016 119.725 646.705 119.828 647.628 120.062L647.437 121.733C646.485 121.674 645.87 121.659 644.595 121.659C643.13 121.659 642.691 122.406 642.691 124.956C642.691 127.505 643.13 128.252 644.595 128.252C645.943 128.252 646.749 128.237 647.642 128.12ZM652.549 122.582C655.245 122.582 656.256 123.622 656.256 126.406C656.256 129.175 655.245 130.2 652.549 130.2C649.839 130.2 648.828 129.175 648.828 126.406C648.828 123.622 649.839 122.582 652.549 122.582ZM652.549 124.208C651.407 124.208 651.099 124.648 651.099 126.406C651.099 128.135 651.407 128.574 652.549 128.574C653.663 128.574 653.985 128.135 653.985 126.406C653.985 124.648 653.663 124.208 652.549 124.208ZM659.492 122.787L659.653 123.857C660.664 123.036 661.719 122.582 662.745 122.582C664.063 122.582 664.766 123.285 664.766 124.589V130.01H662.613V125.263C662.613 124.604 662.437 124.414 661.909 124.414C661.323 124.414 660.752 124.648 659.902 125.073V130.01H657.734V122.787H659.492ZM669.713 127.329L667.911 126.845C666.534 126.45 666.153 125.791 666.153 124.648C666.153 123.139 666.973 122.582 669.229 122.582C670.269 122.597 671.676 122.699 672.569 122.861L672.423 124.252C671.5 124.238 670.548 124.223 669.639 124.223C668.511 124.223 668.248 124.223 668.248 124.707C668.248 125.146 668.511 125.161 669.2 125.351L671.046 125.849C672.276 126.201 672.833 126.699 672.833 127.959C672.833 129.746 671.852 130.171 669.522 130.171C668.98 130.171 667.676 130.156 666.285 129.922L666.416 128.516C666.944 128.545 667.955 128.545 668.922 128.545C670.401 128.545 670.738 128.472 670.738 128.003C670.738 127.563 670.43 127.534 669.713 127.329ZM681.086 122.787V130.01H679.372L679.211 129.014C678.2 129.819 677.262 130.2 676.222 130.2C674.875 130.2 674.186 129.526 674.186 128.193V122.787H676.354V127.534C676.34 128.164 676.545 128.384 677.131 128.384C677.658 128.384 678.156 128.179 678.933 127.783V122.787H681.086ZM684.6 122.787L684.746 123.842C685.655 123.007 686.475 122.582 687.501 122.582C688.468 122.582 689.098 122.978 689.361 123.754C690.226 122.963 691.031 122.582 691.998 122.582C693.302 122.582 694.005 123.285 694.005 124.589V130.01H691.852V125.263C691.852 124.648 691.676 124.414 691.09 124.414C690.606 124.414 690.27 124.575 689.478 125.058V130.01H687.398V125.263C687.398 124.619 687.164 124.414 686.622 124.414C686.153 124.414 685.816 124.56 685.025 125.043V130.01H682.871V122.787H684.6ZM697.491 122.787L697.652 123.842C698.253 123.124 699.41 122.597 700.524 122.597C702.311 122.597 703.014 124.018 703.014 126.465C703.014 129.336 702.076 130.2 700.26 130.2C699.381 130.2 698.516 129.995 697.843 129.497C697.887 129.995 697.901 130.523 697.887 131.05V132.793H695.733V122.787H697.491ZM697.887 124.985V128.296C698.458 128.442 698.897 128.589 699.527 128.589C700.45 128.589 700.787 128.267 700.787 126.465C700.787 124.721 700.465 124.296 699.659 124.296C699.029 124.296 698.56 124.545 697.887 124.985ZM707.33 124.238V127.651C707.33 128.193 707.535 128.384 708.121 128.384H709.044L709.279 129.893C708.737 130.083 707.755 130.186 707.242 130.186C705.938 130.186 705.177 129.424 705.177 128.105V124.238H703.902V122.861L705.177 122.787V120.766H707.33V122.787H709.337V124.238H707.33ZM711.185 119.594H712.152C712.577 119.594 712.782 119.813 712.782 120.224V121.015C712.782 121.44 712.577 121.645 712.152 121.645H711.185C710.76 121.645 710.555 121.44 710.555 121.015V120.224C710.555 119.813 710.76 119.594 711.185 119.594ZM712.753 130.01H710.599V122.787H712.753V130.01ZM718.003 122.582C720.698 122.582 721.709 123.622 721.709 126.406C721.709 129.175 720.698 130.2 718.003 130.2C715.292 130.2 714.282 129.175 714.282 126.406C714.282 123.622 715.292 122.582 718.003 122.582ZM718.003 124.208C716.86 124.208 716.552 124.648 716.552 126.406C716.552 128.135 716.86 128.574 718.003 128.574C719.116 128.574 719.438 128.135 719.438 126.406C719.438 124.648 719.116 124.208 718.003 124.208ZM724.946 122.787L725.107 123.857C726.118 123.036 727.172 122.582 728.198 122.582C729.516 122.582 730.22 123.285 730.22 124.589V130.01H728.066V125.263C728.066 124.604 727.89 124.414 727.363 124.414C726.777 124.414 726.206 124.648 725.356 125.073V130.01H723.188V122.787H724.946Z" fill="white"/>
<path d="M528.469 117.757H548.613" stroke="white" stroke-width="2.7469" stroke-linecap="round"/>
<path d="M528.469 124.166H548.613" stroke="white" stroke-width="2.7469" stroke-linecap="round"/>
<path d="M528.469 130.576H548.613" stroke="white" stroke-width="2.7469" stroke-linecap="round"/>
</g>
<rect width="343.362" height="62.263" transform="translate(513.819 143.395)" fill="#0077E8"/>
<path d="M857.181 143.395H513.819V205.658H857.181V143.395Z" fill="#0077E8"/>
<g clip-path="url(#clip4_1024_6688)">
<mask id="mask1_1024_6688" style="mask-type:luminance" maskUnits="userSpaceOnUse" x="762" y="150" width="19" height="27">
<path d="M765.887 167.309C765.887 171.08 769.658 173.341 771.919 173.341C774.181 173.341 777.951 171.079 777.951 167.309C777.951 162.785 772.673 157.506 771.919 154.49C771.166 157.506 765.887 162.784 765.887 167.309ZM771.919 176.357C769.52 176.357 767.218 175.404 765.521 173.707C763.824 172.01 762.871 169.709 762.871 167.309C762.871 161.276 771.919 150.72 771.919 150.72C771.919 150.72 780.968 161.276 780.968 167.309C780.968 169.709 780.014 172.01 778.317 173.707C776.62 175.404 774.319 176.357 771.919 176.357Z" fill="white"/>
</mask>
<g mask="url(#mask1_1024_6688)">
<mask id="mask2_1024_6688" style="mask-type:luminance" maskUnits="userSpaceOnUse" x="753" y="146" width="38" height="37">
<path d="M790.017 146.195H753.823V182.389H790.017V146.195Z" fill="white"/>
</mask>
<g mask="url(#mask2_1024_6688)">
<path d="M788.509 143.179H755.331V183.898H788.509V143.179Z" fill="white"/>
</g>
</g>
<path d="M857.181 201.995H685.958V205.658H857.181V201.995Z" fill="white"/>
<path d="M765.348 185.09L763.553 193.602C763.502 193.794 763.335 193.935 763.105 193.935H761.823C761.605 193.935 761.425 193.794 761.387 193.589L760.002 186.936C759.925 186.603 759.861 186.27 759.797 185.936H759.528C759.464 186.27 759.4 186.616 759.336 186.936L757.964 193.589C757.913 193.794 757.733 193.935 757.516 193.935H756.221C756.003 193.935 755.823 193.794 755.785 193.602L753.99 185.09H755.183L756.567 191.987C756.631 192.32 756.682 192.679 756.746 193.077H757.041C757.105 192.679 757.169 192.333 757.246 191.987L758.618 185.462C758.656 185.244 758.823 185.09 759.054 185.09H760.284C760.502 185.09 760.669 185.244 760.72 185.462L762.092 191.987C762.169 192.359 762.233 192.718 762.271 193.077H762.592C762.643 192.718 762.694 192.346 762.758 192L764.156 185.09H765.348ZM766.636 188.628L766.534 187.821C767.393 187.68 768.611 187.539 769.546 187.539C770.931 187.539 771.687 188.026 771.687 189.539V193.935H770.828L770.7 192.91C770.213 193.41 769.264 194.051 768.123 194.051C767.008 194.051 766.252 193.435 766.252 192.307V191.628C766.252 190.654 766.893 190.09 767.982 190.09H770.585V189.539C770.585 188.769 770.303 188.462 769.316 188.462C768.662 188.462 767.585 188.539 766.636 188.628ZM767.367 191.782V192.179C767.367 192.833 767.662 193.115 768.341 193.115C768.957 193.128 769.867 192.82 770.585 192.179V190.923H768.175C767.572 190.949 767.367 191.256 767.367 191.782ZM775.197 188.552V192.218C775.197 192.82 775.428 193.051 776.043 193.051H776.992L777.12 193.884C776.71 194 776.018 194.051 775.71 194.051C774.659 194.051 774.108 193.448 774.108 192.359V188.552H772.98V187.757L774.108 187.705V185.847H775.197V187.693H777.184V188.552H775.197ZM782.271 191.346H779.362C779.477 192.833 780.054 193.166 781.336 193.166C782.002 193.166 782.861 193.102 783.502 193.012L783.617 193.743C783.028 193.987 781.913 194.089 781.195 194.089C779.041 194.089 778.208 193.192 778.208 190.795C778.208 188.346 779.067 187.539 781.079 187.539C782.964 187.539 783.758 188.231 783.758 189.577C783.771 190.692 783.31 191.346 782.271 191.346ZM779.349 190.5H781.989C782.553 190.5 782.669 190.038 782.669 189.577C782.656 188.782 782.246 188.462 781.131 188.462C779.823 188.462 779.387 188.923 779.349 190.5ZM789.31 187.539L789.182 188.564H788.823C788.131 188.564 787.477 188.859 786.49 189.359V193.935H785.401V187.693H786.247L786.362 188.68C787.272 187.962 788.182 187.539 789.028 187.539H789.31Z" fill="white"/>
</g>
<g clip-path="url(#clip5_1024_6688)">
<mask id="mask3_1024_6688" style="mask-type:luminance" maskUnits="userSpaceOnUse" x="587" y="150" width="25" height="27">
<path d="M591.831 163.667L590.869 164.82H587.985V162.257H593.113L591.831 163.667ZM593.113 157.129V159.693H587.985V157.129H593.113ZM593.113 152.001V154.565H587.985V152.001H593.113ZM598.24 166.32C597.385 166.623 596.664 167.218 596.205 168C595.746 168.783 595.578 169.702 595.732 170.596C595.885 171.49 596.35 172.301 597.043 172.886C597.737 173.471 598.615 173.792 599.522 173.792C600.429 173.792 601.307 173.471 602.001 172.886C602.694 172.301 603.159 171.49 603.312 170.596C603.466 169.702 603.298 168.783 602.839 168C602.38 167.218 601.659 166.623 600.804 166.32V154.565C600.804 153.283 598.24 153.283 598.24 154.565V166.32ZM599.522 176.357C598.177 176.357 596.866 175.934 595.774 175.147C594.683 174.361 593.867 173.251 593.442 171.975C593.016 170.699 593.003 169.321 593.404 168.037C593.805 166.753 594.6 165.627 595.676 164.82V154.565C595.676 153.545 596.082 152.567 596.803 151.846C597.524 151.125 598.502 150.72 599.522 150.72C600.542 150.72 601.52 151.125 602.241 151.846C602.963 152.567 603.368 153.545 603.368 154.565V164.82C604.444 165.627 605.239 166.753 605.64 168.037C606.041 169.321 606.028 170.699 605.603 171.975C605.177 173.251 604.361 174.361 603.27 175.147C602.178 175.934 600.867 176.357 599.522 176.357ZM611.059 162.257V164.82H608.175L607.213 163.667L605.932 162.257H611.059ZM605.932 157.129H611.059V159.693H605.932V157.129ZM605.932 152.001H611.059V154.565H605.932V152.001Z" fill="white"/>
</mask>
<g mask="url(#mask3_1024_6688)">
<mask id="mask4_1024_6688" style="mask-type:luminance" maskUnits="userSpaceOnUse" x="584" y="148" width="34" height="31">
<path d="M617.469 148.156H584.14V178.921H617.469V148.156Z" fill="white"/>
</mask>
<g mask="url(#mask4_1024_6688)">
<path d="M617.468 144.31H581.576V182.767H617.468V144.31Z" fill="white" fill-opacity="0.4"/>
</g>
</g>
<path d="M584.308 185.09V193.935H583.18V189.692H579.103V193.935H577.975V185.09H579.103V188.718H583.18V185.09H584.308ZM590.178 191.346H587.268C587.384 192.833 587.961 193.166 589.242 193.166C589.909 193.166 590.768 193.102 591.409 193.012L591.524 193.743C590.935 193.987 589.819 194.089 589.101 194.089C586.948 194.089 586.115 193.192 586.115 190.795C586.115 188.346 586.973 187.539 588.986 187.539C590.87 187.539 591.665 188.231 591.665 189.577C591.678 190.692 591.217 191.346 590.178 191.346ZM587.255 190.5H589.896C590.46 190.5 590.576 190.038 590.576 189.577C590.563 188.782 590.153 188.462 589.037 188.462C587.73 188.462 587.294 188.923 587.255 190.5ZM593.346 188.628L593.243 187.821C594.102 187.68 595.32 187.539 596.256 187.539C597.64 187.539 598.396 188.026 598.396 189.539V193.935H597.538L597.409 192.91C596.922 193.41 595.974 194.051 594.833 194.051C593.718 194.051 592.961 193.435 592.961 192.307V191.628C592.961 190.654 593.602 190.09 594.692 190.09H597.294V189.539C597.294 188.769 597.012 188.462 596.025 188.462C595.371 188.462 594.294 188.539 593.346 188.628ZM594.077 191.782V192.179C594.077 192.833 594.371 193.115 595.051 193.115C595.666 193.128 596.576 192.82 597.294 192.179V190.923H594.884C594.282 190.949 594.077 191.256 594.077 191.782ZM601.907 188.552V192.218C601.907 192.82 602.137 193.051 602.753 193.051H603.701L603.829 193.884C603.419 194 602.727 194.051 602.419 194.051C601.368 194.051 600.817 193.448 600.817 192.359V188.552H599.689V187.757L600.817 187.705V185.847H601.907V187.693H603.894V188.552H601.907ZM605.558 185.039H606.071C606.302 185.039 606.404 185.167 606.404 185.372V186.103C606.404 186.334 606.302 186.436 606.071 186.436H605.558C605.34 186.436 605.225 186.334 605.225 186.103V185.372C605.225 185.167 605.34 185.039 605.558 185.039ZM606.353 193.935H605.276V187.693H606.353V193.935ZM609.328 187.693L609.404 188.68C610.353 187.962 611.276 187.539 612.199 187.539C613.301 187.539 613.891 188.128 613.891 189.257V193.935H612.801V189.564C612.801 188.731 612.545 188.462 611.904 188.462C611.161 188.462 610.494 188.834 609.494 189.449V193.935H608.405V187.693H609.328ZM621.66 188.295L620.737 188.372C620.917 188.667 620.993 189.051 620.993 189.526C620.993 190.897 620.314 191.513 618.314 191.513C617.802 191.513 617.366 191.461 617.02 191.384C616.738 191.782 616.776 192.359 617.455 192.461L619.788 192.833C620.968 193.012 621.365 193.551 621.365 194.589C621.365 196.051 620.622 196.525 618.391 196.525C616.135 196.525 615.379 196.051 615.379 194.628C615.379 193.871 615.674 193.5 616.391 193.115C615.725 192.641 615.866 191.602 616.443 191.167C615.866 190.859 615.648 190.321 615.648 189.539C615.648 188.128 616.315 187.539 618.327 187.539C618.93 187.539 619.404 187.59 619.776 187.693H621.724L621.66 188.295ZM618.314 190.679C619.571 190.679 619.981 190.346 619.981 189.526C619.981 188.693 619.571 188.372 618.314 188.372C617.071 188.372 616.648 188.693 616.648 189.526C616.648 190.346 617.071 190.679 618.314 190.679ZM619.224 193.641L617.097 193.346C616.648 193.692 616.443 194 616.443 194.538C616.443 195.422 616.853 195.602 618.378 195.602C619.891 195.602 620.301 195.397 620.301 194.538C620.301 193.91 620.109 193.782 619.224 193.641Z" fill="white" fill-opacity="0.4"/>
</g>
<path d="M536.629 624.642V623.499H528.821V624.642H532.073V633.608H533.362V624.642H536.629ZM539.511 626.298C537.065 626.298 536.156 627.323 536.156 630.048C536.156 632.788 537.065 633.798 539.511 633.798C541.972 633.798 542.866 632.788 542.866 630.048C542.866 627.323 541.972 626.298 539.511 626.298ZM539.511 627.352C541.064 627.352 541.577 627.968 541.577 630.048C541.577 632.128 541.064 632.744 539.511 632.744C537.958 632.744 537.46 632.128 537.46 630.048C537.46 627.968 537.958 627.352 539.511 627.352ZM550.914 623.353H549.669V625.55C549.669 626.049 549.684 626.473 549.728 626.957C548.936 626.503 548.072 626.298 547.193 626.298C545.362 626.298 544.497 627.235 544.497 630.019C544.497 632.509 545.201 633.784 547.003 633.784C548.101 633.784 549.068 633.256 549.83 632.582L549.947 633.608H550.914V623.353ZM549.669 631.718C548.702 632.407 548.204 632.7 547.413 632.7C546.256 632.7 545.772 632.114 545.772 630.004C545.772 627.894 546.256 627.382 547.486 627.382C548.233 627.382 548.834 627.543 549.669 627.777V631.718ZM553.262 627.543C554.346 627.44 555.577 627.352 556.324 627.352C557.452 627.352 557.774 627.704 557.774 628.583V629.213H554.8C553.555 629.213 552.822 629.858 552.822 630.971V631.747C552.822 633.037 553.687 633.74 554.961 633.74C556.265 633.74 557.349 633.007 557.906 632.436L558.052 633.608H559.034V628.583C559.034 626.854 558.17 626.298 556.587 626.298C555.518 626.298 554.126 626.459 553.145 626.62L553.262 627.543ZM554.097 631.147C554.097 630.546 554.331 630.194 555.02 630.165H557.774V631.601C556.954 632.333 555.913 632.685 555.21 632.67C554.434 632.67 554.097 632.348 554.097 631.601V631.147ZM567.587 626.473H566.239L564.379 631.791C564.291 632.055 564.188 632.363 564.071 632.656H563.866C563.807 632.363 563.705 632.084 563.602 631.791L561.712 626.473H560.379L562.972 633.286C563.031 633.491 563.207 633.608 563.412 633.608H563.69L563.573 633.916C563.207 634.809 562.65 635.439 561.493 635.805L561.61 636.626C563.383 636.538 564.262 635.263 564.73 634.004L567.587 626.473Z" fill="#555555"/>
<path d="M794.461 623.543C793.64 623.324 792.834 623.324 792.424 623.324C789.758 623.324 788.498 624.056 788.498 628.803C788.498 632.626 789.055 633.784 791.911 633.784C794.636 633.784 795.105 632.421 795.105 630.341C795.105 627.894 794.461 627.015 792.336 627.015C791.208 627.015 790.505 627.264 789.787 628.07C789.875 624.935 790.564 624.422 792.424 624.422C793.303 624.422 793.699 624.422 794.343 624.481L794.461 623.543ZM791.926 632.685C789.963 632.685 789.772 631.821 789.772 628.993C790.608 628.261 791.179 628.056 791.999 628.056C793.494 628.056 793.875 628.685 793.875 630.341C793.875 631.85 793.655 632.685 791.926 632.685ZM797.38 631.879C797.043 631.879 796.911 631.996 796.911 632.348V633.139C796.911 633.491 797.043 633.608 797.38 633.608H797.79C798.142 633.608 798.259 633.491 798.259 633.139V632.348C798.259 631.996 798.142 631.879 797.79 631.879H797.38ZM807.499 631V630.077H806.195V625.433H805.199L804.979 627.103V630.077H801.507C801.17 630.077 800.965 629.872 801.141 629.477L803.968 623.499H802.694L799.822 629.564C799.485 630.312 799.954 631.132 800.789 631.132H804.979V633.608H806.195V631.132L807.499 631ZM810.828 628.392C809.553 628.524 809.158 629.506 809.158 631.088C809.158 632.934 809.861 633.769 812.601 633.754C815.37 633.725 816.029 632.934 816.029 631.088C816.029 629.506 815.648 628.524 814.373 628.392V628.334C815.399 628.217 815.809 627.338 815.809 626.019C815.809 624.173 815.179 623.353 812.601 623.353C810.037 623.353 809.378 624.173 809.378 626.019C809.378 627.338 809.803 628.217 810.828 628.334V628.392ZM812.615 624.393C814.285 624.393 814.637 624.818 814.637 626.136C814.637 627.499 814.329 627.85 812.63 627.85C810.96 627.85 810.564 627.528 810.564 626.136C810.564 624.818 810.945 624.393 812.615 624.393ZM812.63 628.876C814.403 628.876 814.798 629.228 814.798 630.824C814.798 632.187 814.403 632.641 812.615 632.641C810.813 632.641 810.374 632.187 810.374 630.824C810.374 629.257 810.799 628.891 812.63 628.876Z" fill="#0077E8"/>
<path d="M825.738 626.473H824.712V633.608H825.958V628.451C827.056 627.66 827.584 627.352 828.302 627.352C829.049 627.352 829.415 627.689 829.415 628.612V633.608H830.616V628.466C831.701 627.675 832.228 627.352 832.96 627.352C833.752 627.352 834.059 627.733 834.074 628.612V633.608H835.304V628.261C835.304 626.971 834.631 626.297 833.4 626.297C832.433 626.297 831.51 626.708 830.529 627.557C830.323 626.722 829.693 626.297 828.727 626.297C827.73 626.297 826.793 626.752 825.811 627.601L825.738 626.473ZM837.458 623.031C837.912 622.987 838.556 622.972 839.201 622.972C840.227 622.972 840.534 623.148 840.549 623.792C840.549 624.261 840.446 624.789 839.377 624.803H838.132V625.536H839.377C840.446 625.536 840.651 625.99 840.651 626.532C840.651 627.352 840.285 627.631 839.216 627.631C838.571 627.631 838.029 627.616 837.341 627.557L837.282 628.29C837.97 628.378 838.703 628.451 839.45 628.451C841.091 628.451 841.677 627.894 841.648 626.649C841.633 625.799 841.34 625.257 840.388 625.125V625.096C841.267 624.964 841.486 624.349 841.486 623.558C841.486 622.488 840.944 622.152 839.333 622.152C838.688 622.152 838.058 622.21 837.399 622.313L837.458 623.031Z" fill="#555555"/>
<path d="M530.989 670.8H529.714V679.018C529.714 680.117 530.271 680.923 531.765 680.923C533.069 680.923 534.402 680.923 535.677 680.82L535.618 679.824H531.97C531.296 679.824 530.989 679.531 530.989 678.857V670.8ZM537.181 674.843C538.265 674.74 539.496 674.653 540.243 674.653C541.371 674.653 541.693 675.004 541.693 675.883V676.513H538.719C537.474 676.513 536.742 677.158 536.742 678.271V679.048C536.742 680.337 537.606 681.04 538.88 681.04C540.184 681.04 541.268 680.307 541.825 679.736L541.972 680.908H542.953V675.883C542.953 674.154 542.089 673.598 540.507 673.598C539.437 673.598 538.045 673.759 537.064 673.92L537.181 674.843ZM538.016 678.447C538.016 677.846 538.25 677.495 538.939 677.465H541.693V678.901C540.873 679.634 539.833 679.985 539.129 679.971C538.353 679.971 538.016 679.648 538.016 678.901V678.447ZM548.43 678.022C549.118 678.183 549.558 678.315 549.558 679.018C549.558 679.868 549.06 680.014 547.463 680.014C546.54 680.029 545.705 680 545.002 679.956L544.914 680.864C546.13 681.055 547.199 681.069 547.712 681.069C549.778 681.069 550.759 680.776 550.759 679.018C550.759 677.802 550.232 677.334 549.104 677.055L547.023 676.586C546.335 676.425 545.983 676.308 545.983 675.561C545.983 674.667 546.423 674.638 547.741 674.653C548.635 674.653 549.558 674.696 550.452 674.726L550.554 673.817C549.675 673.686 548.488 673.612 547.551 673.598C545.602 673.568 544.767 673.905 544.767 675.561C544.767 676.733 545.221 677.275 546.379 677.553L548.43 678.022ZM554.404 674.755H556.675V673.774H554.404V671.664H553.159V673.788L551.87 673.847V674.755H553.159V679.106C553.159 680.351 553.789 681.04 554.99 681.04C555.342 681.04 556.133 680.981 556.602 680.85L556.455 679.897H555.371C554.668 679.897 554.404 679.634 554.404 678.945V674.755ZM560.887 670.8L560.946 671.898H565.985C565.868 672.133 565.766 672.382 565.678 672.645L562.836 680.908H564.125L567.275 671.693C567.45 671.137 567.201 670.8 566.601 670.8H560.887ZM578.312 670.653H577.066V672.851C577.066 673.349 577.081 673.774 577.125 674.257C576.334 673.803 575.47 673.598 574.591 673.598C572.759 673.598 571.895 674.535 571.895 677.319C571.895 679.809 572.598 681.084 574.4 681.084C575.499 681.084 576.466 680.557 577.228 679.883L577.345 680.908H578.312V670.653ZM577.066 679.018C576.1 679.707 575.601 680 574.81 680C573.653 680 573.169 679.414 573.169 677.304C573.169 675.195 573.653 674.682 574.884 674.682C575.631 674.682 576.231 674.843 577.066 675.077V679.018ZM580.659 674.843C581.743 674.74 582.974 674.653 583.721 674.653C584.849 674.653 585.172 675.004 585.172 675.883V676.513H582.198C580.952 676.513 580.22 677.158 580.22 678.271V679.048C580.22 680.337 581.084 681.04 582.359 681.04C583.663 681.04 584.747 680.307 585.303 679.736L585.45 680.908H586.431V675.883C586.431 674.154 585.567 673.598 583.985 673.598C582.915 673.598 581.524 673.759 580.542 673.92L580.659 674.843ZM581.494 678.447C581.494 677.846 581.729 677.495 582.417 677.465H585.172V678.901C584.351 679.634 583.311 679.985 582.608 679.971C581.831 679.971 581.494 679.648 581.494 678.901V678.447ZM594.985 673.774H593.637L591.776 679.092C591.688 679.355 591.586 679.663 591.469 679.956H591.263C591.205 679.663 591.102 679.385 591 679.092L589.11 673.774H587.777L590.37 680.586C590.428 680.791 590.604 680.908 590.809 680.908H591.088L590.97 681.216C590.604 682.109 590.047 682.739 588.89 683.106L589.007 683.926C590.78 683.838 591.659 682.564 592.128 681.304L594.985 673.774ZM599.662 678.022C600.351 678.183 600.79 678.315 600.79 679.018C600.79 679.868 600.292 680.014 598.695 680.014C597.772 680.029 596.937 680 596.234 679.956L596.146 680.864C597.362 681.055 598.432 681.069 598.944 681.069C601.01 681.069 601.992 680.776 601.992 679.018C601.992 677.802 601.464 677.334 600.336 677.055L598.256 676.586C597.567 676.425 597.216 676.308 597.216 675.561C597.216 674.667 597.655 674.638 598.974 674.653C599.867 674.653 600.79 674.696 601.684 674.726L601.787 673.817C600.908 673.686 599.721 673.612 598.783 673.598C596.835 673.568 596 673.905 596 675.561C596 676.733 596.454 677.275 597.611 677.553L599.662 678.022Z" fill="#555555"/>
<path d="M788.211 671.898L788.27 670.8H782.923L782.688 675.136C782.674 675.444 782.879 675.678 783.172 675.707L783.846 675.751C786.409 675.912 787.332 676 787.303 677.876C787.274 679.209 786.922 679.941 785.003 679.941C784.329 679.941 783.348 679.839 782.439 679.678L782.293 680.718C783.377 680.967 784.49 681.084 785.296 681.084C788.065 681.084 788.563 679.502 788.563 677.876C788.578 675.693 787.552 674.931 784.901 674.74L783.816 674.653L783.963 671.898H788.211ZM793.795 670.609C791.202 670.609 790.323 672.162 790.323 675.854C790.323 679.546 791.202 681.099 793.795 681.099C796.403 681.099 797.282 679.546 797.282 675.854C797.282 672.162 796.403 670.609 793.795 670.609ZM793.795 671.737C795.48 671.737 796.022 672.865 796.022 675.854C796.022 678.842 795.48 679.971 793.795 679.971C792.11 679.971 791.583 678.842 791.583 675.854C791.583 672.865 792.11 671.737 793.795 671.737ZM799.678 679.179C799.341 679.179 799.209 679.297 799.209 679.648V680.439C799.209 680.791 799.341 680.908 799.678 680.908H800.088C800.44 680.908 800.557 680.791 800.557 680.439V679.648C800.557 679.297 800.44 679.179 800.088 679.179H799.678ZM804.241 675.693C802.967 675.825 802.571 676.806 802.571 678.388C802.571 680.234 803.275 681.069 806.014 681.055C808.783 681.025 809.442 680.234 809.442 678.388C809.442 676.806 809.061 675.825 807.787 675.693V675.634C808.812 675.517 809.222 674.638 809.222 673.319C809.222 671.473 808.593 670.653 806.014 670.653C803.45 670.653 802.791 671.473 802.791 673.319C802.791 674.638 803.216 675.517 804.241 675.634V675.693ZM806.029 671.693C807.699 671.693 808.05 672.118 808.05 673.437C808.05 674.799 807.743 675.151 806.043 675.151C804.373 675.151 803.978 674.828 803.978 673.437C803.978 672.118 804.359 671.693 806.029 671.693ZM806.043 676.176C807.816 676.176 808.212 676.528 808.212 678.125C808.212 679.487 807.816 679.941 806.029 679.941C804.227 679.941 803.787 679.487 803.787 678.125C803.787 676.557 804.212 676.191 806.043 676.176ZM814.649 680.908V670.8H813.36L810.782 671.84L810.957 672.792L813.433 672.016C813.375 672.309 813.36 672.602 813.36 672.895V680.908H814.649Z" fill="#0077E8"/>
<path d="M824.989 673.774H823.963V680.908H825.208V675.751C826.307 674.96 826.834 674.653 827.552 674.653C828.299 674.653 828.666 674.989 828.666 675.912V680.908H829.867V675.766C830.951 674.975 831.479 674.653 832.211 674.653C833.002 674.653 833.31 675.033 833.324 675.912V680.908H834.555V675.561C834.555 674.272 833.881 673.598 832.651 673.598C831.684 673.598 830.761 674.008 829.779 674.858C829.574 674.023 828.944 673.598 827.977 673.598C826.981 673.598 826.043 674.052 825.062 674.902L824.989 673.774ZM836.708 670.331C837.162 670.287 837.807 670.272 838.452 670.272C839.477 670.272 839.785 670.448 839.799 671.093C839.799 671.561 839.697 672.089 838.627 672.103H837.382V672.836H838.627C839.697 672.836 839.902 673.29 839.902 673.832C839.902 674.653 839.536 674.931 838.466 674.931C837.822 674.931 837.28 674.916 836.591 674.858L836.532 675.59C837.221 675.678 837.954 675.751 838.701 675.751C840.342 675.751 840.928 675.195 840.898 673.949C840.884 673.1 840.591 672.558 839.638 672.426V672.396C840.517 672.265 840.737 671.649 840.737 670.858C840.737 669.789 840.195 669.452 838.584 669.452C837.939 669.452 837.309 669.51 836.65 669.613L836.708 670.331Z" fill="#555555"/>
<path d="M530.989 718.1H529.714V726.319C529.714 727.417 530.271 728.223 531.765 728.223C533.069 728.223 534.402 728.223 535.677 728.12L535.618 727.124H531.97C531.296 727.124 530.989 726.831 530.989 726.157V718.1ZM537.181 722.143C538.265 722.041 539.496 721.953 540.243 721.953C541.371 721.953 541.693 722.304 541.693 723.183V723.813H538.719C537.474 723.813 536.742 724.458 536.742 725.571V726.348C536.742 727.637 537.606 728.34 538.88 728.34C540.184 728.34 541.268 727.608 541.825 727.036L541.972 728.208H542.953V723.183C542.953 721.455 542.089 720.898 540.507 720.898C539.437 720.898 538.045 721.059 537.064 721.22L537.181 722.143ZM538.016 725.747C538.016 725.146 538.25 724.795 538.939 724.766H541.693V726.201C540.873 726.934 539.833 727.285 539.129 727.271C538.353 727.271 538.016 726.948 538.016 726.201V725.747ZM548.43 725.322C549.118 725.483 549.558 725.615 549.558 726.319C549.558 727.168 549.06 727.315 547.463 727.315C546.54 727.329 545.705 727.3 545.002 727.256L544.914 728.164C546.13 728.355 547.199 728.37 547.712 728.37C549.778 728.37 550.759 728.077 550.759 726.319C550.759 725.103 550.232 724.634 549.104 724.355L547.023 723.887C546.335 723.725 545.983 723.608 545.983 722.861C545.983 721.967 546.423 721.938 547.741 721.953C548.635 721.953 549.558 721.997 550.452 722.026L550.554 721.118C549.675 720.986 548.488 720.913 547.551 720.898C545.602 720.869 544.767 721.206 544.767 722.861C544.767 724.033 545.221 724.575 546.379 724.853L548.43 725.322ZM554.404 722.055H556.675V721.074H554.404V718.964H553.159V721.088L551.87 721.147V722.055H553.159V726.406C553.159 727.652 553.789 728.34 554.99 728.34C555.342 728.34 556.133 728.282 556.602 728.15L556.455 727.198H555.371C554.668 727.198 554.404 726.934 554.404 726.245V722.055ZM561.356 719.169C562.03 719.111 562.968 719.052 563.92 719.052C565.473 719.052 565.956 719.272 565.985 720.546C565.985 721.484 565.824 722.378 564.213 722.392H562.338V723.403H564.213C565.883 723.403 566.22 724.165 566.22 725.264C566.22 726.743 565.59 727.241 563.964 727.241C563.026 727.241 562.162 727.183 561.166 727.095L561.078 728.135C562.103 728.282 563.202 728.399 564.286 728.399C566.674 728.399 567.524 727.447 567.494 725.396C567.465 724.004 567.055 723.081 565.736 722.861V722.802C566.894 722.568 567.216 721.557 567.216 720.253C567.216 718.466 566.308 717.909 564.096 717.909C563.158 717.909 562.25 717.997 561.253 718.173L561.356 719.169ZM572.866 717.909C570.273 717.909 569.394 719.462 569.394 723.154C569.394 726.846 570.273 728.399 572.866 728.399C575.474 728.399 576.353 726.846 576.353 723.154C576.353 719.462 575.474 717.909 572.866 717.909ZM572.866 719.037C574.551 719.037 575.093 720.165 575.093 723.154C575.093 726.143 574.551 727.271 572.866 727.271C571.181 727.271 570.654 726.143 570.654 723.154C570.654 720.165 571.181 719.037 572.866 719.037ZM587.783 717.953H586.538V720.151C586.538 720.649 586.552 721.074 586.596 721.557C585.805 721.103 584.941 720.898 584.062 720.898C582.23 720.898 581.366 721.836 581.366 724.619C581.366 727.11 582.069 728.384 583.871 728.384C584.97 728.384 585.937 727.857 586.699 727.183L586.816 728.208H587.783V717.953ZM586.538 726.319C585.571 727.007 585.072 727.3 584.281 727.3C583.124 727.3 582.641 726.714 582.641 724.604C582.641 722.495 583.124 721.982 584.355 721.982C585.102 721.982 585.702 722.143 586.538 722.378V726.319ZM590.13 722.143C591.214 722.041 592.445 721.953 593.192 721.953C594.32 721.953 594.643 722.304 594.643 723.183V723.813H591.669C590.423 723.813 589.691 724.458 589.691 725.571V726.348C589.691 727.637 590.555 728.34 591.83 728.34C593.134 728.34 594.218 727.608 594.774 727.036L594.921 728.208H595.902V723.183C595.902 721.455 595.038 720.898 593.456 720.898C592.386 720.898 590.995 721.059 590.013 721.22L590.13 722.143ZM590.965 725.747C590.965 725.146 591.2 724.795 591.888 724.766H594.643V726.201C593.822 726.934 592.782 727.285 592.079 727.271C591.302 727.271 590.965 726.948 590.965 726.201V725.747ZM604.456 721.074H603.108L601.247 726.392C601.159 726.655 601.057 726.963 600.94 727.256H600.735C600.676 726.963 600.573 726.685 600.471 726.392L598.581 721.074H597.248L599.841 727.886C599.899 728.091 600.075 728.208 600.28 728.208H600.559L600.442 728.516C600.075 729.41 599.519 730.04 598.361 730.406L598.478 731.226C600.251 731.138 601.13 729.864 601.599 728.604L604.456 721.074ZM609.133 725.322C609.822 725.483 610.261 725.615 610.261 726.319C610.261 727.168 609.763 727.315 608.166 727.315C607.244 727.329 606.408 727.3 605.705 727.256L605.617 728.164C606.833 728.355 607.903 728.37 608.416 728.37C610.481 728.37 611.463 728.077 611.463 726.319C611.463 725.103 610.935 724.634 609.807 724.355L607.727 723.887C607.038 723.725 606.687 723.608 606.687 722.861C606.687 721.967 607.126 721.938 608.445 721.953C609.338 721.953 610.261 721.997 611.155 722.026L611.258 721.118C610.379 720.986 609.192 720.913 608.254 720.898C606.306 720.869 605.471 721.206 605.471 722.861C605.471 724.033 605.925 724.575 607.082 724.853L609.133 725.322Z" fill="#555555"/>
<path d="M775.513 719.301C776.772 719.096 777.461 719.067 778.413 719.067C779.571 719.067 780.274 719.184 780.303 720.165C780.347 721.132 779.746 722.143 778.457 723.535L775.527 726.846C775.381 727.007 775.337 727.183 775.337 727.403V728.208H781.973V726.963H778.545C778.018 726.963 777.417 726.978 776.904 727.022L779.805 723.784C781.153 722.29 781.607 721.381 781.607 720.107C781.607 718.276 780.435 717.924 778.501 717.924C777.593 717.924 776.802 717.983 775.425 718.305L775.513 719.301ZM786.947 728.208V718.1H785.658L783.08 719.14L783.255 720.092L785.731 719.316C785.673 719.609 785.658 719.902 785.658 720.195V728.208H786.947ZM791.276 722.993C790.001 723.125 789.605 724.106 789.605 725.689C789.605 727.534 790.309 728.37 793.048 728.355C795.817 728.326 796.476 727.534 796.476 725.689C796.476 724.106 796.095 723.125 794.821 722.993V722.934C795.846 722.817 796.257 721.938 796.257 720.62C796.257 718.774 795.627 717.953 793.048 717.953C790.484 717.953 789.825 718.774 789.825 720.62C789.825 721.938 790.25 722.817 791.276 722.934V722.993ZM793.063 718.993C794.733 718.993 795.085 719.418 795.085 720.737C795.085 722.099 794.777 722.451 793.077 722.451C791.407 722.451 791.012 722.129 791.012 720.737C791.012 719.418 791.393 718.993 793.063 718.993ZM793.077 723.476C794.85 723.476 795.246 723.828 795.246 725.425C795.246 726.787 794.85 727.241 793.063 727.241C791.261 727.241 790.821 726.787 790.821 725.425C790.821 723.857 791.246 723.491 793.077 723.476ZM798.958 726.48C798.621 726.48 798.49 726.597 798.49 726.948V727.74C798.49 728.091 798.621 728.208 798.958 728.208H799.369C799.72 728.208 799.837 728.091 799.837 727.74V726.948C799.837 726.597 799.72 726.48 799.369 726.48H798.958ZM800.883 718.1L800.942 719.199H805.981C805.864 719.433 805.762 719.682 805.674 719.946L802.832 728.208H804.121L807.271 718.993C807.446 718.437 807.197 718.1 806.597 718.1H800.883ZM815.888 725.601V724.678H814.584V720.034H813.588L813.368 721.704V724.678H809.896C809.559 724.678 809.354 724.473 809.529 724.077L812.357 718.1H811.082L808.211 724.165C807.874 724.912 808.343 725.733 809.178 725.733H813.368V728.208H814.584V725.733L815.888 725.601Z" fill="#0077E8"/>
<path d="M825.228 721.074H824.202V728.208H825.448V723.052C826.546 722.26 827.074 721.953 827.792 721.953C828.539 721.953 828.905 722.29 828.905 723.213V728.208H830.106V723.066C831.19 722.275 831.718 721.953 832.45 721.953C833.241 721.953 833.549 722.334 833.564 723.213V728.208H834.794V722.861C834.794 721.572 834.12 720.898 832.89 720.898C831.923 720.898 831 721.308 830.018 722.158C829.813 721.323 829.183 720.898 828.216 720.898C827.22 720.898 826.283 721.352 825.301 722.202L825.228 721.074ZM836.948 717.631C837.402 717.587 838.046 717.572 838.691 717.572C839.716 717.572 840.024 717.748 840.039 718.393C840.039 718.862 839.936 719.389 838.867 719.404H837.621V720.136H838.867C839.936 720.136 840.141 720.59 840.141 721.132C840.141 721.953 839.775 722.231 838.706 722.231C838.061 722.231 837.519 722.216 836.83 722.158L836.772 722.89C837.46 722.978 838.193 723.052 838.94 723.052C840.581 723.052 841.167 722.495 841.137 721.25C841.123 720.4 840.83 719.858 839.878 719.726V719.697C840.757 719.565 840.976 718.949 840.976 718.158C840.976 717.089 840.434 716.752 838.823 716.752C838.178 716.752 837.548 716.811 836.889 716.913L836.948 717.631Z" fill="#555555"/>
<path d="M513.819 751.375H857.181" stroke="#F9F9F9" stroke-width="2.7469"/>
<path d="M857.181 560.007H513.819V596.633H857.181V560.007Z" fill="#0077E8"/>
<path d="M532.967 576.114V574.971H525.158V576.114H528.41V585.079H529.7V576.114H532.967ZM539.225 577.945H537.98V583.16C536.939 583.834 536.251 584.186 535.489 584.186C534.669 584.186 534.346 583.863 534.361 582.955V577.945H533.116V583.307C533.116 584.596 533.775 585.27 535.064 585.27C536.09 585.27 537.071 584.86 538.141 584.054L538.229 585.079H539.225V577.945ZM545.807 582.12C546.994 582.12 547.521 581.373 547.507 580.098C547.507 578.56 546.598 577.769 544.445 577.769C542.145 577.769 541.163 578.692 541.163 581.49C541.163 584.23 542.116 585.255 544.577 585.255C545.397 585.255 546.672 585.138 547.346 584.86L547.214 584.025C546.481 584.127 545.5 584.2 544.738 584.2C543.273 584.2 542.614 583.819 542.482 582.12H545.807ZM542.467 581.153C542.511 579.351 543.009 578.824 544.503 578.824C545.778 578.824 546.247 579.19 546.262 580.098C546.262 580.626 546.13 581.153 545.485 581.153H542.467Z" fill="white"/>
<path d="M584.327 574.971H582.965L581.368 582.867C581.295 583.263 581.236 583.688 581.178 584.098H580.811C580.767 583.688 580.694 583.277 580.606 582.853L579.039 575.396C578.98 575.147 578.79 574.971 578.541 574.971H577.134C576.871 574.971 576.68 575.147 576.636 575.396L575.069 582.853C574.981 583.248 574.907 583.644 574.834 584.098H574.497C574.424 583.644 574.365 583.233 574.292 582.853L572.71 574.971H571.347L573.398 584.699C573.442 584.918 573.648 585.079 573.897 585.079H575.376C575.625 585.079 575.83 584.918 575.889 584.684L577.457 577.08C577.53 576.714 577.603 576.319 577.676 575.938H577.984C578.057 576.319 578.13 576.7 578.218 577.08L579.801 584.684C579.845 584.918 580.05 585.079 580.299 585.079H581.764C582.027 585.079 582.218 584.918 582.276 584.699L584.327 574.971ZM589.963 582.12C591.15 582.12 591.677 581.373 591.662 580.098C591.662 578.56 590.754 577.769 588.6 577.769C586.3 577.769 585.319 578.692 585.319 581.49C585.319 584.23 586.271 585.255 588.732 585.255C589.553 585.255 590.827 585.138 591.501 584.86L591.369 584.025C590.637 584.127 589.655 584.2 588.893 584.2C587.428 584.2 586.769 583.819 586.637 582.12H589.963ZM586.623 581.153C586.667 579.351 587.165 578.824 588.659 578.824C589.934 578.824 590.402 579.19 590.417 580.098C590.417 580.626 590.285 581.153 589.641 581.153H586.623ZM599.634 574.824H598.388V577.022C598.388 577.52 598.403 577.945 598.447 578.428C597.656 577.974 596.791 577.769 595.912 577.769C594.081 577.769 593.217 578.707 593.217 581.49C593.217 583.981 593.92 585.255 595.722 585.255C596.821 585.255 597.788 584.728 598.549 584.054L598.667 585.079H599.634V574.824ZM598.388 583.19C597.421 583.878 596.923 584.171 596.132 584.171C594.975 584.171 594.491 583.585 594.491 581.475C594.491 579.366 594.975 578.853 596.205 578.853C596.953 578.853 597.553 579.014 598.388 579.249V583.19Z" fill="white"/>
<path d="M630.634 576.114V574.971H622.826V576.114H626.078V585.079H627.367V576.114H630.634ZM633.389 574.824H632.129V585.079H633.374V579.937C634.517 579.219 635.279 578.824 636.129 578.824C636.861 578.824 637.14 579.131 637.14 580.084V585.079H638.399V579.732C638.399 578.443 637.726 577.769 636.466 577.769C635.411 577.769 634.371 578.252 633.301 579.044C633.36 578.663 633.389 578.179 633.389 577.652V574.824ZM646.707 577.945H645.462V583.16C644.421 583.834 643.733 584.186 642.971 584.186C642.151 584.186 641.828 583.863 641.843 582.955V577.945H640.598V583.307C640.598 584.596 641.257 585.27 642.546 585.27C643.572 585.27 644.553 584.86 645.623 584.054L645.711 585.079H646.707V577.945Z" fill="white"/>
<path d="M683.196 576.055L683.27 575.059C681.966 574.956 680.486 574.956 679.08 574.956C677.893 574.956 677.131 575.615 677.131 576.773V585.079H678.42V580.406H682.64V579.366H678.42V577.022C678.42 576.348 678.713 576.055 679.402 576.055H683.196ZM689.165 577.769H688.843C687.876 577.769 686.836 578.252 685.796 579.073L685.664 577.945H684.697V585.079H685.942V579.849C687.07 579.278 687.817 578.941 688.609 578.941H689.019L689.165 577.769ZM690.958 574.912C690.709 574.912 690.577 575.059 690.577 575.293V576.128C690.577 576.392 690.709 576.509 690.958 576.509H691.544C691.808 576.509 691.925 576.392 691.925 576.128V575.293C691.925 575.059 691.808 574.912 691.544 574.912H690.958ZM691.866 585.079V577.945H690.636V585.079H691.866Z" fill="white"/>
<path d="M728.697 580.802C729.576 581.021 729.972 581.3 729.972 582.472C729.972 583.863 729.488 584.098 727.935 584.098C727.1 584.112 726.558 584.083 724.844 584.025L724.756 584.977C726.133 585.226 727.232 585.255 727.891 585.255C730.25 585.255 731.276 584.83 731.276 582.501C731.276 580.933 730.792 580.04 729.239 579.659L727.188 579.146C726.294 578.926 725.914 578.604 725.914 577.491C725.914 575.996 726.485 575.952 727.95 575.952C728.888 575.952 729.957 575.982 730.807 576.026L730.895 575.088C729.884 574.868 728.844 574.81 727.891 574.795C725.635 574.795 724.61 575.103 724.61 577.461C724.61 579 725.137 579.908 726.602 580.274L728.697 580.802ZM733.203 579.014C734.287 578.912 735.517 578.824 736.265 578.824C737.393 578.824 737.715 579.175 737.715 580.054V580.684H734.741C733.496 580.684 732.763 581.329 732.763 582.442V583.219C732.763 584.508 733.628 585.211 734.902 585.211C736.206 585.211 737.29 584.479 737.847 583.907L737.993 585.079H738.975V580.054C738.975 578.326 738.11 577.769 736.528 577.769C735.459 577.769 734.067 577.93 733.085 578.091L733.203 579.014ZM734.038 582.618C734.038 582.018 734.272 581.666 734.961 581.637H737.715V583.072C736.895 583.805 735.854 584.156 735.151 584.142C734.375 584.142 734.038 583.819 734.038 583.072V582.618ZM742.986 578.926H745.257V577.945H742.986V575.835H741.741V577.959L740.452 578.018V578.926H741.741V583.277C741.741 584.523 742.371 585.211 743.572 585.211C743.924 585.211 744.715 585.153 745.184 585.021L745.037 584.069H743.953C743.25 584.069 742.986 583.805 742.986 583.116V578.926Z" fill="white"/>
<path d="M775.7 580.802C776.579 581.021 776.974 581.3 776.974 582.472C776.974 583.863 776.491 584.098 774.938 584.098C774.103 584.112 773.561 584.083 771.847 584.025L771.759 584.977C773.136 585.226 774.235 585.255 774.894 585.255C777.252 585.255 778.278 584.83 778.278 582.501C778.278 580.933 777.795 580.04 776.242 579.659L774.191 579.146C773.297 578.926 772.916 578.604 772.916 577.491C772.916 575.996 773.487 575.952 774.952 575.952C775.89 575.952 776.959 575.982 777.809 576.026L777.897 575.088C776.886 574.868 775.846 574.81 774.894 574.795C772.638 574.795 771.612 575.103 771.612 577.461C771.612 579 772.14 579.908 773.605 580.274L775.7 580.802ZM786.226 577.945H784.981V583.16C783.941 583.834 783.252 584.186 782.491 584.186C781.67 584.186 781.348 583.863 781.362 582.955V577.945H780.117V583.307C780.117 584.596 780.776 585.27 782.066 585.27C783.091 585.27 784.073 584.86 785.142 584.054L785.23 585.079H786.226V577.945ZM789.571 577.945H788.516V585.079H789.762V579.952C790.904 579.249 791.666 578.824 792.516 578.824C793.248 578.824 793.541 579.131 793.541 580.084V585.079H794.787V579.732C794.787 578.443 794.113 577.769 792.853 577.769C791.798 577.769 790.743 578.252 789.659 579.073L789.571 577.945Z" fill="white"/>
<path d="M828.101 574.971C827.808 574.971 827.617 575.117 827.544 575.41L825.654 581.549C825.508 582.032 825.405 582.472 825.273 582.94H825.01C824.878 582.472 824.775 582.032 824.629 581.578L822.739 575.41C822.651 575.117 822.49 574.971 822.197 574.971H820.732C820.395 574.971 820.204 575.161 820.19 575.513L819.794 585.079H821.083L821.435 576.04H821.728L823.984 583.497C824.072 583.776 824.262 583.937 824.57 583.937H825.727C826.02 583.937 826.211 583.776 826.284 583.497L828.54 576.04H828.848L829.214 585.079H830.503L830.078 575.513C830.078 575.161 829.888 574.971 829.551 574.971H828.101ZM835.733 577.769C833.286 577.769 832.378 578.795 832.378 581.519C832.378 584.259 833.286 585.27 835.733 585.27C838.194 585.27 839.088 584.259 839.088 581.519C839.088 578.795 838.194 577.769 835.733 577.769ZM835.733 578.824C837.286 578.824 837.798 579.439 837.798 581.519C837.798 583.6 837.286 584.215 835.733 584.215C834.18 584.215 833.682 583.6 833.682 581.519C833.682 579.439 834.18 578.824 835.733 578.824ZM842.096 577.945H841.041V585.079H842.287V579.952C843.429 579.249 844.191 578.824 845.041 578.824C845.773 578.824 846.066 579.131 846.066 580.084V585.079H847.312V579.732C847.312 578.443 846.638 577.769 845.378 577.769C844.323 577.769 843.268 578.252 842.184 579.073L842.096 577.945Z" fill="white"/>
<path d="M560.974 482.641H513.361V558.639H560.974V482.641Z" fill="#0091F4"/>
<path d="M610.418 437.775H562.805V558.639H610.418V437.775Z" fill="#0091F4"/>
<path d="M659.862 329.268H612.249V558.639H659.862V329.268Z" fill="#0091F4"/>
<path d="M709.307 500.038H661.694V558.639H709.307V500.038Z" fill="#0091F4"/>
<path d="M758.751 372.765H711.138V558.639H758.751V372.765Z" fill="#0091F4"/>
<path d="M808.195 329.268H760.582V558.639H808.195V329.268Z" fill="#0091F4"/>
<path d="M857.639 408.475H810.026V558.639H857.639V408.475Z" fill="#0091F4"/>
<path d="M523.708 522.934C524.382 522.875 525.319 522.816 526.272 522.816C527.824 522.816 528.308 523.036 528.337 524.311C528.337 525.248 528.176 526.142 526.565 526.157H524.689V527.167H526.565C528.235 527.167 528.572 527.929 528.572 529.028C528.572 530.508 527.942 531.006 526.316 531.006C525.378 531.006 524.514 530.947 523.517 530.859L523.429 531.899C524.455 532.046 525.554 532.163 526.638 532.163C529.026 532.163 529.876 531.211 529.846 529.16C529.817 527.768 529.407 526.845 528.088 526.625V526.567C529.246 526.332 529.568 525.322 529.568 524.018C529.568 522.23 528.66 521.674 526.447 521.674C525.51 521.674 524.601 521.762 523.605 521.937L523.708 522.934ZM532.273 530.244C531.936 530.244 531.804 530.361 531.804 530.713V531.504C531.804 531.856 531.936 531.973 532.273 531.973H532.683C533.035 531.973 533.152 531.856 533.152 531.504V530.713C533.152 530.361 533.035 530.244 532.683 530.244H532.273ZM535.431 531.929C536.339 532.149 537.159 532.149 537.613 532.149C540.426 532.149 541.525 531.328 541.525 526.801C541.525 522.904 541.144 521.688 538.199 521.688C535.767 521.688 534.962 522.846 534.962 525.16C534.962 527.065 535.621 528.457 537.701 528.457C538.844 528.457 539.533 528.208 540.28 527.358C540.206 530.376 539.533 531.035 537.613 531.035C536.603 531.035 536.251 531.035 535.548 530.977L535.431 531.929ZM538.038 527.431C536.588 527.431 536.178 526.625 536.192 525.16C536.178 523.637 536.515 522.787 538.185 522.787C540.133 522.787 540.28 523.622 540.28 526.464C539.445 527.211 538.873 527.431 538.038 527.431ZM546.949 521.674C544.356 521.674 543.477 523.227 543.477 526.918C543.477 530.61 544.356 532.163 546.949 532.163C549.557 532.163 550.436 530.61 550.436 526.918C550.436 523.227 549.557 521.674 546.949 521.674ZM546.949 522.802C548.634 522.802 549.176 523.93 549.176 526.918C549.176 529.907 548.634 531.035 546.949 531.035C545.265 531.035 544.737 529.907 544.737 526.918C544.737 523.93 545.265 522.802 546.949 522.802ZM529.714 542.838H528.689V549.973H529.934V544.816C531.033 544.025 531.56 543.717 532.278 543.717C533.025 543.717 533.392 544.054 533.392 544.977V549.973H534.593V544.831C535.677 544.039 536.204 543.717 536.937 543.717C537.728 543.717 538.036 544.098 538.05 544.977V549.973H539.281V544.625C539.281 543.336 538.607 542.662 537.376 542.662C536.41 542.662 535.487 543.073 534.505 543.922C534.3 543.087 533.67 542.662 532.703 542.662C531.707 542.662 530.769 543.116 529.788 543.966L529.714 542.838ZM541.434 539.395C541.888 539.351 542.533 539.337 543.178 539.337C544.203 539.337 544.511 539.513 544.525 540.157C544.525 540.626 544.423 541.153 543.353 541.168H542.108V541.9H543.353C544.423 541.9 544.628 542.355 544.628 542.897C544.628 543.717 544.262 543.995 543.192 543.995C542.548 543.995 542.006 543.981 541.317 543.922L541.258 544.655C541.947 544.743 542.679 544.816 543.427 544.816C545.067 544.816 545.653 544.259 545.624 543.014C545.61 542.164 545.317 541.622 544.364 541.49V541.461C545.243 541.329 545.463 540.714 545.463 539.923C545.463 538.853 544.921 538.516 543.309 538.516C542.665 538.516 542.035 538.575 541.376 538.677L541.434 539.395Z" fill="white"/>
<path d="M578.9 522.963L578.958 521.864H573.611L573.377 526.201C573.362 526.508 573.567 526.743 573.86 526.772L574.534 526.816C577.098 526.977 578.021 527.065 577.991 528.94C577.962 530.273 577.61 531.006 575.691 531.006C575.017 531.006 574.036 530.903 573.127 530.742L572.981 531.782C574.065 532.031 575.178 532.149 575.984 532.149C578.753 532.149 579.251 530.566 579.251 528.94C579.266 526.757 578.24 525.995 575.589 525.805L574.505 525.717L574.651 522.963H578.9ZM581.539 530.244C581.202 530.244 581.07 530.361 581.07 530.713V531.504C581.07 531.856 581.202 531.973 581.539 531.973H581.949C582.3 531.973 582.418 531.856 582.418 531.504V530.713C582.418 530.361 582.3 530.244 581.949 530.244H581.539ZM590.351 521.908C589.53 521.688 588.725 521.688 588.315 521.688C585.648 521.688 584.388 522.421 584.388 527.167C584.388 530.991 584.945 532.149 587.802 532.149C590.527 532.149 590.995 530.786 590.995 528.706C590.995 526.259 590.351 525.38 588.227 525.38C587.099 525.38 586.395 525.629 585.677 526.435C585.765 523.3 586.454 522.787 588.315 522.787C589.194 522.787 589.589 522.787 590.234 522.846L590.351 521.908ZM587.816 531.05C585.853 531.05 585.663 530.185 585.663 527.358C586.498 526.625 587.069 526.42 587.89 526.42C589.384 526.42 589.765 527.05 589.765 528.706C589.765 530.215 589.545 531.05 587.816 531.05ZM594.486 526.757C593.212 526.889 592.816 527.871 592.816 529.453C592.816 531.299 593.519 532.134 596.259 532.119C599.028 532.09 599.687 531.299 599.687 529.453C599.687 527.871 599.306 526.889 598.031 526.757V526.699C599.057 526.581 599.467 525.702 599.467 524.384C599.467 522.538 598.837 521.718 596.259 521.718C593.695 521.718 593.036 522.538 593.036 524.384C593.036 525.702 593.461 526.581 594.486 526.699V526.757ZM596.273 522.758C597.944 522.758 598.295 523.183 598.295 524.501C598.295 525.864 597.987 526.215 596.288 526.215C594.618 526.215 594.222 525.893 594.222 524.501C594.222 523.183 594.603 522.758 596.273 522.758ZM596.288 527.241C598.061 527.241 598.456 527.592 598.456 529.189C598.456 530.552 598.061 531.006 596.273 531.006C594.471 531.006 594.032 530.552 594.032 529.189C594.032 527.622 594.457 527.255 596.288 527.241ZM579.159 542.838H578.133V549.973H579.378V544.816C580.477 544.025 581.005 543.717 581.722 543.717C582.47 543.717 582.836 544.054 582.836 544.977V549.973H584.037V544.831C585.121 544.039 585.649 543.717 586.381 543.717C587.172 543.717 587.48 544.098 587.495 544.977V549.973H588.725V544.625C588.725 543.336 588.051 542.662 586.821 542.662C585.854 542.662 584.931 543.073 583.949 543.922C583.744 543.087 583.114 542.662 582.147 542.662C581.151 542.662 580.213 543.116 579.232 543.966L579.159 542.838ZM590.878 539.395C591.333 539.351 591.977 539.337 592.622 539.337C593.647 539.337 593.955 539.513 593.97 540.157C593.97 540.626 593.867 541.153 592.798 541.168H591.552V541.9H592.798C593.867 541.9 594.072 542.355 594.072 542.897C594.072 543.717 593.706 543.995 592.636 543.995C591.992 543.995 591.45 543.981 590.761 543.922L590.703 544.655C591.391 544.743 592.124 544.816 592.871 544.816C594.512 544.816 595.098 544.259 595.068 543.014C595.054 542.164 594.761 541.622 593.808 541.49V541.461C594.687 541.329 594.907 540.714 594.907 539.923C594.907 538.853 594.365 538.516 592.754 538.516C592.109 538.516 591.479 538.575 590.82 538.677L590.878 539.395Z" fill="white"/>
<path d="M624.055 531.973V521.864H622.766L620.187 522.904L620.363 523.857L622.839 523.08C622.78 523.373 622.766 523.666 622.766 523.959V531.973H624.055ZM629.892 531.973V521.864H628.603L626.024 522.904L626.2 523.857L628.676 523.08C628.617 523.373 628.603 523.666 628.603 523.959V531.973H629.892ZM633.004 530.244C632.667 530.244 632.535 530.361 632.535 530.713V531.504C632.535 531.856 632.667 531.973 633.004 531.973H633.414C633.766 531.973 633.883 531.856 633.883 531.504V530.713C633.883 530.361 633.766 530.244 633.414 530.244H633.004ZM636.162 531.929C637.07 532.149 637.89 532.149 638.344 532.149C641.157 532.149 642.256 531.328 642.256 526.801C642.256 522.904 641.875 521.688 638.93 521.688C636.499 521.688 635.693 522.846 635.693 525.16C635.693 527.065 636.352 528.457 638.432 528.457C639.575 528.457 640.264 528.208 641.011 527.358C640.938 530.376 640.264 531.035 638.344 531.035C637.334 531.035 636.982 531.035 636.279 530.977L636.162 531.929ZM638.769 527.431C637.319 527.431 636.909 526.625 636.923 525.16C636.909 523.637 637.246 522.787 638.916 522.787C640.864 522.787 641.011 523.622 641.011 526.464C640.176 527.211 639.604 527.431 638.769 527.431ZM651.636 529.365V528.442H650.332V523.798H649.336L649.116 525.468V528.442H645.644C645.307 528.442 645.102 528.237 645.278 527.841L648.105 521.864H646.831L643.959 527.929C643.622 528.676 644.091 529.497 644.926 529.497H649.116V531.973H650.332V529.497L651.636 529.365ZM628.772 542.838H627.746V549.973H628.991V544.816C630.09 544.025 630.618 543.717 631.335 543.717C632.083 543.717 632.449 544.054 632.449 544.977V549.973H633.65V544.831C634.734 544.039 635.262 543.717 635.994 543.717C636.785 543.717 637.093 544.098 637.108 544.977V549.973H638.338V544.625C638.338 543.336 637.664 542.662 636.434 542.662C635.467 542.662 634.544 543.073 633.562 543.922C633.357 543.087 632.727 542.662 631.76 542.662C630.764 542.662 629.826 543.116 628.845 543.966L628.772 542.838ZM640.491 539.395C640.946 539.351 641.59 539.337 642.235 539.337C643.26 539.337 643.568 539.513 643.583 540.157C643.583 540.626 643.48 541.153 642.411 541.168H641.165V541.9H642.411C643.48 541.9 643.685 542.355 643.685 542.897C643.685 543.717 643.319 543.995 642.249 543.995C641.605 543.995 641.063 543.981 640.374 543.922L640.316 544.655C641.004 544.743 641.737 544.816 642.484 544.816C644.125 544.816 644.711 544.259 644.681 543.014C644.667 542.164 644.374 541.622 643.421 541.49V541.461C644.3 541.329 644.52 540.714 644.52 539.923C644.52 538.853 643.978 538.516 642.367 538.516C641.722 538.516 641.092 538.575 640.433 538.677L640.491 539.395Z" fill="white"/>
<path d="M672.863 523.065C674.123 522.86 674.812 522.831 675.764 522.831C676.921 522.831 677.624 522.948 677.654 523.93C677.698 524.897 677.097 525.908 675.808 527.299L672.878 530.61C672.731 530.771 672.687 530.947 672.687 531.167V531.973H679.324V530.727H675.896C675.368 530.727 674.768 530.742 674.255 530.786L677.156 527.548C678.503 526.054 678.958 525.146 678.958 523.871C678.958 522.04 677.786 521.688 675.852 521.688C674.943 521.688 674.152 521.747 672.775 522.069L672.863 523.065ZM681.573 530.244C681.236 530.244 681.104 530.361 681.104 530.713V531.504C681.104 531.856 681.236 531.973 681.573 531.973H681.983C682.335 531.973 682.452 531.856 682.452 531.504V530.713C682.452 530.361 682.335 530.244 681.983 530.244H681.573ZM683.498 521.864L683.556 522.963H688.596C688.479 523.197 688.376 523.446 688.288 523.71L685.446 531.973H686.735L689.885 522.758C690.061 522.201 689.812 521.864 689.211 521.864H683.498ZM691.405 523.065C692.665 522.86 693.353 522.831 694.305 522.831C695.463 522.831 696.166 522.948 696.195 523.93C696.239 524.897 695.639 525.908 694.349 527.299L691.419 530.61C691.273 530.771 691.229 530.947 691.229 531.167V531.973H697.865V530.727H694.437C693.91 530.727 693.309 530.742 692.796 530.786L695.697 527.548C697.045 526.054 697.499 525.146 697.499 523.871C697.499 522.04 696.327 521.688 694.393 521.688C693.485 521.688 692.694 521.747 691.317 522.069L691.405 523.065ZM677.963 542.838H676.937V549.973H678.182V544.816C679.281 544.025 679.809 543.717 680.526 543.717C681.274 543.717 681.64 544.054 681.64 544.977V549.973H682.841V544.831C683.925 544.039 684.453 543.717 685.185 543.717C685.976 543.717 686.284 544.098 686.299 544.977V549.973H687.529V544.625C687.529 543.336 686.855 542.662 685.625 542.662C684.658 542.662 683.735 543.073 682.753 543.922C682.548 543.087 681.918 542.662 680.951 542.662C679.955 542.662 679.017 543.116 678.036 543.966L677.963 542.838ZM689.682 539.395C690.137 539.351 690.781 539.337 691.426 539.337C692.451 539.337 692.759 539.513 692.774 540.157C692.774 540.626 692.671 541.153 691.602 541.168H690.356V541.9H691.602C692.671 541.9 692.876 542.355 692.876 542.897C692.876 543.717 692.51 543.995 691.44 543.995C690.796 543.995 690.254 543.981 689.565 543.922L689.507 544.655C690.195 544.743 690.928 544.816 691.675 544.816C693.316 544.816 693.902 544.259 693.872 543.014C693.858 542.164 693.565 541.622 692.612 541.49V541.461C693.491 541.329 693.711 540.714 693.711 539.923C693.711 538.853 693.169 538.516 691.558 538.516C690.913 538.516 690.283 538.575 689.624 538.677L689.682 539.395Z" fill="white"/>
<path d="M725.152 526.757C723.877 526.889 723.482 527.871 723.482 529.453C723.482 531.299 724.185 532.134 726.925 532.119C729.693 532.09 730.353 531.299 730.353 529.453C730.353 527.871 729.972 526.889 728.697 526.757V526.699C729.723 526.581 730.133 525.702 730.133 524.384C730.133 522.538 729.503 521.718 726.925 521.718C724.361 521.718 723.702 522.538 723.702 524.384C723.702 525.702 724.126 526.581 725.152 526.699V526.757ZM726.939 522.758C728.609 522.758 728.961 523.183 728.961 524.501C728.961 525.864 728.653 526.215 726.954 526.215C725.284 526.215 724.888 525.893 724.888 524.501C724.888 523.183 725.269 522.758 726.939 522.758ZM726.954 527.241C728.727 527.241 729.122 527.592 729.122 529.189C729.122 530.552 728.727 531.006 726.939 531.006C725.137 531.006 724.698 530.552 724.698 529.189C724.698 527.622 725.123 527.255 726.954 527.241ZM732.835 530.244C732.498 530.244 732.366 530.361 732.366 530.713V531.504C732.366 531.856 732.498 531.973 732.835 531.973H733.245C733.597 531.973 733.714 531.856 733.714 531.504V530.713C733.714 530.361 733.597 530.244 733.245 530.244H732.835ZM738.278 531.973V521.864H736.989L734.41 522.904L734.586 523.857L737.062 523.08C737.003 523.373 736.989 523.666 736.989 523.959V531.973H738.278ZM746.606 522.963L746.664 521.864H741.317L741.083 526.201C741.068 526.508 741.273 526.743 741.566 526.772L742.24 526.816C744.804 526.977 745.727 527.065 745.697 528.94C745.668 530.273 745.316 531.006 743.397 531.006C742.723 531.006 741.742 530.903 740.833 530.742L740.687 531.782C741.771 532.031 742.884 532.149 743.69 532.149C746.459 532.149 746.957 530.566 746.957 528.94C746.972 526.757 745.946 525.995 743.295 525.805L742.211 525.717L742.357 522.963H746.606ZM727.822 542.838H726.797V549.973H728.042V544.816C729.141 544.025 729.668 543.717 730.386 543.717C731.133 543.717 731.5 544.054 731.5 544.977V549.973H732.701V544.831C733.785 544.039 734.312 543.717 735.045 543.717C735.836 543.717 736.144 544.098 736.158 544.977V549.973H737.389V544.625C737.389 543.336 736.715 542.662 735.484 542.662C734.517 542.662 733.595 543.073 732.613 543.922C732.408 543.087 731.778 542.662 730.811 542.662C729.815 542.662 728.877 543.116 727.896 543.966L727.822 542.838ZM739.542 539.395C739.996 539.351 740.641 539.337 741.286 539.337C742.311 539.337 742.619 539.513 742.633 540.157C742.633 540.626 742.531 541.153 741.461 541.168H740.216V541.9H741.461C742.531 541.9 742.736 542.355 742.736 542.897C742.736 543.717 742.37 543.995 741.3 543.995C740.656 543.995 740.113 543.981 739.425 543.922L739.366 544.655C740.055 544.743 740.787 544.816 741.535 544.816C743.175 544.816 743.761 544.259 743.732 543.014C743.717 542.164 743.424 541.622 742.472 541.49V541.461C743.351 541.329 743.571 540.714 743.571 539.923C743.571 538.853 743.029 538.516 741.417 538.516C740.773 538.516 740.143 538.575 739.484 538.677L739.542 539.395Z" fill="white"/>
<path d="M772.387 531.973V521.864H771.098L768.52 522.904L768.696 523.857L771.171 523.08C771.113 523.373 771.098 523.666 771.098 523.959V531.973H772.387ZM778.225 531.973V521.864H776.935L774.357 522.904L774.533 523.857L777.009 523.08C776.95 523.373 776.935 523.666 776.935 523.959V531.973H778.225ZM781.337 530.244C781 530.244 780.868 530.361 780.868 530.713V531.504C780.868 531.856 781 531.973 781.337 531.973H781.747C782.099 531.973 782.216 531.856 782.216 531.504V530.713C782.216 530.361 782.099 530.244 781.747 530.244H781.337ZM784.494 531.929C785.402 532.149 786.223 532.149 786.677 532.149C789.49 532.149 790.589 531.328 790.589 526.801C790.589 522.904 790.208 521.688 787.263 521.688C784.831 521.688 784.025 522.846 784.025 525.16C784.025 527.065 784.685 528.457 786.765 528.457C787.908 528.457 788.596 528.208 789.343 527.358C789.27 530.376 788.596 531.035 786.677 531.035C785.666 531.035 785.314 531.035 784.611 530.977L784.494 531.929ZM787.102 527.431C785.651 527.431 785.241 526.625 785.256 525.16C785.241 523.637 785.578 522.787 787.248 522.787C789.197 522.787 789.343 523.622 789.343 526.464C788.508 527.211 787.937 527.431 787.102 527.431ZM799.969 529.365V528.442H798.665V523.798H797.668L797.449 525.468V528.442H793.977C793.64 528.442 793.435 528.237 793.61 527.841L796.438 521.864H795.163L792.292 527.929C791.955 528.676 792.424 529.497 793.259 529.497H797.449V531.973H798.665V529.497L799.969 529.365ZM777.104 542.838H776.079V549.973H777.324V544.816C778.423 544.025 778.95 543.717 779.668 543.717C780.415 543.717 780.781 544.054 780.781 544.977V549.973H781.983V544.831C783.067 544.039 783.594 543.717 784.327 543.717C785.118 543.717 785.425 544.098 785.44 544.977V549.973H786.671V544.625C786.671 543.336 785.997 542.662 784.766 542.662C783.799 542.662 782.876 543.073 781.895 543.922C781.69 543.087 781.06 542.662 780.093 542.662C779.097 542.662 778.159 543.116 777.177 543.966L777.104 542.838ZM788.824 539.395C789.278 539.351 789.923 539.337 790.567 539.337C791.593 539.337 791.9 539.513 791.915 540.157C791.915 540.626 791.813 541.153 790.743 541.168H789.498V541.9H790.743C791.813 541.9 792.018 542.355 792.018 542.897C792.018 543.717 791.651 543.995 790.582 543.995C789.937 543.995 789.395 543.981 788.707 543.922L788.648 544.655C789.337 544.743 790.069 544.816 790.816 544.816C792.457 544.816 793.043 544.259 793.014 543.014C792.999 542.164 792.706 541.622 791.754 541.49V541.461C792.633 541.329 792.853 540.714 792.853 539.923C792.853 538.853 792.311 538.516 790.699 538.516C790.054 538.516 789.425 538.575 788.765 538.677L788.824 539.395Z" fill="white"/>
<path d="M825.897 521.908C825.076 521.688 824.271 521.688 823.86 521.688C821.194 521.688 819.934 522.421 819.934 527.167C819.934 530.991 820.491 532.149 823.348 532.149C826.072 532.149 826.541 530.786 826.541 528.706C826.541 526.259 825.897 525.38 823.772 525.38C822.644 525.38 821.941 525.629 821.223 526.435C821.311 523.3 822 522.787 823.86 522.787C824.739 522.787 825.135 522.787 825.779 522.846L825.897 521.908ZM823.362 531.05C821.399 531.05 821.209 530.185 821.209 527.358C822.044 526.625 822.615 526.42 823.435 526.42C824.93 526.42 825.311 527.05 825.311 528.706C825.311 530.215 825.091 531.05 823.362 531.05ZM828.816 530.244C828.479 530.244 828.347 530.361 828.347 530.713V531.504C828.347 531.856 828.479 531.973 828.816 531.973H829.226C829.578 531.973 829.695 531.856 829.695 531.504V530.713C829.695 530.361 829.578 530.244 829.226 530.244H828.816ZM838.935 529.365V528.442H837.631V523.798H836.635L836.415 525.468V528.442H832.943C832.606 528.442 832.401 528.237 832.577 527.841L835.405 521.864H834.13L831.259 527.929C830.922 528.676 831.39 529.497 832.225 529.497H836.415V531.973H837.631V529.497L838.935 529.365ZM842.264 526.757C840.99 526.889 840.594 527.871 840.594 529.453C840.594 531.299 841.297 532.134 844.037 532.119C846.806 532.09 847.465 531.299 847.465 529.453C847.465 527.871 847.084 526.889 845.81 526.757V526.699C846.835 526.581 847.245 525.702 847.245 524.384C847.245 522.538 846.615 521.718 844.037 521.718C841.473 521.718 840.814 522.538 840.814 524.384C840.814 525.702 841.239 526.581 842.264 526.699V526.757ZM844.052 522.758C845.722 522.758 846.073 523.183 846.073 524.501C846.073 525.864 845.766 526.215 844.066 526.215C842.396 526.215 842 525.893 842 524.501C842 523.183 842.381 522.758 844.052 522.758ZM844.066 527.241C845.839 527.241 846.234 527.592 846.234 529.189C846.234 530.552 845.839 531.006 844.052 531.006C842.25 531.006 841.81 530.552 841.81 529.189C841.81 527.622 842.235 527.255 844.066 527.241ZM826.422 542.838H825.396V549.973H826.642V544.816C827.74 544.025 828.268 543.717 828.986 543.717C829.733 543.717 830.099 544.054 830.099 544.977V549.973H831.3V544.831C832.384 544.039 832.912 543.717 833.644 543.717C834.435 543.717 834.743 544.098 834.758 544.977V549.973H835.988V544.625C835.988 543.336 835.314 542.662 834.084 542.662C833.117 542.662 832.194 543.073 831.212 543.922C831.007 543.087 830.377 542.662 829.41 542.662C828.414 542.662 827.477 543.116 826.495 543.966L826.422 542.838ZM838.142 539.395C838.596 539.351 839.24 539.337 839.885 539.337C840.91 539.337 841.218 539.513 841.233 540.157C841.233 540.626 841.13 541.153 840.061 541.168H838.815V541.9H840.061C841.13 541.9 841.335 542.355 841.335 542.897C841.335 543.717 840.969 543.995 839.9 543.995C839.255 543.995 838.713 543.981 838.024 543.922L837.966 544.655C838.654 544.743 839.387 544.816 840.134 544.816C841.775 544.816 842.361 544.259 842.331 543.014C842.317 542.164 842.024 541.622 841.072 541.49V541.461C841.951 541.329 842.17 540.714 842.17 539.923C842.17 538.853 841.628 538.516 840.017 538.516C839.372 538.516 838.742 538.575 838.083 538.677L838.142 539.395Z" fill="white"/>
<path d="M513.819 389.015L538.136 369.604L587.283 386.24L636.727 380.165L685.256 398.638L735.912 422.758L785.219 370.109L833.901 388.889L857.236 375.155" stroke="#FFAC1C" stroke-width="1.83127"/>
<path d="M636.971 382.833C635.457 382.833 634.224 381.6 634.224 380.086C634.224 378.571 635.457 377.339 636.971 377.339C638.486 377.339 639.718 378.571 639.718 380.086C639.718 381.6 638.486 382.833 636.971 382.833Z" fill="#FFAC1C"/>
<path d="M636.971 377.797C635.709 377.797 634.682 378.823 634.682 380.086C634.682 381.348 635.709 382.375 636.971 382.375C638.234 382.375 639.261 381.348 639.261 380.086C639.261 378.823 638.234 377.797 636.971 377.797ZM636.971 376.881C638.741 376.881 640.176 378.316 640.176 380.086C640.176 381.856 638.741 383.29 636.971 383.29C635.202 383.29 633.767 381.856 633.767 380.086C633.767 378.316 635.202 376.881 636.971 376.881Z" fill="#FFAC1C"/>
<path d="M685.5 401.603C687.27 401.603 688.705 400.168 688.705 398.398C688.705 396.628 687.27 395.194 685.5 395.194C683.73 395.194 682.295 396.628 682.295 398.398C682.295 400.168 683.73 401.603 685.5 401.603Z" fill="#FFAC1C"/>
<path d="M685.5 401.145C687.017 401.145 688.247 399.915 688.247 398.398C688.247 396.881 687.017 395.651 685.5 395.651C683.983 395.651 682.753 396.881 682.753 398.398C682.753 399.915 683.983 401.145 685.5 401.145Z" stroke="#FFAC1C" stroke-width="0.915633"/>
<path d="M735.86 425.409C737.63 425.409 739.064 423.975 739.064 422.205C739.064 420.435 737.63 419 735.86 419C734.09 419 732.655 420.435 732.655 422.205C732.655 423.975 734.09 425.409 735.86 425.409Z" fill="#FFAC1C"/>
<path d="M735.86 424.952C737.377 424.952 738.607 423.722 738.607 422.205C738.607 420.688 737.377 419.458 735.86 419.458C734.343 419.458 733.113 420.688 733.113 422.205C733.113 423.722 734.343 424.952 735.86 424.952Z" stroke="#FFAC1C" stroke-width="0.915633"/>
<path d="M538.083 373.218C539.853 373.218 541.288 371.784 541.288 370.014C541.288 368.244 539.853 366.809 538.083 366.809C536.313 366.809 534.878 368.244 534.878 370.014C534.878 371.784 536.313 373.218 538.083 373.218Z" fill="#FFAC1C"/>
<path d="M538.083 372.761C539.6 372.761 540.83 371.531 540.83 370.014C540.83 368.497 539.6 367.267 538.083 367.267C536.566 367.267 535.336 368.497 535.336 370.014C535.336 371.531 536.566 372.761 538.083 372.761Z" stroke="#FFAC1C" stroke-width="0.915633"/>
<path d="M587.527 388.326C586.013 388.326 584.78 387.094 584.78 385.579C584.78 384.065 586.013 382.833 587.527 382.833C589.042 382.833 590.274 384.065 590.274 385.579C590.274 387.094 589.042 388.326 587.527 388.326Z" fill="#FFAC1C"/>
<path d="M587.527 383.29C586.265 383.29 585.238 384.317 585.238 385.579C585.238 386.842 586.265 387.869 587.527 387.869C588.79 387.869 589.816 386.842 589.816 385.579C589.816 384.317 588.79 383.29 587.527 383.29ZM587.527 382.375C589.297 382.375 590.732 383.81 590.732 385.579C590.732 387.349 589.297 388.784 587.527 388.784C585.757 388.784 584.323 387.349 584.323 385.579C584.323 383.81 585.757 382.375 587.527 382.375Z" fill="#FFAC1C"/>
<path d="M785.304 373.218C787.074 373.218 788.509 371.784 788.509 370.014C788.509 368.244 787.074 366.809 785.304 366.809C783.534 366.809 782.099 368.244 782.099 370.014C782.099 371.784 783.534 373.218 785.304 373.218Z" fill="#FFAC1C"/>
<path d="M785.304 372.761C786.821 372.761 788.051 371.531 788.051 370.014C788.051 368.497 786.821 367.267 785.304 367.267C783.787 367.267 782.557 368.497 782.557 370.014C782.557 371.531 783.787 372.761 785.304 372.761Z" stroke="#FFAC1C" stroke-width="0.915633"/>
<path d="M833.833 391.531C835.602 391.531 837.037 390.096 837.037 388.326C837.037 386.556 835.602 385.122 833.833 385.122C832.063 385.122 830.628 386.556 830.628 388.326C830.628 390.096 832.063 391.531 833.833 391.531Z" fill="#FFAC1C"/>
<path d="M833.832 391.073C835.35 391.073 836.579 389.843 836.579 388.326C836.579 386.809 835.35 385.579 833.832 385.579C832.315 385.579 831.086 386.809 831.086 388.326C831.086 389.843 832.315 391.073 833.832 391.073Z" stroke="#FFAC1C" stroke-width="0.915633"/>
<path d="M535.794 275.421H546.782" stroke="#FFAC1C" stroke-width="1.83127" stroke-linecap="round"/>
<path d="M562.311 272.076C562.054 272.076 561.888 272.204 561.824 272.46L560.17 277.831C560.042 278.254 559.952 278.639 559.837 279.049H559.606C559.491 278.639 559.401 278.254 559.273 277.857L557.619 272.46C557.542 272.204 557.401 272.076 557.145 272.076H555.863C555.568 272.076 555.401 272.242 555.389 272.55L555.042 280.921H556.171L556.478 273.011H556.735L558.709 279.536C558.786 279.78 558.952 279.921 559.221 279.921H560.234C560.49 279.921 560.657 279.78 560.721 279.536L562.695 273.011H562.965L563.285 280.921H564.413L564.041 272.55C564.041 272.242 563.875 272.076 563.58 272.076H562.311ZM571.886 274.678H570.707L569.079 279.331C569.002 279.562 568.912 279.831 568.809 280.087H568.63C568.579 279.831 568.489 279.587 568.399 279.331L566.745 274.678H565.579L567.848 280.639C567.899 280.818 568.053 280.921 568.232 280.921H568.476L568.373 281.19C568.053 281.972 567.566 282.523 566.553 282.843L566.656 283.561C568.207 283.484 568.976 282.369 569.386 281.267L571.886 274.678ZM576.597 274.678H575.699V283.497H576.789V281.69C576.789 281.254 576.789 280.869 576.751 280.434C577.481 280.869 578.263 281.074 579.058 281.074C580.66 281.074 581.417 280.241 581.417 277.831C581.417 275.665 580.801 274.524 579.276 274.524C578.378 274.524 577.366 274.96 576.686 275.678L576.597 274.678ZM576.789 276.434C577.648 275.793 578.237 275.473 578.917 275.473C579.904 275.473 580.301 276.062 580.301 277.831C580.301 279.664 579.878 280.126 578.789 280.126C578.122 280.126 577.571 279.972 576.789 279.741V276.434ZM587.045 274.524H586.763C585.917 274.524 585.007 274.947 584.097 275.665L583.981 274.678H583.135V280.921H584.225V276.344C585.212 275.844 585.866 275.55 586.558 275.55H586.917L587.045 274.524ZM591.874 278.331C592.912 278.331 593.373 277.677 593.361 276.562C593.361 275.216 592.566 274.524 590.681 274.524C588.669 274.524 587.81 275.332 587.81 277.78C587.81 280.177 588.643 281.074 590.797 281.074C591.515 281.074 592.63 280.972 593.22 280.728L593.104 279.998C592.463 280.087 591.604 280.152 590.938 280.152C589.656 280.152 589.079 279.818 588.964 278.331H591.874ZM588.951 277.485C588.989 275.908 589.425 275.447 590.733 275.447C591.848 275.447 592.258 275.767 592.271 276.562C592.271 277.024 592.156 277.485 591.592 277.485H588.951ZM600.516 274.678H599.362L597.824 279.049L597.439 280.139H597.273C597.157 279.793 597.029 279.408 596.901 279.049L595.363 274.678H594.196L596.478 280.651C596.542 280.818 596.683 280.921 596.862 280.921H597.849C598.029 280.921 598.17 280.818 598.234 280.651L600.516 274.678ZM602.096 272.024C601.878 272.024 601.763 272.153 601.763 272.358V273.088C601.763 273.319 601.878 273.422 602.096 273.422H602.609C602.839 273.422 602.942 273.319 602.942 273.088V272.358C602.942 272.153 602.839 272.024 602.609 272.024H602.096ZM602.891 280.921V274.678H601.814V280.921H602.891ZM607.583 274.524C605.442 274.524 604.648 275.421 604.648 277.806C604.648 280.203 605.442 281.087 607.583 281.087C609.737 281.087 610.519 280.203 610.519 277.806C610.519 275.421 609.737 274.524 607.583 274.524ZM607.583 275.447C608.942 275.447 609.391 275.985 609.391 277.806C609.391 279.626 608.942 280.164 607.583 280.164C606.224 280.164 605.788 279.626 605.788 277.806C605.788 275.985 606.224 275.447 607.583 275.447ZM617.535 274.678H616.446V279.241C615.535 279.831 614.933 280.139 614.266 280.139C613.548 280.139 613.266 279.857 613.279 279.062V274.678H612.19V279.37C612.19 280.498 612.766 281.087 613.895 281.087C614.792 281.087 615.651 280.728 616.587 280.023L616.663 280.921H617.535V274.678ZM622.385 278.395C622.987 278.536 623.372 278.652 623.372 279.267C623.372 280.011 622.936 280.139 621.539 280.139C620.731 280.152 620 280.126 619.385 280.087L619.308 280.882C620.372 281.049 621.308 281.062 621.757 281.062C623.564 281.062 624.423 280.805 624.423 279.267C624.423 278.203 623.961 277.793 622.974 277.549L621.154 277.139C620.552 276.998 620.244 276.896 620.244 276.242C620.244 275.46 620.628 275.434 621.782 275.447C622.564 275.447 623.372 275.485 624.154 275.511L624.243 274.716C623.474 274.601 622.436 274.537 621.616 274.524C619.911 274.498 619.18 274.793 619.18 276.242C619.18 277.267 619.577 277.742 620.59 277.985L622.385 278.395ZM637.895 274.678H636.767L635.472 279.28C635.369 279.6 635.331 279.895 635.254 280.216H635.087C635.023 279.895 634.934 279.587 634.869 279.28L633.844 275.037C633.793 274.819 633.639 274.678 633.434 274.678H632.447C632.229 274.678 632.075 274.819 632.036 275.024L630.998 279.28L630.767 280.216H630.601C630.549 279.908 630.485 279.587 630.396 279.28L629.101 274.678H627.973L629.793 280.613C629.844 280.805 630.011 280.921 630.216 280.921H631.19C631.408 280.921 631.575 280.78 631.626 280.575L632.639 276.332L632.857 275.344H633.011C633.088 275.691 633.139 276.011 633.216 276.332L634.241 280.575C634.28 280.78 634.459 280.921 634.664 280.921H635.651C635.856 280.921 636.023 280.805 636.074 280.613L637.895 274.678ZM642.936 278.331C643.975 278.331 644.436 277.677 644.423 276.562C644.423 275.216 643.628 274.524 641.744 274.524C639.731 274.524 638.873 275.332 638.873 277.78C638.873 280.177 639.706 281.074 641.859 281.074C642.577 281.074 643.692 280.972 644.282 280.728L644.167 279.998C643.526 280.087 642.667 280.152 642 280.152C640.719 280.152 640.142 279.818 640.026 278.331H642.936ZM640.013 277.485C640.052 275.908 640.488 275.447 641.795 275.447C642.911 275.447 643.321 275.767 643.334 276.562C643.334 277.024 643.218 277.485 642.654 277.485H640.013ZM649.821 278.331C650.86 278.331 651.321 277.677 651.308 276.562C651.308 275.216 650.514 274.524 648.629 274.524C646.617 274.524 645.758 275.332 645.758 277.78C645.758 280.177 646.591 281.074 648.745 281.074C649.462 281.074 650.578 280.972 651.167 280.728L651.052 279.998C650.411 280.087 649.552 280.152 648.886 280.152C647.604 280.152 647.027 279.818 646.911 278.331H649.821ZM646.899 277.485C646.937 275.908 647.373 275.447 648.68 275.447C649.796 275.447 650.206 275.767 650.219 276.562C650.219 277.024 650.103 277.485 649.539 277.485H646.899ZM654.822 277.793L656.988 280.921H658.258L656.091 277.921C655.976 277.729 655.771 277.511 655.655 277.421V277.395C655.771 277.319 655.976 277.126 656.091 276.972L658.052 274.678H656.783L654.809 276.998H653.989C654.04 276.652 654.053 276.319 654.053 275.934V271.947H652.951V280.921H654.04V278.793C654.04 278.472 654.014 278.139 653.976 277.793H654.822Z" fill="#C7C7C7"/>
<g filter="url(#filter1_d_1024_6688)">
<path d="M675.796 220.308H542.293C538.704 220.308 535.794 223.119 535.794 226.587V237.835C535.794 241.303 538.704 244.114 542.293 244.114H675.796C679.385 244.114 682.295 241.303 682.295 237.835V226.587C682.295 223.119 679.385 220.308 675.796 220.308Z" fill="#0077E8"/>
<path d="M578.594 227.8H577.334V238.055H578.579V232.912C579.722 232.195 580.484 231.799 581.334 231.799C582.066 231.799 582.344 232.107 582.344 233.059V238.055H583.604V232.707C583.604 231.418 582.93 230.744 581.671 230.744C580.616 230.744 579.576 231.228 578.506 232.019C578.565 231.638 578.594 231.154 578.594 230.627V227.8ZM588.865 230.744C586.418 230.744 585.51 231.77 585.51 234.495C585.51 237.234 586.418 238.245 588.865 238.245C591.326 238.245 592.219 237.234 592.219 234.495C592.219 231.77 591.326 230.744 588.865 230.744ZM588.865 231.799C590.417 231.799 590.93 232.414 590.93 234.495C590.93 236.575 590.417 237.19 588.865 237.19C587.312 237.19 586.814 236.575 586.814 234.495C586.814 232.414 587.312 231.799 588.865 231.799ZM595.946 231.902H598.217V230.92H595.946V228.81H594.701V230.935L593.412 230.993V231.902H594.701V236.253C594.701 237.498 595.331 238.187 596.532 238.187C596.884 238.187 597.675 238.128 598.144 237.996L597.997 237.044H596.913C596.21 237.044 595.946 236.78 595.946 236.092V231.902ZM613.277 230.92H611.988L610.508 236.179C610.391 236.546 610.347 236.883 610.259 237.249H610.069C609.995 236.883 609.893 236.531 609.82 236.179L608.648 231.33C608.589 231.081 608.413 230.92 608.179 230.92H607.051C606.802 230.92 606.626 231.081 606.582 231.316L605.395 236.179L605.132 237.249H604.941C604.883 236.897 604.809 236.531 604.707 236.179L603.227 230.92H601.938L604.018 237.703C604.077 237.923 604.267 238.055 604.502 238.055H605.615C605.864 238.055 606.055 237.894 606.113 237.659L607.27 232.81L607.52 231.682H607.695C607.783 232.077 607.842 232.444 607.93 232.81L609.102 237.659C609.146 237.894 609.351 238.055 609.585 238.055H610.713C610.948 238.055 611.138 237.923 611.197 237.703L613.277 230.92ZM614.79 231.99C615.874 231.887 617.105 231.799 617.852 231.799C618.98 231.799 619.302 232.151 619.302 233.03V233.66H616.329C615.083 233.66 614.351 234.304 614.351 235.418V236.194C614.351 237.483 615.215 238.187 616.49 238.187C617.794 238.187 618.878 237.454 619.434 236.883L619.581 238.055H620.562V233.03C620.562 231.301 619.698 230.744 618.116 230.744C617.046 230.744 615.655 230.905 614.673 231.067L614.79 231.99ZM615.625 235.593C615.625 234.993 615.86 234.641 616.548 234.612H619.302V236.048C618.482 236.78 617.442 237.132 616.739 237.117C615.962 237.117 615.625 236.795 615.625 236.048V235.593ZM624.574 231.902H626.845V230.92H624.574V228.81H623.329V230.935L622.04 230.993V231.902H623.329V236.253C623.329 237.498 623.959 238.187 625.16 238.187C625.512 238.187 626.303 238.128 626.772 237.996L626.625 237.044H625.541C624.838 237.044 624.574 236.78 624.574 236.092V231.902ZM632.659 235.095C633.845 235.095 634.373 234.348 634.358 233.074C634.358 231.535 633.45 230.744 631.296 230.744C628.996 230.744 628.015 231.667 628.015 234.465C628.015 237.205 628.967 238.23 631.428 238.23C632.249 238.23 633.523 238.113 634.197 237.835L634.065 237C633.333 237.102 632.351 237.176 631.589 237.176C630.124 237.176 629.465 236.795 629.333 235.095H632.659ZM629.319 234.128C629.363 232.326 629.861 231.799 631.355 231.799C632.63 231.799 633.098 232.165 633.113 233.074C633.113 233.601 632.981 234.128 632.337 234.128H629.319ZM640.703 230.744H640.381C639.414 230.744 638.374 231.228 637.334 232.048L637.202 230.92H636.235V238.055H637.48V232.825C638.608 232.253 639.356 231.916 640.147 231.916H640.557L640.703 230.744Z" fill="white"/>
</g>
<g filter="url(#filter2_d_1024_6688)">
<path d="M828.707 220.308H695.204C691.615 220.308 688.705 223.119 688.705 226.587V237.835C688.705 241.303 691.615 244.114 695.204 244.114H828.707C832.296 244.114 835.206 241.303 835.206 237.835V226.587C835.206 223.119 832.296 220.308 828.707 220.308Z" fill="white"/>
<path d="M732.984 237.029C732.251 237.146 731.314 237.176 730.889 237.176C729.189 237.176 728.603 236.575 728.603 234.48C728.603 232.4 729.189 231.799 730.889 231.799C731.387 231.799 732.178 231.828 732.823 231.887L732.984 231.081C732.281 230.818 731.314 230.744 730.684 230.744C728.208 230.744 727.285 231.726 727.285 234.48C727.285 237.234 728.208 238.23 730.669 238.23C731.504 238.23 732.398 238.113 733.116 237.864L732.984 237.029ZM737.708 230.744C735.261 230.744 734.353 231.77 734.353 234.495C734.353 237.234 735.261 238.245 737.708 238.245C740.169 238.245 741.062 237.234 741.062 234.495C741.062 231.77 740.169 230.744 737.708 230.744ZM737.708 231.799C739.261 231.799 739.773 232.414 739.773 234.495C739.773 236.575 739.261 237.19 737.708 237.19C736.155 237.19 735.657 236.575 735.657 234.495C735.657 232.414 736.155 231.799 737.708 231.799ZM744.276 227.8H743.031V236.37C743.031 237.542 743.719 238.187 744.774 238.187C745.126 238.187 745.8 238.128 746.078 237.996L745.932 237.044H745.243C744.613 237.044 744.261 236.722 744.276 236.092V227.8ZM753.46 227.8H752.215V229.997C752.215 230.495 752.229 230.92 752.273 231.404C751.482 230.949 750.618 230.744 749.739 230.744C747.908 230.744 747.043 231.682 747.043 234.465C747.043 236.956 747.746 238.23 749.548 238.23C750.647 238.23 751.614 237.703 752.376 237.029L752.493 238.055H753.46V227.8ZM752.215 236.165C751.248 236.853 750.75 237.146 749.959 237.146C748.801 237.146 748.318 236.56 748.318 234.451C748.318 232.341 748.801 231.828 750.032 231.828C750.779 231.828 751.38 231.99 752.215 232.224V236.165ZM769.302 230.92H768.013L766.533 236.179C766.416 236.546 766.372 236.883 766.284 237.249H766.094C766.02 236.883 765.918 236.531 765.845 236.179L764.673 231.33C764.614 231.081 764.438 230.92 764.204 230.92H763.076C762.827 230.92 762.651 231.081 762.607 231.316L761.42 236.179L761.157 237.249H760.966C760.908 236.897 760.834 236.531 760.732 236.179L759.252 230.92H757.963L760.043 237.703C760.102 237.923 760.292 238.055 760.527 238.055H761.64C761.889 238.055 762.08 237.894 762.138 237.659L763.296 232.81L763.545 231.682H763.72C763.808 232.077 763.867 232.444 763.955 232.81L765.127 237.659C765.171 237.894 765.376 238.055 765.61 238.055H766.738C766.973 238.055 767.163 237.923 767.222 237.703L769.302 230.92ZM770.815 231.99C771.899 231.887 773.13 231.799 773.877 231.799C775.005 231.799 775.328 232.151 775.328 233.03V233.66H772.354C771.108 233.66 770.376 234.304 770.376 235.418V236.194C770.376 237.483 771.24 238.187 772.515 238.187C773.819 238.187 774.903 237.454 775.459 236.883L775.606 238.055H776.587V233.03C776.587 231.301 775.723 230.744 774.141 230.744C773.071 230.744 771.68 230.905 770.698 231.067L770.815 231.99ZM771.65 235.593C771.65 234.993 771.885 234.641 772.573 234.612H775.328V236.048C774.507 236.78 773.467 237.132 772.764 237.117C771.987 237.117 771.65 236.795 771.65 236.048V235.593ZM780.599 231.902H782.87V230.92H780.599V228.81H779.354V230.935L778.065 230.993V231.902H779.354V236.253C779.354 237.498 779.984 238.187 781.185 238.187C781.537 238.187 782.328 238.128 782.797 237.996L782.65 237.044H781.566C780.863 237.044 780.599 236.78 780.599 236.092V231.902ZM788.684 235.095C789.871 235.095 790.398 234.348 790.383 233.074C790.383 231.535 789.475 230.744 787.321 230.744C785.021 230.744 784.04 231.667 784.04 234.465C784.04 237.205 784.992 238.23 787.453 238.23C788.274 238.23 789.548 238.113 790.222 237.835L790.09 237C789.358 237.102 788.376 237.176 787.614 237.176C786.149 237.176 785.49 236.795 785.358 235.095H788.684ZM785.344 234.128C785.388 232.326 785.886 231.799 787.38 231.799C788.655 231.799 789.123 232.165 789.138 233.074C789.138 233.601 789.006 234.128 788.362 234.128H785.344ZM796.728 230.744H796.406C795.439 230.744 794.399 231.228 793.359 232.048L793.227 230.92H792.26V238.055H793.505V232.825C794.633 232.253 795.381 231.916 796.172 231.916H796.582L796.728 230.744Z" fill="#0077E8"/>
</g>
<g filter="url(#filter3_d_1024_6688)">
<path d="M777.521 258.764H755.546C749.983 258.764 745.474 263.274 745.474 268.836V282.571C745.474 288.133 749.983 292.643 755.546 292.643H777.521C783.084 292.643 787.593 288.133 787.593 282.571V268.836C787.593 263.274 783.084 258.764 777.521 258.764Z" fill="white"/>
</g>
<path d="M763.406 278.43L765.882 282.005H767.332L764.856 278.577C764.724 278.357 764.49 278.108 764.358 278.006V277.976C764.49 277.888 764.724 277.669 764.856 277.493L767.097 274.87H765.647L763.391 277.522H762.453C762.512 277.127 762.527 276.746 762.527 276.306V271.75H761.267V282.005H762.512V279.573C762.512 279.207 762.483 278.826 762.439 278.43H763.406ZM773.189 274.695H772.867C771.9 274.695 770.859 275.178 769.819 275.998L769.687 274.87H768.721V282.005H769.966V276.775C771.094 276.204 771.841 275.867 772.632 275.867H773.042L773.189 274.695Z" fill="#0077E8"/>
<g filter="url(#filter4_d_1024_6688)">
<path d="M825.134 258.764H803.159C797.596 258.764 793.087 263.274 793.087 268.836V282.571C793.087 288.133 797.596 292.643 803.159 292.643H825.134C830.697 292.643 835.206 288.133 835.206 282.571V268.836C835.206 263.274 830.697 258.764 825.134 258.764Z" fill="#0077E8"/>
</g>
<path d="M807.187 274.87H806.162V282.005H807.407V276.848C808.506 276.057 809.033 275.749 809.751 275.749C810.498 275.749 810.864 276.086 810.864 277.009V282.005H812.066V276.863C813.15 276.072 813.677 275.749 814.41 275.749C815.201 275.749 815.509 276.13 815.523 277.009V282.005H816.754V276.658C816.754 275.368 816.08 274.695 814.849 274.695C813.882 274.695 812.959 275.105 811.978 275.955C811.773 275.119 811.143 274.695 810.176 274.695C809.18 274.695 808.242 275.149 807.261 275.998L807.187 274.87ZM818.907 271.428C819.361 271.384 820.006 271.369 820.65 271.369C821.676 271.369 821.984 271.545 821.998 272.189C821.998 272.658 821.896 273.186 820.826 273.2H819.581V273.933H820.826C821.896 273.933 822.101 274.387 822.101 274.929C822.101 275.749 821.734 276.028 820.665 276.028C820.02 276.028 819.478 276.013 818.79 275.955L818.731 276.687C819.42 276.775 820.152 276.848 820.899 276.848C822.54 276.848 823.126 276.291 823.097 275.046C823.082 274.196 822.789 273.654 821.837 273.523V273.493C822.716 273.361 822.936 272.746 822.936 271.955C822.936 270.886 822.394 270.549 820.782 270.549C820.138 270.549 819.508 270.607 818.848 270.71L818.907 271.428Z" fill="white"/>
</g>
</g>
<path d="M628.731 790.747H743.185C743.792 790.747 744.374 790.988 744.803 791.417C745.233 791.847 745.474 792.429 745.474 793.036C745.474 793.643 745.233 794.225 744.803 794.655C744.374 795.084 743.792 795.325 743.185 795.325H628.731C628.124 795.325 627.541 795.084 627.112 794.655C626.683 794.225 626.442 793.643 626.442 793.036C626.442 792.429 626.683 791.847 627.112 791.417C627.541 790.988 628.124 790.747 628.731 790.747V790.747Z" fill="#E2E2E2"/>
</g>
<defs>
<filter id="filter0_d_1024_6688" x="410.352" y="-22.335" width="550.295" height="950.427" filterUnits="userSpaceOnUse" color-interpolation-filters="sRGB">
<feFlood flood-opacity="0" result="BackgroundImageFix"/>
<feColorMatrix in="SourceAlpha" type="matrix" values="0 0 0 0 0 0 0 0 0 0 0 0 0 0 0 0 0 0 127 0" result="hardAlpha"/>
<feOffset dy="18.3127"/>
<feGaussianBlur stdDeviation="45.3238"/>
<feColorMatrix type="matrix" values="0 0 0 0 0 0 0 0 0 0 0 0 0 0 0 0 0 0 0.161 0"/>
<feBlend mode="normal" in2="BackgroundImageFix" result="effect1_dropShadow_1024_6688"/>
<feBlend mode="normal" in="SourceGraphic" in2="effect1_dropShadow_1024_6688" result="shape"/>
</filter>
<filter id="filter1_d_1024_6688" x="530.3" y="217.561" width="157.489" height="34.794" filterUnits="userSpaceOnUse" color-interpolation-filters="sRGB">
<feFlood flood-opacity="0" result="BackgroundImageFix"/>
<feColorMatrix in="SourceAlpha" type="matrix" values="0 0 0 0 0 0 0 0 0 0 0 0 0 0 0 0 0 0 127 0" result="hardAlpha"/>
<feOffset dy="2.7469"/>
<feGaussianBlur stdDeviation="2.7469"/>
<feComposite in2="hardAlpha" operator="out"/>
<feColorMatrix type="matrix" values="0 0 0 0 0 0 0 0 0 0 0 0 0 0 0 0 0 0 0.16 0"/>
<feBlend mode="normal" in2="BackgroundImageFix" result="effect1_dropShadow_1024_6688"/>
<feBlend mode="normal" in="SourceGraphic" in2="effect1_dropShadow_1024_6688" result="shape"/>
</filter>
<filter id="filter2_d_1024_6688" x="683.211" y="217.561" width="157.489" height="34.794" filterUnits="userSpaceOnUse" color-interpolation-filters="sRGB">
<feFlood flood-opacity="0" result="BackgroundImageFix"/>
<feColorMatrix in="SourceAlpha" type="matrix" values="0 0 0 0 0 0 0 0 0 0 0 0 0 0 0 0 0 0 127 0" result="hardAlpha"/>
<feOffset dy="2.7469"/>
<feGaussianBlur stdDeviation="2.7469"/>
<feComposite in2="hardAlpha" operator="out"/>
<feColorMatrix type="matrix" values="0 0 0 0 0 0 0 0 0 0 0 0 0 0 0 0 0 0 0.16 0"/>
<feBlend mode="normal" in2="BackgroundImageFix" result="effect1_dropShadow_1024_6688"/>
<feBlend mode="normal" in="SourceGraphic" in2="effect1_dropShadow_1024_6688" result="shape"/>
</filter>
<filter id="filter3_d_1024_6688" x="739.98" y="256.017" width="53.1067" height="44.866" filterUnits="userSpaceOnUse" color-interpolation-filters="sRGB">
<feFlood flood-opacity="0" result="BackgroundImageFix"/>
<feColorMatrix in="SourceAlpha" type="matrix" values="0 0 0 0 0 0 0 0 0 0 0 0 0 0 0 0 0 0 127 0" result="hardAlpha"/>
<feOffset dy="2.7469"/>
<feGaussianBlur stdDeviation="2.7469"/>
<feColorMatrix type="matrix" values="0 0 0 0 0 0 0 0 0 0 0 0 0 0 0 0 0 0 0.16 0"/>
<feBlend mode="normal" in2="BackgroundImageFix" result="effect1_dropShadow_1024_6688"/>
<feBlend mode="normal" in="SourceGraphic" in2="effect1_dropShadow_1024_6688" result="shape"/>
</filter>
<filter id="filter4_d_1024_6688" x="787.593" y="256.017" width="53.1067" height="44.866" filterUnits="userSpaceOnUse" color-interpolation-filters="sRGB">
<feFlood flood-opacity="0" result="BackgroundImageFix"/>
<feColorMatrix in="SourceAlpha" type="matrix" values="0 0 0 0 0 0 0 0 0 0 0 0 0 0 0 0 0 0 127 0" result="hardAlpha"/>
<feOffset dy="2.7469"/>
<feGaussianBlur stdDeviation="2.7469"/>
<feColorMatrix type="matrix" values="0 0 0 0 0 0 0 0 0 0 0 0 0 0 0 0 0 0 0.16 0"/>
<feBlend mode="normal" in2="BackgroundImageFix" result="effect1_dropShadow_1024_6688"/>
<feBlend mode="normal" in="SourceGraphic" in2="effect1_dropShadow_1024_6688" result="shape"/>
</filter>
<linearGradient id="paint0_linear_1024_6688" x1="685.5" y1="50" x2="685.5" y2="819.132" gradientUnits="userSpaceOnUse">
<stop stop-color="white"/>
<stop offset="1" stop-color="#EAEAEA"/>
</linearGradient>
<clipPath id="clip0_1024_6688">
<rect width="950" height="870" fill="white"/>
</clipPath>
<clipPath id="clip1_1024_6688">
<rect width="306.33" height="444.255" fill="white" transform="translate(80 478)"/>
</clipPath>
<clipPath id="clip2_1024_6688">
<rect width="343.362" height="743.494" fill="white" transform="translate(513.819 62.8188)"/>
</clipPath>
<clipPath id="clip3_1024_6688">
<rect width="343.362" height="80.5757" fill="white" transform="translate(513.819 62.8188)"/>
</clipPath>
<clipPath id="clip4_1024_6688">
<rect width="171.223" height="62.263" fill="white" transform="translate(685.958 143.395)"/>
</clipPath>
<clipPath id="clip5_1024_6688">
<rect width="171.223" height="62.263" fill="white" transform="translate(513.819 143.395)"/>
</clipPath>
</defs>
</svg>
