<svg width="90" height="90" viewBox="0 0 90 90" fill="none" xmlns="http://www.w3.org/2000/svg">
<rect x="2" y="2" width="86" height="86" stroke="#CB4419" stroke-width="4"/>
<path d="M20.9453 28.7109V55.7812C20.9453 57.0469 21.2031 57.9688 21.7188 58.5469C22.2344 59.125 23.2109 59.5469 24.6484 59.8125L24.4375 60.375C22.6875 60.1406 21.3672 60.0156 20.4766 60C19.5859 59.9844 18.4297 60.1094 17.0078 60.375L16.8672 60.1406C17.1797 59.6875 17.3359 58.8594 17.3359 57.6562V33.0234C17.3359 30.8203 17.0703 29.3359 16.5391 28.5703C16.0234 27.8047 14.9141 27.4844 13.2109 27.6094L13.1172 27.1641C15.6953 26.3984 18.1406 26.0156 20.4531 26.0156C20.7812 26.8438 20.9453 27.7422 20.9453 28.7109ZM37.3984 27.0234L24.7891 39.9375V40.3125L38.3594 55.7344C40.2031 57.7969 42.1094 59.1562 44.0781 59.8125V60.2344C43 60.125 42.1875 60.0547 41.6406 60.0234C41.1094 59.9922 40.4219 60 39.5781 60.0469C38.7344 60.0938 37.9766 60.2188 37.3047 60.4219L36.9766 60.2344C37.0078 59.8906 36.8125 59.4609 36.3906 58.9453L21.6719 41.7656V41.2734L34.2812 28.2656C34.625 27.9062 34.3281 27.6016 33.3906 27.3516C32.5781 27.1328 31.7109 27.0391 30.7891 27.0703L30.6484 26.4375C33.3047 26.0938 35.5391 26.0312 37.3516 26.25C37.4922 26.4531 37.5078 26.7109 37.3984 27.0234ZM73 57.0234V53.1797C73 50.9766 72.7344 49.5 72.2031 48.75C71.6719 47.9844 70.5547 47.6562 68.8516 47.7656L68.7578 47.3203C71.3359 46.5547 73.7891 46.1719 76.1172 46.1719C76.4297 47.0312 76.5859 47.9297 76.5859 48.8672V55.5938C76.5859 57.0625 76.7344 58 77.0312 58.4062L76.8906 58.6641C75.6562 58.6641 74.3203 58.8594 72.8828 59.25C71.4453 59.625 69.9062 60 68.2656 60.375C66.625 60.7656 64.9531 60.9609 63.25 60.9609C60.8906 60.9609 58.6953 60.5312 56.6641 59.6719C54.6328 58.7969 52.8828 57.5859 51.4141 56.0391C49.9609 54.4922 48.8125 52.5859 47.9688 50.3203C47.1406 48.0547 46.7266 45.5859 46.7266 42.9141C46.7266 40.4609 47.0547 38.2344 47.7109 36.2344C48.3828 34.2188 49.2891 32.5234 50.4297 31.1484C51.5859 29.7734 52.9688 28.6172 54.5781 27.6797C56.1875 26.7266 57.9141 26.0391 59.7578 25.6172C61.6172 25.1797 63.5938 24.9609 65.6875 24.9609C69.2656 24.9609 72.625 25.6953 75.7656 27.1641C75.2188 29.1172 74.4375 31.1797 73.4219 33.3516L72.7891 33.1172C73.0391 31.2578 73.0938 29.7266 72.9531 28.5234C72.2656 28.1328 71.5859 27.8125 70.9141 27.5625C70.2422 27.2969 69.5312 27.0938 68.7812 26.9531C68.0312 26.7969 67.2188 26.6953 66.3438 26.6484C65.4844 26.5859 64.5156 26.5547 63.4375 26.5547C62 26.5547 60.6562 26.7422 59.4062 27.1172C58.1719 27.4766 57.0156 28.0781 55.9375 28.9219C54.8594 29.7656 53.9375 30.8281 53.1719 32.1094C52.4062 33.375 51.8047 34.9609 51.3672 36.8672C50.9297 38.7578 50.7109 40.8984 50.7109 43.2891C50.7109 45.5859 51.1016 47.75 51.8828 49.7812C52.6641 51.8125 53.6953 53.5234 54.9766 54.9141C56.2734 56.3047 57.7656 57.4062 59.4531 58.2188C61.1406 59.0156 62.8828 59.4141 64.6797 59.4141C66.4609 59.4141 67.9531 59.2578 69.1562 58.9453C70.375 58.6172 71.6562 57.9766 73 57.0234Z" fill="#CB4419"/>
</svg>
