<svg width="950" height="870" viewBox="0 0 950 870" fill="none" xmlns="http://www.w3.org/2000/svg">
<g clip-path="url(#clip0_350_1536)">
<rect width="950" height="870" fill="#0077E8"/>
<g clip-path="url(#clip1_350_1536)">
<path d="M153.916 701.932H80V922.255H153.916V701.932Z" fill="#E6E6E6"/>
<path d="M271.832 657.887H197.916V876.981H271.832V657.887Z" fill="#D1D1D1"/>
<path d="M386.33 739.702H312.414V880.478H386.33V739.702Z" fill="#C7C7C7"/>
<path d="M294.584 681.685C294.584 681.685 297.657 686.873 302.773 686.338C307.888 685.802 310.164 690.468 305.874 692.613C301.583 694.759 288.801 691.164 288.801 691.164L287.729 683.83L294.584 681.685Z" fill="white"/>
<path d="M267.818 537.782C267.818 537.782 298.253 555.377 301.152 591.407C304.052 627.437 291.355 636.333 260.571 627.278C229.788 618.223 267.818 537.782 267.818 537.782Z" fill="white"/>
<path opacity="0.3" d="M267.818 537.782C267.818 537.782 298.253 555.377 301.152 591.407C304.052 627.437 291.355 636.333 260.571 627.278C229.788 618.223 267.818 537.782 267.818 537.782Z" fill="white"/>
<path d="M248.788 705.237C248.788 705.237 247.339 711.035 251.296 714.31C255.253 717.585 253.614 722.441 249.063 720.948C244.513 719.455 237.977 707.904 237.977 707.904L242.397 701.962L248.788 705.237Z" fill="white"/>
<path d="M224.121 492.882C224.121 492.882 228.382 501.882 229.092 508.65C229.163 509.305 229.103 509.966 228.916 510.597C228.729 511.228 228.419 511.816 228.004 512.327C227.589 512.837 227.077 513.261 226.498 513.572C225.919 513.884 225.283 514.078 224.628 514.143C221.208 514.462 216.497 513.897 213.643 509.346L207.845 502.215C206.833 500.667 206.327 498.842 206.397 496.994C206.467 495.145 207.11 493.364 208.236 491.897C212.077 486.171 221.816 487.259 224.121 492.882Z" fill="#F4A28C"/>
<path d="M210.019 503.853L207.686 536.39L225.715 536.405L220.31 513.317L210.019 503.853Z" fill="#F4A28C"/>
<path d="M222.035 494.113C219.193 495.3 216.22 496.148 213.179 496.638C214.482 497.6 215.476 498.922 216.037 500.441C216.599 501.96 216.703 503.611 216.339 505.189C216.013 506.723 215.164 508.097 213.938 509.075C212.711 510.054 211.183 510.575 209.614 510.551L205.266 498.493C204.596 496.788 204.4 494.934 204.698 493.127C204.997 491.319 205.779 489.627 206.962 488.228C207.978 487.013 209.072 485.866 210.237 484.794C213.136 482.127 219.093 482.561 221.324 479.083C221.552 478.737 221.865 478.455 222.234 478.266C222.602 478.076 223.013 477.985 223.427 478.001C223.842 478.017 224.244 478.139 224.597 478.357C224.95 478.575 225.24 478.88 225.441 479.242C227.325 482.692 228.803 488.678 224.6 492.489C223.841 493.17 222.974 493.719 222.035 494.113Z" fill="#24285B"/>
<path d="M217.161 504.535C217.161 504.535 215.712 500.965 213.162 502.245C210.611 503.525 212.552 508.695 216.408 507.81L217.161 504.535Z" fill="#F4A28C"/>
<path d="M226.512 498.679L230.439 501.317C230.667 501.46 230.856 501.66 230.986 501.896C231.116 502.132 231.185 502.397 231.185 502.666C231.185 502.936 231.116 503.201 230.986 503.437C230.856 503.673 230.667 503.872 230.439 504.016L227.106 506.002L226.512 498.679Z" fill="#F4A28C"/>
<path opacity="0.31" d="M220.465 513.968C218.316 513.568 216.313 512.597 214.667 511.157C214.667 511.157 213.494 518.201 222.073 520.578L220.465 513.968Z" fill="#CE8172"/>
<path d="M207.803 532.781C224.629 530.535 243.702 530.202 259.718 533.97C264.281 535.015 268.373 537.535 271.36 541.14C274.346 544.745 276.062 549.234 276.24 553.912C276.965 575.261 276.124 616.639 261.439 646.915L205.814 654.162C205.814 654.162 182.523 619.697 172.755 583C166.453 559.073 170.54 537.782 207.803 532.781Z" fill="white"/>
<path opacity="0.08" d="M213.338 560.449C213.338 560.449 206.352 602.668 236.368 623.683L205.932 654.119C205.932 654.119 181.888 614.698 176.511 594.784C171.307 576.044 200.961 557.073 213.338 560.449Z" fill="black"/>
<path d="M205.816 654.163C205.816 654.163 244.049 605.232 265.065 622.452C286.081 639.672 298.4 681.701 298.4 681.701L281.356 687.498C281.356 687.498 270.863 658.512 249.123 650.903C249.123 650.903 216.875 688.222 205.816 654.163Z" fill="#24285B"/>
<path d="M265.921 662.436L252.109 708.814L236.311 703.293L244.05 650.886C244.05 650.886 258.804 643.872 265.921 662.436Z" fill="#24285B"/>
<path d="M229.775 618.19L226.92 576.174L284.835 566.579L286.402 617.378L213.046 637.842L210.857 626.35L229.775 618.19Z" fill="#FFD200"/>
<path d="M214.048 551.738C212.091 538.504 196.554 532.115 185.423 539.52C165.002 553.103 129.353 581.392 128.609 613.961C127.552 659.644 180.104 649.136 216.047 629.701L211.699 616.585C211.699 616.585 164.756 629.179 161.089 611.859C158.176 597.769 218.163 579.464 214.048 551.738Z" fill="white"/>
<path opacity="0.3" d="M214.048 551.738C212.091 538.504 196.554 532.115 185.423 539.52C165.002 553.103 129.353 581.392 128.609 613.961C127.552 659.644 180.104 649.136 216.047 629.701L211.699 616.585C211.699 616.585 164.756 629.179 161.089 611.859C158.176 597.769 218.163 579.464 214.048 551.738Z" fill="white"/>
<path d="M259.731 600.855C262.733 600.855 265.166 598.422 265.166 595.421C265.166 592.419 262.733 589.986 259.731 589.986C256.73 589.986 254.297 592.419 254.297 595.421C254.297 598.422 256.73 600.855 259.731 600.855Z" fill="white"/>
<path d="M212.498 618.77C212.498 618.77 223.266 609.715 228.441 618.77L215.252 627.205L212.498 618.77Z" fill="#F4A28C"/>
</g>
<g filter="url(#filter0_d_350_1536)">
<path d="M541.692 50.0001H829.308C834.638 49.9863 839.919 51.0224 844.848 53.0493C849.778 55.0761 854.26 58.0541 858.038 61.8131C861.817 65.5721 864.818 70.0386 866.87 74.9575C868.923 79.8763 869.986 85.1513 870 90.4812V778.651C869.986 783.98 868.923 789.255 866.87 794.174C864.818 799.093 861.817 803.56 858.038 807.319C854.26 811.078 849.778 814.056 844.848 816.083C839.919 818.109 834.638 819.146 829.308 819.132H541.692C536.362 819.146 531.081 818.109 526.152 816.083C521.222 814.056 516.74 811.078 512.962 807.319C509.183 803.56 506.182 799.093 504.13 794.174C502.077 789.255 501.014 783.98 501 778.651V90.4812C501.014 85.1513 502.077 79.8763 504.13 74.9575C506.182 70.0386 509.183 65.5721 512.962 61.8131C516.74 58.0541 521.222 55.0761 526.152 53.0493C531.081 51.0224 536.362 49.9863 541.692 50.0001Z" fill="url(#paint0_linear_350_1536)"/>
</g>
<mask id="mask0_350_1536" style="mask-type:alpha" maskUnits="userSpaceOnUse" x="513" y="62" width="345" height="745">
<path d="M822.387 806.313H548.612C539.388 806.302 530.544 802.633 524.021 796.11C517.498 789.587 513.829 780.743 513.818 771.519V97.613C513.829 88.3883 517.498 79.5443 524.021 73.0214C530.544 66.4985 539.388 62.8294 548.612 62.819L585.479 62.819C586.646 63.0671 587.718 63.6451 588.567 64.4841C589.415 65.3232 590.006 66.3883 590.267 67.5528C590.417 68.2157 590.575 69.0828 590.757 70.0854C591.108 72.0165 591.543 74.4118 592.191 76.8318C593.029 79.9633 596.728 90.1891 609.157 90.3173C613.845 90.3658 643.075 90.3759 666.771 90.3759C710.361 90.3759 760.377 90.3411 762.717 90.3173C775.145 90.1891 778.845 79.9633 779.682 76.8318C780.332 74.4063 780.767 72.0083 781.117 70.0809C781.3 69.0737 781.457 68.2111 781.606 67.5528C781.841 66.3828 782.417 65.3087 783.262 64.4661C784.107 63.6235 785.183 63.0503 786.354 62.819L822.387 62.819C831.611 62.8294 840.455 66.4985 846.978 73.0214C853.501 79.5443 857.17 88.3883 857.181 97.613V771.519C857.17 780.743 853.501 789.587 846.978 796.11C840.455 802.633 831.611 806.302 822.387 806.313Z" fill="#EEEEEE"/>
</mask>
<g mask="url(#mask0_350_1536)">
<g clip-path="url(#clip2_350_1536)">
<rect width="343.362" height="743.494" transform="translate(513.818 62.8188)" fill="white"/>
<g clip-path="url(#clip3_350_1536)">
<rect width="343.362" height="80.5757" transform="translate(513.818 62.8188)" fill="#0077E8"/>
<path d="M647.642 128.12C646.749 128.237 645.943 128.252 644.595 128.252C643.13 128.252 642.69 127.505 642.69 124.956C642.69 122.406 643.13 121.659 644.595 121.659C645.87 121.659 646.485 121.674 647.437 121.733L647.628 120.062C646.705 119.828 646.016 119.725 644.595 119.725C641.474 119.725 640.346 121.103 640.346 124.956C640.346 128.809 641.474 130.186 644.595 130.186C646.045 130.186 646.895 130.068 647.833 129.775L647.642 128.12ZM652.549 122.582C649.839 122.582 648.828 123.622 648.828 126.406C648.828 129.175 649.839 130.2 652.549 130.2C655.245 130.2 656.256 129.175 656.256 126.406C656.256 123.622 655.245 122.582 652.549 122.582ZM652.549 124.208C653.662 124.208 653.985 124.648 653.985 126.406C653.985 128.135 653.662 128.574 652.549 128.574C651.406 128.574 651.099 128.135 651.099 126.406C651.099 124.648 651.406 124.208 652.549 124.208ZM659.492 122.787H657.734V130.01H659.902V125.073C660.752 124.648 661.323 124.414 661.909 124.414C662.437 124.414 662.612 124.604 662.612 125.263V130.01H664.766V124.589C664.766 123.285 664.063 122.582 662.744 122.582C661.719 122.582 660.664 123.036 659.653 123.857L659.492 122.787ZM669.712 127.329C670.43 127.534 670.738 127.563 670.738 128.003C670.738 128.472 670.401 128.545 668.921 128.545C667.954 128.545 666.944 128.545 666.416 128.516L666.284 129.922C667.676 130.156 668.98 130.171 669.522 130.171C671.851 130.171 672.833 129.746 672.833 127.959C672.833 126.699 672.276 126.201 671.046 125.849L669.2 125.351C668.511 125.161 668.247 125.146 668.247 124.707C668.247 124.223 668.511 124.223 669.639 124.223C670.547 124.223 671.5 124.238 672.423 124.252L672.569 122.861C671.676 122.699 670.269 122.597 669.229 122.582C666.973 122.582 666.152 123.139 666.152 124.648C666.152 125.791 666.533 126.45 667.91 126.845L669.712 127.329ZM681.086 122.787H678.932V127.783C678.156 128.179 677.658 128.384 677.13 128.384C676.544 128.384 676.339 128.164 676.354 127.534V122.787H674.186V128.193C674.186 129.526 674.874 130.2 676.222 130.2C677.262 130.2 678.2 129.819 679.211 129.014L679.372 130.01H681.086V122.787ZM684.6 122.787H682.871V130.01H685.025V125.043C685.816 124.56 686.153 124.414 686.621 124.414C687.163 124.414 687.398 124.619 687.398 125.263V130.01H689.478V125.058C690.269 124.575 690.606 124.414 691.09 124.414C691.676 124.414 691.851 124.648 691.851 125.263V130.01H694.005V124.589C694.005 123.285 693.302 122.582 691.998 122.582C691.031 122.582 690.225 122.963 689.361 123.754C689.097 122.978 688.467 122.582 687.5 122.582C686.475 122.582 685.654 123.007 684.746 123.842L684.6 122.787ZM697.491 122.787H695.733V132.793H697.886V131.05C697.901 130.523 697.886 129.995 697.842 129.497C698.516 129.995 699.381 130.2 700.26 130.2C702.076 130.2 703.014 129.336 703.014 126.465C703.014 124.018 702.311 122.597 700.523 122.597C699.41 122.597 698.253 123.124 697.652 123.842L697.491 122.787ZM697.886 124.985C698.56 124.545 699.029 124.296 699.659 124.296C700.465 124.296 700.787 124.721 700.787 126.465C700.787 128.267 700.45 128.589 699.527 128.589C698.897 128.589 698.458 128.442 697.886 128.296V124.985ZM707.33 124.238H709.337V122.787H707.33V120.766H705.176V122.787L703.902 122.861V124.238H705.176V128.105C705.176 129.424 705.938 130.186 707.242 130.186C707.755 130.186 708.736 130.083 709.278 129.893L709.044 128.384H708.121C707.535 128.384 707.33 128.193 707.33 127.651V124.238ZM711.185 119.594C710.76 119.594 710.555 119.813 710.555 120.224V121.015C710.555 121.44 710.76 121.645 711.185 121.645H712.152C712.577 121.645 712.782 121.44 712.782 121.015V120.224C712.782 119.813 712.577 119.594 712.152 119.594H711.185ZM712.752 130.01V122.787H710.599V130.01H712.752ZM718.003 122.582C715.292 122.582 714.281 123.622 714.281 126.406C714.281 129.175 715.292 130.2 718.003 130.2C720.698 130.2 721.709 129.175 721.709 126.406C721.709 123.622 720.698 122.582 718.003 122.582ZM718.003 124.208C719.116 124.208 719.438 124.648 719.438 126.406C719.438 128.135 719.116 128.574 718.003 128.574C716.86 128.574 716.552 128.135 716.552 126.406C716.552 124.648 716.86 124.208 718.003 124.208ZM724.945 122.787H723.187V130.01H725.356V125.073C726.205 124.648 726.777 124.414 727.363 124.414C727.89 124.414 728.066 124.604 728.066 125.263V130.01H730.219V124.589C730.219 123.285 729.516 122.582 728.198 122.582C727.172 122.582 726.117 123.036 725.107 123.857L724.945 122.787Z" fill="white"/>
<path d="M528.469 117.757H548.613" stroke="white" stroke-width="2.7469" stroke-linecap="round"/>
<path d="M528.469 124.166H548.613" stroke="white" stroke-width="2.7469" stroke-linecap="round"/>
<path d="M528.469 130.576H548.613" stroke="white" stroke-width="2.7469" stroke-linecap="round"/>
</g>
<path d="M857.181 143.395H513.818V205.658H857.181V143.395Z" fill="#0077E8"/>
<g clip-path="url(#clip4_350_1536)">
<mask id="mask1_350_1536" style="mask-type:luminance" maskUnits="userSpaceOnUse" x="762" y="150" width="19" height="27">
<path d="M765.887 167.309C765.887 171.08 769.658 173.341 771.919 173.341C774.181 173.341 777.952 171.079 777.952 167.309C777.952 162.785 772.673 157.506 771.919 154.49C771.166 157.506 765.887 162.784 765.887 167.309ZM771.919 176.357C769.52 176.357 767.218 175.404 765.521 173.707C763.824 172.01 762.871 169.709 762.871 167.309C762.871 161.276 771.919 150.72 771.919 150.72C771.919 150.72 780.968 161.276 780.968 167.309C780.968 169.709 780.014 172.01 778.317 173.707C776.621 175.404 774.319 176.357 771.919 176.357Z" fill="white"/>
</mask>
<g mask="url(#mask1_350_1536)">
<mask id="mask2_350_1536" style="mask-type:luminance" maskUnits="userSpaceOnUse" x="753" y="146" width="38" height="37">
<path d="M790.016 146.195H753.822V182.39H790.016V146.195Z" fill="white"/>
</mask>
<g mask="url(#mask2_350_1536)">
<path d="M788.508 143.179H755.33V183.898H788.508V143.179Z" fill="white"/>
</g>
</g>
<path d="M857.18 201.995H685.957V205.658H857.18V201.995Z" fill="white"/>
<path d="M765.347 185.09H764.155L762.758 192C762.694 192.346 762.642 192.718 762.591 193.077H762.271C762.232 192.718 762.168 192.359 762.091 191.987L760.72 185.462C760.668 185.244 760.502 185.09 760.284 185.09H759.053C758.822 185.09 758.656 185.244 758.617 185.462L757.246 191.987C757.169 192.333 757.105 192.679 757.041 193.077H756.746C756.682 192.679 756.63 192.32 756.566 191.987L755.182 185.09H753.99L755.784 193.602C755.823 193.794 756.002 193.935 756.22 193.935H757.515C757.733 193.935 757.912 193.794 757.963 193.589L759.335 186.936C759.399 186.616 759.463 186.27 759.527 185.937H759.797C759.861 186.27 759.925 186.603 760.002 186.936L761.386 193.589C761.425 193.794 761.604 193.935 761.822 193.935H763.104C763.335 193.935 763.501 193.794 763.553 193.602L765.347 185.09ZM766.636 188.628C767.584 188.539 768.661 188.462 769.315 188.462C770.302 188.462 770.584 188.769 770.584 189.539V190.09H767.982C766.892 190.09 766.251 190.654 766.251 191.628V192.307C766.251 193.436 767.007 194.051 768.123 194.051C769.264 194.051 770.212 193.41 770.699 192.91L770.828 193.935H771.686V189.539C771.686 188.026 770.93 187.539 769.546 187.539C768.61 187.539 767.392 187.68 766.533 187.821L766.636 188.628ZM767.366 191.782C767.366 191.256 767.572 190.949 768.174 190.923H770.584V192.179C769.866 192.82 768.956 193.128 768.341 193.115C767.661 193.115 767.366 192.833 767.366 192.179V191.782ZM775.197 188.552H777.183V187.693H775.197V185.847H774.107V187.706L772.979 187.757V188.552H774.107V192.359C774.107 193.448 774.658 194.051 775.709 194.051C776.017 194.051 776.709 194 777.119 193.884L776.991 193.051H776.043C775.427 193.051 775.197 192.82 775.197 192.218V188.552ZM782.271 191.346C783.309 191.346 783.771 190.692 783.758 189.577C783.758 188.231 782.963 187.539 781.079 187.539C779.066 187.539 778.207 188.346 778.207 190.795C778.207 193.192 779.04 194.089 781.194 194.089C781.912 194.089 783.027 193.987 783.617 193.743L783.501 193.013C782.86 193.102 782.002 193.166 781.335 193.166C780.053 193.166 779.476 192.833 779.361 191.346H782.271ZM779.348 190.5C779.386 188.923 779.822 188.462 781.13 188.462C782.245 188.462 782.655 188.782 782.668 189.577C782.668 190.039 782.553 190.5 781.989 190.5H779.348ZM789.31 187.539H789.028C788.182 187.539 787.271 187.962 786.361 188.68L786.246 187.693H785.4V193.935H786.49V189.359C787.477 188.859 788.13 188.564 788.823 188.564H789.182L789.31 187.539Z" fill="white"/>
</g>
<g clip-path="url(#clip5_350_1536)">
<mask id="mask3_350_1536" style="mask-type:luminance" maskUnits="userSpaceOnUse" x="587" y="150" width="25" height="27">
<path d="M591.83 163.667L590.869 164.82H587.984V162.257H593.112L591.83 163.667ZM593.112 157.129V159.693H587.984V157.129H593.112ZM593.112 152.001V154.565H587.984V152.001H593.112ZM598.239 166.32C597.384 166.623 596.663 167.218 596.204 168C595.745 168.783 595.578 169.702 595.731 170.596C595.884 171.49 596.349 172.301 597.043 172.886C597.736 173.471 598.614 173.792 599.521 173.792C600.429 173.792 601.306 173.471 602 172.886C602.694 172.301 603.158 171.49 603.312 170.596C603.465 169.702 603.297 168.783 602.838 168C602.379 167.218 601.659 166.623 600.803 166.32V154.565C600.803 153.283 598.239 153.283 598.239 154.565V166.32ZM599.521 176.357C598.176 176.357 596.865 175.934 595.774 175.147C594.682 174.361 593.866 173.251 593.441 171.975C593.015 170.699 593.002 169.321 593.403 168.037C593.805 166.753 594.6 165.627 595.676 164.82V154.565C595.676 153.545 596.081 152.567 596.802 151.846C597.523 151.125 598.501 150.72 599.521 150.72C600.541 150.72 601.519 151.125 602.241 151.846C602.962 152.567 603.367 153.545 603.367 154.565V164.82C604.443 165.627 605.238 166.753 605.639 168.037C606.04 169.321 606.027 170.699 605.602 171.975C605.176 173.251 604.36 174.361 603.269 175.147C602.178 175.934 600.867 176.357 599.521 176.357ZM611.058 162.257V164.82H608.174L607.213 163.667L605.931 162.257H611.058ZM605.931 157.129H611.058V159.693H605.931V157.129ZM605.931 152.001H611.058V154.565H605.931V152.001Z" fill="white"/>
</mask>
<g mask="url(#mask3_350_1536)">
<mask id="mask4_350_1536" style="mask-type:luminance" maskUnits="userSpaceOnUse" x="584" y="148" width="34" height="31">
<path d="M617.468 148.156H584.139V178.921H617.468V148.156Z" fill="white"/>
</mask>
<g mask="url(#mask4_350_1536)">
<path d="M617.467 144.31H581.574V182.767H617.467V144.31Z" fill="#005FB9"/>
</g>
</g>
<path d="M584.307 185.09H583.179V188.718H579.103V185.09H577.975V193.935H579.103V189.692H583.179V193.935H584.307V185.09ZM590.178 191.346C591.216 191.346 591.678 190.692 591.665 189.577C591.665 188.231 590.87 187.539 588.986 187.539C586.973 187.539 586.114 188.346 586.114 190.795C586.114 193.192 586.947 194.089 589.101 194.089C589.819 194.089 590.934 193.987 591.524 193.743L591.408 193.013C590.767 193.102 589.909 193.166 589.242 193.166C587.96 193.166 587.383 192.833 587.268 191.346H590.178ZM587.255 190.5C587.293 188.923 587.729 188.462 589.037 188.462C590.152 188.462 590.562 188.782 590.575 189.577C590.575 190.039 590.46 190.5 589.896 190.5H587.255ZM593.345 188.628C594.294 188.539 595.371 188.462 596.025 188.462C597.012 188.462 597.294 188.769 597.294 189.539V190.09H594.691C593.602 190.09 592.961 190.654 592.961 191.628V192.307C592.961 193.436 593.717 194.051 594.832 194.051C595.973 194.051 596.922 193.41 597.409 192.91L597.537 193.935H598.396V189.539C598.396 188.026 597.64 187.539 596.255 187.539C595.319 187.539 594.102 187.68 593.243 187.821L593.345 188.628ZM594.076 191.782C594.076 191.256 594.281 190.949 594.884 190.923H597.294V192.179C596.576 192.82 595.666 193.128 595.05 193.115C594.371 193.115 594.076 192.833 594.076 192.179V191.782ZM601.906 188.552H603.893V187.693H601.906V185.847H600.817V187.706L599.689 187.757V188.552H600.817V192.359C600.817 193.448 601.368 194.051 602.419 194.051C602.727 194.051 603.419 194 603.829 193.884L603.701 193.051H602.752C602.137 193.051 601.906 192.82 601.906 192.218V188.552ZM605.558 185.039C605.34 185.039 605.224 185.167 605.224 185.372V186.103C605.224 186.334 605.34 186.436 605.558 186.436H606.07C606.301 186.436 606.404 186.334 606.404 186.103V185.372C606.404 185.167 606.301 185.039 606.07 185.039H605.558ZM606.353 193.935V187.693H605.276V193.935H606.353ZM609.327 187.693H608.404V193.935H609.494V189.449C610.494 188.834 611.16 188.462 611.904 188.462C612.545 188.462 612.801 188.731 612.801 189.564V193.935H613.891V189.257C613.891 188.129 613.301 187.539 612.199 187.539C611.276 187.539 610.353 187.962 609.404 188.68L609.327 187.693ZM621.66 188.295L621.724 187.693H619.775C619.403 187.59 618.929 187.539 618.327 187.539C616.314 187.539 615.647 188.129 615.647 189.539C615.647 190.321 615.865 190.859 616.442 191.167C615.865 191.602 615.724 192.641 616.391 193.115C615.673 193.5 615.378 193.871 615.378 194.628C615.378 196.051 616.135 196.525 618.391 196.525C620.621 196.525 621.365 196.051 621.365 194.589C621.365 193.551 620.967 193.013 619.788 192.833L617.455 192.461C616.776 192.359 616.737 191.782 617.019 191.385C617.365 191.461 617.801 191.513 618.314 191.513C620.314 191.513 620.993 190.897 620.993 189.526C620.993 189.052 620.916 188.667 620.737 188.372L621.66 188.295ZM618.314 190.679C617.07 190.679 616.647 190.346 616.647 189.526C616.647 188.693 617.07 188.372 618.314 188.372C619.57 188.372 619.98 188.693 619.98 189.526C619.98 190.346 619.57 190.679 618.314 190.679ZM619.224 193.641C620.108 193.782 620.301 193.91 620.301 194.538C620.301 195.397 619.891 195.602 618.378 195.602C616.852 195.602 616.442 195.422 616.442 194.538C616.442 194 616.647 193.692 617.096 193.346L619.224 193.641Z" fill="#005FB9"/>
</g>
<path d="M536.629 624.642V623.499H528.82V624.642H532.073V633.608H533.362V624.642H536.629ZM539.511 626.297C537.064 626.297 536.156 627.323 536.156 630.048C536.156 632.788 537.064 633.798 539.511 633.798C541.972 633.798 542.866 632.788 542.866 630.048C542.866 627.323 541.972 626.297 539.511 626.297ZM539.511 627.352C541.064 627.352 541.577 627.968 541.577 630.048C541.577 632.128 541.064 632.744 539.511 632.744C537.958 632.744 537.46 632.128 537.46 630.048C537.46 627.968 537.958 627.352 539.511 627.352ZM550.914 623.353H549.669V625.55C549.669 626.048 549.683 626.473 549.727 626.957C548.936 626.503 548.072 626.297 547.193 626.297C545.362 626.297 544.497 627.235 544.497 630.019C544.497 632.509 545.2 633.784 547.002 633.784C548.101 633.784 549.068 633.256 549.83 632.582L549.947 633.608H550.914V623.353ZM549.669 631.718C548.702 632.407 548.204 632.7 547.413 632.7C546.255 632.7 545.772 632.114 545.772 630.004C545.772 627.894 546.255 627.382 547.486 627.382C548.233 627.382 548.834 627.543 549.669 627.777V631.718ZM553.262 627.543C554.346 627.44 555.576 627.352 556.323 627.352C557.452 627.352 557.774 627.704 557.774 628.583V629.213H554.8C553.555 629.213 552.822 629.857 552.822 630.971V631.747C552.822 633.037 553.686 633.74 554.961 633.74C556.265 633.74 557.349 633.007 557.906 632.436L558.052 633.608H559.034V628.583C559.034 626.854 558.169 626.297 556.587 626.297C555.518 626.297 554.126 626.459 553.144 626.62L553.262 627.543ZM554.097 631.147C554.097 630.546 554.331 630.194 555.02 630.165H557.774V631.601C556.953 632.333 555.913 632.685 555.21 632.67C554.434 632.67 554.097 632.348 554.097 631.601V631.147ZM567.587 626.473H566.239L564.378 631.791C564.291 632.055 564.188 632.363 564.071 632.656H563.866C563.807 632.363 563.705 632.084 563.602 631.791L561.712 626.473H560.379L562.972 633.286C563.031 633.491 563.206 633.608 563.412 633.608H563.69L563.573 633.916C563.206 634.809 562.65 635.439 561.492 635.805L561.61 636.626C563.382 636.538 564.261 635.263 564.73 634.003L567.587 626.473Z" fill="#555555"/>
<path d="M794.461 623.543C793.64 623.324 792.835 623.324 792.424 623.324C789.758 623.324 788.498 624.056 788.498 628.803C788.498 632.626 789.055 633.784 791.912 633.784C794.637 633.784 795.105 632.421 795.105 630.341C795.105 627.894 794.461 627.015 792.336 627.015C791.208 627.015 790.505 627.264 789.787 628.07C789.875 624.935 790.564 624.422 792.424 624.422C793.303 624.422 793.699 624.422 794.344 624.481L794.461 623.543ZM791.926 632.685C789.963 632.685 789.773 631.821 789.773 628.993C790.608 628.261 791.179 628.056 792 628.056C793.494 628.056 793.875 628.685 793.875 630.341C793.875 631.85 793.655 632.685 791.926 632.685ZM797.38 631.879C797.043 631.879 796.911 631.996 796.911 632.348V633.139C796.911 633.491 797.043 633.608 797.38 633.608H797.79C798.142 633.608 798.259 633.491 798.259 633.139V632.348C798.259 631.996 798.142 631.879 797.79 631.879H797.38ZM807.499 631V630.077H806.195V625.433H805.199L804.979 627.103V630.077H801.507C801.17 630.077 800.965 629.872 801.141 629.477L803.969 623.499H802.694L799.823 629.564C799.486 630.312 799.954 631.132 800.789 631.132H804.979V633.608H806.195V631.132L807.499 631ZM810.828 628.392C809.554 628.524 809.158 629.506 809.158 631.088C809.158 632.934 809.861 633.769 812.601 633.754C815.37 633.725 816.029 632.934 816.029 631.088C816.029 629.506 815.648 628.524 814.374 628.392V628.334C815.399 628.217 815.809 627.338 815.809 626.019C815.809 624.173 815.179 623.353 812.601 623.353C810.037 623.353 809.378 624.173 809.378 626.019C809.378 627.338 809.803 628.217 810.828 628.334V628.392ZM812.616 624.393C814.286 624.393 814.637 624.818 814.637 626.136C814.637 627.499 814.33 627.85 812.63 627.85C810.96 627.85 810.565 627.528 810.565 626.136C810.565 624.818 810.945 624.393 812.616 624.393ZM812.63 628.876C814.403 628.876 814.798 629.228 814.798 630.824C814.798 632.187 814.403 632.641 812.616 632.641C810.814 632.641 810.374 632.187 810.374 630.824C810.374 629.257 810.799 628.891 812.63 628.876Z" fill="#0077E8"/>
<path d="M825.738 626.473H824.713V633.608H825.958V628.451C827.057 627.66 827.584 627.352 828.302 627.352C829.049 627.352 829.415 627.689 829.415 628.612V633.608H830.617V628.466C831.701 627.675 832.228 627.352 832.961 627.352C833.752 627.352 834.059 627.733 834.074 628.612V633.608H835.305V628.261C835.305 626.971 834.631 626.297 833.4 626.297C832.433 626.297 831.51 626.708 830.529 627.557C830.324 626.722 829.694 626.297 828.727 626.297C827.731 626.297 826.793 626.752 825.811 627.601L825.738 626.473ZM837.458 623.031C837.912 622.987 838.557 622.972 839.201 622.972C840.227 622.972 840.534 623.148 840.549 623.792C840.549 624.261 840.447 624.789 839.377 624.803H838.132V625.536H839.377C840.447 625.536 840.652 625.99 840.652 626.532C840.652 627.352 840.285 627.631 839.216 627.631C838.571 627.631 838.029 627.616 837.341 627.557L837.282 628.29C837.971 628.378 838.703 628.451 839.45 628.451C841.091 628.451 841.677 627.894 841.648 626.649C841.633 625.799 841.34 625.257 840.388 625.125V625.096C841.267 624.964 841.487 624.349 841.487 623.558C841.487 622.488 840.945 622.152 839.333 622.152C838.689 622.152 838.059 622.21 837.399 622.313L837.458 623.031Z" fill="#555555"/>
<path d="M530.989 670.8H529.714V679.018C529.714 680.117 530.271 680.923 531.765 680.923C533.069 680.923 534.402 680.923 535.677 680.82L535.618 679.824H531.97C531.296 679.824 530.989 679.531 530.989 678.857V670.8ZM537.181 674.843C538.265 674.741 539.495 674.653 540.243 674.653C541.371 674.653 541.693 675.004 541.693 675.883V676.513H538.719C537.474 676.513 536.741 677.158 536.741 678.271V679.048C536.741 680.337 537.606 681.04 538.88 681.04C540.184 681.04 541.268 680.308 541.825 679.736L541.971 680.908H542.953V675.883C542.953 674.154 542.089 673.598 540.506 673.598C539.437 673.598 538.045 673.759 537.064 673.92L537.181 674.843ZM538.016 678.447C538.016 677.846 538.25 677.495 538.939 677.465H541.693V678.901C540.873 679.634 539.832 679.985 539.129 679.971C538.353 679.971 538.016 679.648 538.016 678.901V678.447ZM548.43 678.022C549.118 678.183 549.558 678.315 549.558 679.018C549.558 679.868 549.06 680.015 547.463 680.015C546.54 680.029 545.705 680 545.001 679.956L544.914 680.864C546.129 681.055 547.199 681.069 547.712 681.069C549.777 681.069 550.759 680.776 550.759 679.018C550.759 677.802 550.232 677.334 549.103 677.055L547.023 676.586C546.335 676.425 545.983 676.308 545.983 675.561C545.983 674.667 546.422 674.638 547.741 674.653C548.635 674.653 549.558 674.697 550.451 674.726L550.554 673.818C549.675 673.686 548.488 673.612 547.551 673.598C545.602 673.568 544.767 673.905 544.767 675.561C544.767 676.733 545.221 677.275 546.379 677.553L548.43 678.022ZM554.404 674.755H556.675V673.774H554.404V671.664H553.159V673.788L551.87 673.847V674.755H553.159V679.106C553.159 680.351 553.789 681.04 554.99 681.04C555.342 681.04 556.133 680.981 556.602 680.85L556.455 679.897H555.371C554.668 679.897 554.404 679.634 554.404 678.945V674.755ZM560.887 670.8L560.946 671.898H565.985C565.868 672.133 565.765 672.382 565.678 672.646L562.835 680.908H564.125L567.274 671.693C567.45 671.137 567.201 670.8 566.601 670.8H560.887ZM578.311 670.653H577.066V672.851C577.066 673.349 577.081 673.774 577.125 674.257C576.334 673.803 575.469 673.598 574.59 673.598C572.759 673.598 571.895 674.535 571.895 677.319C571.895 679.809 572.598 681.084 574.4 681.084C575.499 681.084 576.466 680.557 577.227 679.883L577.345 680.908H578.311V670.653ZM577.066 679.018C576.099 679.707 575.601 680 574.81 680C573.653 680 573.169 679.414 573.169 677.304C573.169 675.195 573.653 674.682 574.883 674.682C575.63 674.682 576.231 674.843 577.066 675.077V679.018ZM580.659 674.843C581.743 674.741 582.974 674.653 583.721 674.653C584.849 674.653 585.171 675.004 585.171 675.883V676.513H582.197C580.952 676.513 580.22 677.158 580.22 678.271V679.048C580.22 680.337 581.084 681.04 582.358 681.04C583.662 681.04 584.746 680.308 585.303 679.736L585.45 680.908H586.431V675.883C586.431 674.154 585.567 673.598 583.985 673.598C582.915 673.598 581.523 673.759 580.542 673.92L580.659 674.843ZM581.494 678.447C581.494 677.846 581.728 677.495 582.417 677.465H585.171V678.901C584.351 679.634 583.311 679.985 582.607 679.971C581.831 679.971 581.494 679.648 581.494 678.901V678.447ZM594.984 673.774H593.637L591.776 679.092C591.688 679.355 591.585 679.663 591.468 679.956H591.263C591.205 679.663 591.102 679.385 590.999 679.092L589.11 673.774H587.776L590.37 680.586C590.428 680.791 590.604 680.908 590.809 680.908H591.087L590.97 681.216C590.604 682.11 590.047 682.739 588.89 683.106L589.007 683.926C590.78 683.838 591.659 682.564 592.128 681.304L594.984 673.774ZM599.662 678.022C600.351 678.183 600.79 678.315 600.79 679.018C600.79 679.868 600.292 680.015 598.695 680.015C597.772 680.029 596.937 680 596.234 679.956L596.146 680.864C597.362 681.055 598.431 681.069 598.944 681.069C601.01 681.069 601.991 680.776 601.991 679.018C601.991 677.802 601.464 677.334 600.336 677.055L598.256 676.586C597.567 676.425 597.215 676.308 597.215 675.561C597.215 674.667 597.655 674.638 598.974 674.653C599.867 674.653 600.79 674.697 601.684 674.726L601.786 673.818C600.907 673.686 599.721 673.612 598.783 673.598C596.835 673.568 596 673.905 596 675.561C596 676.733 596.454 677.275 597.611 677.553L599.662 678.022Z" fill="#555555"/>
<path d="M788.212 671.898L788.27 670.8H782.923L782.689 675.136C782.674 675.444 782.879 675.678 783.172 675.707L783.846 675.751C786.41 675.913 787.333 676 787.303 677.876C787.274 679.209 786.922 679.941 785.003 679.941C784.329 679.941 783.348 679.839 782.44 679.678L782.293 680.718C783.377 680.967 784.491 681.084 785.296 681.084C788.065 681.084 788.563 679.502 788.563 677.876C788.578 675.693 787.552 674.931 784.901 674.741L783.817 674.653L783.963 671.898H788.212ZM793.795 670.609C791.202 670.609 790.323 672.162 790.323 675.854C790.323 679.546 791.202 681.099 793.795 681.099C796.403 681.099 797.282 679.546 797.282 675.854C797.282 672.162 796.403 670.609 793.795 670.609ZM793.795 671.737C795.48 671.737 796.022 672.865 796.022 675.854C796.022 678.843 795.48 679.971 793.795 679.971C792.111 679.971 791.583 678.843 791.583 675.854C791.583 672.865 792.111 671.737 793.795 671.737ZM799.678 679.179C799.341 679.179 799.209 679.297 799.209 679.648V680.439C799.209 680.791 799.341 680.908 799.678 680.908H800.088C800.44 680.908 800.557 680.791 800.557 680.439V679.648C800.557 679.297 800.44 679.179 800.088 679.179H799.678ZM804.242 675.693C802.967 675.825 802.572 676.806 802.572 678.388C802.572 680.234 803.275 681.069 806.014 681.055C808.783 681.025 809.442 680.234 809.442 678.388C809.442 676.806 809.062 675.825 807.787 675.693V675.634C808.813 675.517 809.223 674.638 809.223 673.319C809.223 671.474 808.593 670.653 806.014 670.653C803.451 670.653 802.791 671.474 802.791 673.319C802.791 674.638 803.216 675.517 804.242 675.634V675.693ZM806.029 671.693C807.699 671.693 808.051 672.118 808.051 673.437C808.051 674.799 807.743 675.151 806.044 675.151C804.374 675.151 803.978 674.828 803.978 673.437C803.978 672.118 804.359 671.693 806.029 671.693ZM806.044 676.176C807.816 676.176 808.212 676.528 808.212 678.125C808.212 679.487 807.816 679.941 806.029 679.941C804.227 679.941 803.788 679.487 803.788 678.125C803.788 676.557 804.212 676.191 806.044 676.176ZM814.649 680.908V670.8H813.36L810.782 671.84L810.958 672.792L813.433 672.016C813.375 672.309 813.36 672.602 813.36 672.895V680.908H814.649Z" fill="#0077E8"/>
<path d="M824.989 673.774H823.963V680.908H825.209V675.751C826.307 674.96 826.835 674.653 827.553 674.653C828.3 674.653 828.666 674.99 828.666 675.913V680.908H829.867V675.766C830.951 674.975 831.479 674.653 832.211 674.653C833.002 674.653 833.31 675.034 833.325 675.913V680.908H834.555V675.561C834.555 674.272 833.881 673.598 832.651 673.598C831.684 673.598 830.761 674.008 829.779 674.858C829.574 674.023 828.944 673.598 827.977 673.598C826.981 673.598 826.044 674.052 825.062 674.902L824.989 673.774ZM836.709 670.331C837.163 670.287 837.807 670.272 838.452 670.272C839.477 670.272 839.785 670.448 839.8 671.093C839.8 671.561 839.697 672.089 838.628 672.103H837.382V672.836H838.628C839.697 672.836 839.902 673.29 839.902 673.832C839.902 674.653 839.536 674.931 838.467 674.931C837.822 674.931 837.28 674.916 836.591 674.858L836.533 675.59C837.221 675.678 837.954 675.751 838.701 675.751C840.342 675.751 840.928 675.195 840.898 673.949C840.884 673.1 840.591 672.558 839.639 672.426V672.396C840.518 672.265 840.737 671.649 840.737 670.858C840.737 669.789 840.195 669.452 838.584 669.452C837.939 669.452 837.309 669.51 836.65 669.613L836.709 670.331Z" fill="#555555"/>
<path d="M530.989 718.1H529.714V726.319C529.714 727.417 530.271 728.223 531.765 728.223C533.069 728.223 534.402 728.223 535.677 728.12L535.618 727.124H531.97C531.296 727.124 530.989 726.831 530.989 726.157V718.1ZM537.181 722.143C538.265 722.041 539.495 721.953 540.243 721.953C541.371 721.953 541.693 722.304 541.693 723.183V723.813H538.719C537.474 723.813 536.741 724.458 536.741 725.571V726.348C536.741 727.637 537.606 728.34 538.88 728.34C540.184 728.34 541.268 727.608 541.825 727.036L541.971 728.208H542.953V723.183C542.953 721.455 542.089 720.898 540.506 720.898C539.437 720.898 538.045 721.059 537.064 721.22L537.181 722.143ZM538.016 725.747C538.016 725.146 538.25 724.795 538.939 724.766H541.693V726.201C540.873 726.934 539.832 727.285 539.129 727.271C538.353 727.271 538.016 726.948 538.016 726.201V725.747ZM548.43 725.322C549.118 725.483 549.558 725.615 549.558 726.319C549.558 727.168 549.06 727.315 547.463 727.315C546.54 727.329 545.705 727.3 545.001 727.256L544.914 728.164C546.129 728.355 547.199 728.37 547.712 728.37C549.777 728.37 550.759 728.077 550.759 726.319C550.759 725.103 550.232 724.634 549.103 724.355L547.023 723.887C546.335 723.725 545.983 723.608 545.983 722.861C545.983 721.967 546.422 721.938 547.741 721.953C548.635 721.953 549.558 721.997 550.451 722.026L550.554 721.118C549.675 720.986 548.488 720.913 547.551 720.898C545.602 720.869 544.767 721.206 544.767 722.861C544.767 724.033 545.221 724.575 546.379 724.853L548.43 725.322ZM554.404 722.055H556.675V721.074H554.404V718.964H553.159V721.088L551.87 721.147V722.055H553.159V726.406C553.159 727.652 553.789 728.34 554.99 728.34C555.342 728.34 556.133 728.282 556.602 728.15L556.455 727.198H555.371C554.668 727.198 554.404 726.934 554.404 726.245V722.055ZM561.356 719.169C562.03 719.111 562.967 719.052 563.92 719.052C565.472 719.052 565.956 719.272 565.985 720.546C565.985 721.484 565.824 722.378 564.213 722.392H562.337V723.403H564.213C565.883 723.403 566.22 724.165 566.22 725.264C566.22 726.743 565.59 727.241 563.963 727.241C563.026 727.241 562.162 727.183 561.165 727.095L561.077 728.135C562.103 728.282 563.202 728.399 564.286 728.399C566.674 728.399 567.523 727.447 567.494 725.396C567.465 724.004 567.055 723.081 565.736 722.861V722.802C566.894 722.568 567.216 721.557 567.216 720.253C567.216 718.466 566.308 717.909 564.095 717.909C563.158 717.909 562.249 717.997 561.253 718.173L561.356 719.169ZM572.866 717.909C570.273 717.909 569.394 719.462 569.394 723.154C569.394 726.846 570.273 728.399 572.866 728.399C575.474 728.399 576.353 726.846 576.353 723.154C576.353 719.462 575.474 717.909 572.866 717.909ZM572.866 719.037C574.551 719.037 575.093 720.165 575.093 723.154C575.093 726.143 574.551 727.271 572.866 727.271C571.181 727.271 570.654 726.143 570.654 723.154C570.654 720.165 571.181 719.037 572.866 719.037ZM587.783 717.953H586.537V720.151C586.537 720.649 586.552 721.074 586.596 721.557C585.805 721.103 584.94 720.898 584.061 720.898C582.23 720.898 581.366 721.836 581.366 724.619C581.366 727.11 582.069 728.384 583.871 728.384C584.97 728.384 585.937 727.857 586.698 727.183L586.816 728.208H587.783V717.953ZM586.537 726.319C585.57 727.007 585.072 727.3 584.281 727.3C583.124 727.3 582.64 726.714 582.64 724.604C582.64 722.495 583.124 721.982 584.354 721.982C585.102 721.982 585.702 722.143 586.537 722.378V726.319ZM590.13 722.143C591.214 722.041 592.445 721.953 593.192 721.953C594.32 721.953 594.642 722.304 594.642 723.183V723.813H591.668C590.423 723.813 589.691 724.458 589.691 725.571V726.348C589.691 727.637 590.555 728.34 591.83 728.34C593.133 728.34 594.217 727.608 594.774 727.036L594.921 728.208H595.902V723.183C595.902 721.455 595.038 720.898 593.456 720.898C592.386 720.898 590.994 721.059 590.013 721.22L590.13 722.143ZM590.965 725.747C590.965 725.146 591.2 724.795 591.888 724.766H594.642V726.201C593.822 726.934 592.782 727.285 592.079 727.271C591.302 727.271 590.965 726.948 590.965 726.201V725.747ZM604.455 721.074H603.108L601.247 726.392C601.159 726.655 601.057 726.963 600.939 727.256H600.734C600.676 726.963 600.573 726.685 600.471 726.392L598.581 721.074H597.248L599.841 727.886C599.899 728.091 600.075 728.208 600.28 728.208H600.558L600.441 728.516C600.075 729.41 599.518 730.04 598.361 730.406L598.478 731.226C600.251 731.138 601.13 729.864 601.599 728.604L604.455 721.074ZM609.133 725.322C609.822 725.483 610.261 725.615 610.261 726.319C610.261 727.168 609.763 727.315 608.166 727.315C607.243 727.329 606.408 727.3 605.705 727.256L605.617 728.164C606.833 728.355 607.903 728.37 608.415 728.37C610.481 728.37 611.463 728.077 611.463 726.319C611.463 725.103 610.935 724.634 609.807 724.355L607.727 723.887C607.038 723.725 606.687 723.608 606.687 722.861C606.687 721.967 607.126 721.938 608.445 721.953C609.338 721.953 610.261 721.997 611.155 722.026L611.257 721.118C610.378 720.986 609.192 720.913 608.254 720.898C606.306 720.869 605.471 721.206 605.471 722.861C605.471 724.033 605.925 724.575 607.082 724.853L609.133 725.322Z" fill="#555555"/>
<path d="M775.513 719.301C776.773 719.096 777.461 719.067 778.414 719.067C779.571 719.067 780.274 719.184 780.303 720.165C780.347 721.132 779.747 722.143 778.457 723.535L775.527 726.846C775.381 727.007 775.337 727.183 775.337 727.403V728.208H781.974V726.963H778.545C778.018 726.963 777.417 726.978 776.905 727.022L779.805 723.784C781.153 722.29 781.607 721.381 781.607 720.107C781.607 718.276 780.435 717.924 778.501 717.924C777.593 717.924 776.802 717.983 775.425 718.305L775.513 719.301ZM786.948 728.208V718.1H785.658L783.08 719.14L783.256 720.092L785.732 719.316C785.673 719.609 785.658 719.902 785.658 720.195V728.208H786.948ZM791.276 722.993C790.001 723.125 789.606 724.106 789.606 725.689C789.606 727.534 790.309 728.37 793.048 728.355C795.817 728.326 796.477 727.534 796.477 725.689C796.477 724.106 796.096 723.125 794.821 722.993V722.934C795.847 722.817 796.257 721.938 796.257 720.62C796.257 718.774 795.627 717.953 793.048 717.953C790.485 717.953 789.825 718.774 789.825 720.62C789.825 721.938 790.25 722.817 791.276 722.934V722.993ZM793.063 718.993C794.733 718.993 795.085 719.418 795.085 720.737C795.085 722.099 794.777 722.451 793.078 722.451C791.408 722.451 791.012 722.129 791.012 720.737C791.012 719.418 791.393 718.993 793.063 718.993ZM793.078 723.476C794.85 723.476 795.246 723.828 795.246 725.425C795.246 726.787 794.85 727.241 793.063 727.241C791.261 727.241 790.822 726.787 790.822 725.425C790.822 723.857 791.246 723.491 793.078 723.476ZM798.959 726.48C798.622 726.48 798.49 726.597 798.49 726.948V727.74C798.49 728.091 798.622 728.208 798.959 728.208H799.369C799.72 728.208 799.838 728.091 799.838 727.74V726.948C799.838 726.597 799.72 726.48 799.369 726.48H798.959ZM800.883 718.1L800.942 719.199H805.982C805.864 719.433 805.762 719.682 805.674 719.946L802.832 728.208H804.121L807.271 718.993C807.447 718.437 807.198 718.1 806.597 718.1H800.883ZM815.888 725.601V724.678H814.584V720.034H813.588L813.368 721.704V724.678H809.896C809.559 724.678 809.354 724.473 809.53 724.077L812.357 718.1H811.083L808.211 724.165C807.874 724.912 808.343 725.733 809.178 725.733H813.368V728.208H814.584V725.733L815.888 725.601Z" fill="#0077E8"/>
<path d="M825.228 721.074H824.202V728.208H825.448V723.052C826.547 722.26 827.074 721.953 827.792 721.953C828.539 721.953 828.905 722.29 828.905 723.213V728.208H830.106V723.066C831.191 722.275 831.718 721.953 832.451 721.953C833.242 721.953 833.549 722.334 833.564 723.213V728.208H834.795V722.861C834.795 721.572 834.121 720.898 832.89 720.898C831.923 720.898 831 721.308 830.019 722.158C829.813 721.323 829.184 720.898 828.217 720.898C827.22 720.898 826.283 721.352 825.301 722.202L825.228 721.074ZM836.948 717.631C837.402 717.587 838.047 717.572 838.691 717.572C839.717 717.572 840.024 717.748 840.039 718.393C840.039 718.862 839.936 719.389 838.867 719.404H837.622V720.136H838.867C839.936 720.136 840.141 720.59 840.141 721.132C840.141 721.953 839.775 722.231 838.706 722.231C838.061 722.231 837.519 722.216 836.831 722.158L836.772 722.89C837.461 722.978 838.193 723.052 838.94 723.052C840.581 723.052 841.167 722.495 841.138 721.25C841.123 720.4 840.83 719.858 839.878 719.726V719.697C840.757 719.565 840.977 718.949 840.977 718.158C840.977 717.089 840.434 716.752 838.823 716.752C838.178 716.752 837.548 716.811 836.889 716.913L836.948 717.631Z" fill="#555555"/>
<path d="M513.818 751.375H857.181" stroke="#F9F9F9" stroke-width="2.7469"/>
<path d="M857.181 560.007H513.818V596.633H857.181V560.007Z" fill="#0077E8"/>
<path d="M532.967 576.114V574.971H525.158V576.114H528.411V585.079H529.7V576.114H532.967ZM539.225 577.945H537.98V583.16C536.94 583.834 536.251 584.186 535.489 584.186C534.669 584.186 534.347 583.864 534.361 582.955V577.945H533.116V583.307C533.116 584.596 533.775 585.27 535.064 585.27C536.09 585.27 537.072 584.86 538.141 584.054L538.229 585.079H539.225V577.945ZM545.808 582.12C546.994 582.12 547.522 581.373 547.507 580.098C547.507 578.56 546.599 577.769 544.445 577.769C542.145 577.769 541.164 578.692 541.164 581.49C541.164 584.23 542.116 585.255 544.577 585.255C545.397 585.255 546.672 585.138 547.346 584.86L547.214 584.025C546.482 584.127 545.5 584.2 544.738 584.2C543.273 584.2 542.614 583.82 542.482 582.12H545.808ZM542.467 581.153C542.511 579.351 543.009 578.824 544.504 578.824C545.778 578.824 546.247 579.19 546.262 580.098C546.262 580.626 546.13 581.153 545.485 581.153H542.467Z" fill="white"/>
<path d="M584.327 574.971H582.964L581.367 582.867C581.294 583.263 581.236 583.688 581.177 584.098H580.811C580.767 583.688 580.694 583.278 580.606 582.853L579.038 575.396C578.979 575.147 578.789 574.971 578.54 574.971H577.134C576.87 574.971 576.679 575.147 576.635 575.396L575.068 582.853C574.98 583.248 574.907 583.644 574.833 584.098H574.497C574.423 583.644 574.365 583.234 574.291 582.853L572.709 574.971H571.347L573.398 584.699C573.442 584.918 573.647 585.079 573.896 585.079H575.376C575.625 585.079 575.83 584.918 575.888 584.684L577.456 577.08C577.529 576.714 577.602 576.319 577.676 575.938H577.983C578.056 576.319 578.13 576.7 578.218 577.08L579.8 584.684C579.844 584.918 580.049 585.079 580.298 585.079H581.763C582.027 585.079 582.217 584.918 582.276 584.699L584.327 574.971ZM589.962 582.12C591.149 582.12 591.676 581.373 591.662 580.098C591.662 578.56 590.753 577.769 588.6 577.769C586.3 577.769 585.318 578.692 585.318 581.49C585.318 584.23 586.27 585.255 588.732 585.255C589.552 585.255 590.826 585.138 591.5 584.86L591.369 584.025C590.636 584.127 589.654 584.2 588.893 584.2C587.428 584.2 586.768 583.82 586.637 582.12H589.962ZM586.622 581.153C586.666 579.351 587.164 578.824 588.658 578.824C589.933 578.824 590.402 579.19 590.416 580.098C590.416 580.626 590.284 581.153 589.64 581.153H586.622ZM599.633 574.824H598.388V577.022C598.388 577.52 598.402 577.945 598.446 578.428C597.655 577.974 596.791 577.769 595.912 577.769C594.08 577.769 593.216 578.707 593.216 581.49C593.216 583.981 593.919 585.255 595.721 585.255C596.82 585.255 597.787 584.728 598.549 584.054L598.666 585.079H599.633V574.824ZM598.388 583.19C597.421 583.878 596.923 584.171 596.131 584.171C594.974 584.171 594.491 583.585 594.491 581.476C594.491 579.366 594.974 578.853 596.205 578.853C596.952 578.853 597.552 579.014 598.388 579.249V583.19Z" fill="white"/>
<path d="M630.633 576.114V574.971H622.824V576.114H626.077V585.079H627.366V576.114H630.633ZM633.388 574.824H632.128V585.079H633.373V579.937C634.516 579.219 635.278 578.824 636.127 578.824C636.86 578.824 637.138 579.132 637.138 580.084V585.079H638.398V579.732C638.398 578.443 637.724 577.769 636.464 577.769C635.41 577.769 634.369 578.253 633.3 579.044C633.359 578.663 633.388 578.179 633.388 577.652V574.824ZM646.706 577.945H645.46V583.16C644.42 583.834 643.732 584.186 642.97 584.186C642.149 584.186 641.827 583.864 641.842 582.955V577.945H640.596V583.307C640.596 584.596 641.256 585.27 642.545 585.27C643.57 585.27 644.552 584.86 645.621 584.054L645.709 585.079H646.706V577.945Z" fill="white"/>
<path d="M683.195 576.055L683.268 575.059C681.965 574.956 680.485 574.956 679.078 574.956C677.892 574.956 677.13 575.615 677.13 576.773V585.079H678.419V580.406H682.638V579.366H678.419V577.022C678.419 576.348 678.712 576.055 679.401 576.055H683.195ZM689.164 577.769H688.842C687.875 577.769 686.835 578.253 685.795 579.073L685.663 577.945H684.696V585.079H685.941V579.849C687.069 579.278 687.816 578.941 688.607 578.941H689.018L689.164 577.769ZM690.957 574.912C690.708 574.912 690.576 575.059 690.576 575.293V576.128C690.576 576.392 690.708 576.509 690.957 576.509H691.543C691.807 576.509 691.924 576.392 691.924 576.128V575.293C691.924 575.059 691.807 574.912 691.543 574.912H690.957ZM691.865 585.079V577.945H690.635V585.079H691.865Z" fill="white"/>
<path d="M728.696 580.802C729.575 581.021 729.97 581.3 729.97 582.472C729.97 583.864 729.487 584.098 727.934 584.098C727.099 584.113 726.557 584.083 724.843 584.025L724.755 584.977C726.132 585.226 727.231 585.255 727.89 585.255C730.249 585.255 731.274 584.83 731.274 582.501C731.274 580.933 730.791 580.04 729.238 579.659L727.187 579.146C726.293 578.926 725.912 578.604 725.912 577.491C725.912 575.996 726.484 575.952 727.949 575.952C728.886 575.952 729.956 575.982 730.805 576.026L730.893 575.088C729.883 574.868 728.842 574.81 727.89 574.795C725.634 574.795 724.608 575.103 724.608 577.461C724.608 579 725.136 579.908 726.601 580.274L728.696 580.802ZM733.201 579.014C734.286 578.912 735.516 578.824 736.263 578.824C737.391 578.824 737.714 579.175 737.714 580.054V580.684H734.74C733.494 580.684 732.762 581.329 732.762 582.442V583.219C732.762 584.508 733.626 585.211 734.901 585.211C736.205 585.211 737.289 584.479 737.846 583.907L737.992 585.079H738.974V580.054C738.974 578.326 738.109 577.769 736.527 577.769C735.458 577.769 734.066 577.93 733.084 578.091L733.201 579.014ZM734.037 582.618C734.037 582.018 734.271 581.666 734.959 581.637H737.714V583.072C736.893 583.805 735.853 584.157 735.15 584.142C734.373 584.142 734.037 583.82 734.037 583.072V582.618ZM742.985 578.926H745.256V577.945H742.985V575.835H741.74V577.96L740.451 578.018V578.926H741.74V583.278C741.74 584.523 742.37 585.211 743.571 585.211C743.923 585.211 744.714 585.153 745.183 585.021L745.036 584.069H743.952C743.249 584.069 742.985 583.805 742.985 583.116V578.926Z" fill="white"/>
<path d="M775.7 580.802C776.579 581.021 776.974 581.3 776.974 582.472C776.974 583.864 776.491 584.098 774.938 584.098C774.103 584.113 773.561 584.083 771.847 584.025L771.759 584.977C773.136 585.226 774.235 585.255 774.894 585.255C777.253 585.255 778.278 584.83 778.278 582.501C778.278 580.933 777.795 580.04 776.242 579.659L774.191 579.146C773.297 578.926 772.916 578.604 772.916 577.491C772.916 575.996 773.488 575.952 774.953 575.952C775.89 575.952 776.96 575.982 777.809 576.026L777.897 575.088C776.886 574.868 775.846 574.81 774.894 574.795C772.638 574.795 771.612 575.103 771.612 577.461C771.612 579 772.14 579.908 773.605 580.274L775.7 580.802ZM786.227 577.945H784.981V583.16C783.941 583.834 783.253 584.186 782.491 584.186C781.67 584.186 781.348 583.864 781.363 582.955V577.945H780.117V583.307C780.117 584.596 780.777 585.27 782.066 585.27C783.091 585.27 784.073 584.86 785.142 584.054L785.23 585.079H786.227V577.945ZM789.571 577.945H788.517V585.079H789.762V579.952C790.905 579.249 791.666 578.824 792.516 578.824C793.249 578.824 793.542 579.132 793.542 580.084V585.079H794.787V579.732C794.787 578.443 794.113 577.769 792.853 577.769C791.798 577.769 790.743 578.253 789.659 579.073L789.571 577.945Z" fill="white"/>
<path d="M828.101 574.971C827.808 574.971 827.617 575.117 827.544 575.41L825.654 581.549C825.508 582.032 825.405 582.472 825.273 582.941H825.01C824.878 582.472 824.775 582.032 824.629 581.578L822.739 575.41C822.651 575.117 822.49 574.971 822.197 574.971H820.732C820.395 574.971 820.204 575.161 820.19 575.513L819.794 585.079H821.083L821.435 576.04H821.728L823.984 583.497C824.072 583.776 824.262 583.937 824.57 583.937H825.727C826.02 583.937 826.211 583.776 826.284 583.497L828.54 576.04H828.848L829.214 585.079H830.503L830.078 575.513C830.078 575.161 829.888 574.971 829.551 574.971H828.101ZM835.733 577.769C833.286 577.769 832.378 578.795 832.378 581.519C832.378 584.259 833.286 585.27 835.733 585.27C838.194 585.27 839.088 584.259 839.088 581.519C839.088 578.795 838.194 577.769 835.733 577.769ZM835.733 578.824C837.286 578.824 837.798 579.439 837.798 581.519C837.798 583.6 837.286 584.215 835.733 584.215C834.18 584.215 833.682 583.6 833.682 581.519C833.682 579.439 834.18 578.824 835.733 578.824ZM842.096 577.945H841.041V585.079H842.287V579.952C843.429 579.249 844.191 578.824 845.041 578.824C845.773 578.824 846.066 579.132 846.066 580.084V585.079H847.312V579.732C847.312 578.443 846.638 577.769 845.378 577.769C844.323 577.769 843.268 578.253 842.184 579.073L842.096 577.945Z" fill="white"/>
<path d="M560.974 482.641H513.361V558.639H560.974V482.641Z" fill="#0091F4"/>
<path d="M610.418 437.775H562.805V558.639H610.418V437.775Z" fill="#0091F4"/>
<path d="M659.861 329.268H612.248V558.639H659.861V329.268Z" fill="#0091F4"/>
<path d="M709.306 500.038H661.693V558.639H709.306V500.038Z" fill="#0091F4"/>
<path d="M758.75 372.765H711.137V558.639H758.75V372.765Z" fill="#0091F4"/>
<path d="M808.195 329.268H760.582V558.639H808.195V329.268Z" fill="#0091F4"/>
<path d="M857.638 408.475H810.025V558.639H857.638V408.475Z" fill="#0091F4"/>
<path d="M523.708 522.934C524.382 522.875 525.32 522.816 526.272 522.816C527.825 522.816 528.308 523.036 528.337 524.311C528.337 525.248 528.176 526.142 526.565 526.157H524.69V527.167H526.565C528.235 527.167 528.572 527.929 528.572 529.028C528.572 530.508 527.942 531.006 526.316 531.006C525.378 531.006 524.514 530.947 523.518 530.859L523.43 531.899C524.455 532.046 525.554 532.163 526.638 532.163C529.026 532.163 529.876 531.211 529.846 529.16C529.817 527.768 529.407 526.845 528.088 526.625V526.567C529.246 526.332 529.568 525.321 529.568 524.018C529.568 522.23 528.66 521.674 526.448 521.674C525.51 521.674 524.602 521.762 523.606 521.937L523.708 522.934ZM532.273 530.244C531.937 530.244 531.805 530.361 531.805 530.713V531.504C531.805 531.855 531.937 531.973 532.273 531.973H532.684C533.035 531.973 533.152 531.855 533.152 531.504V530.713C533.152 530.361 533.035 530.244 532.684 530.244H532.273ZM535.431 531.929C536.339 532.148 537.16 532.148 537.614 532.148C540.426 532.148 541.525 531.328 541.525 526.801C541.525 522.904 541.144 521.688 538.2 521.688C535.768 521.688 534.962 522.846 534.962 525.16C534.962 527.065 535.621 528.457 537.702 528.457C538.844 528.457 539.533 528.208 540.28 527.358C540.207 530.376 539.533 531.035 537.614 531.035C536.603 531.035 536.251 531.035 535.548 530.976L535.431 531.929ZM538.039 527.431C536.588 527.431 536.178 526.625 536.193 525.16C536.178 523.637 536.515 522.787 538.185 522.787C540.133 522.787 540.28 523.622 540.28 526.464C539.445 527.211 538.874 527.431 538.039 527.431ZM546.95 521.674C544.357 521.674 543.478 523.227 543.478 526.918C543.478 530.61 544.357 532.163 546.95 532.163C549.557 532.163 550.436 530.61 550.436 526.918C550.436 523.227 549.557 521.674 546.95 521.674ZM546.95 522.802C548.634 522.802 549.176 523.93 549.176 526.918C549.176 529.907 548.634 531.035 546.95 531.035C545.265 531.035 544.738 529.907 544.738 526.918C544.738 523.93 545.265 522.802 546.95 522.802ZM529.715 542.838H528.689V549.973H529.934V544.816C531.033 544.025 531.561 543.717 532.278 543.717C533.026 543.717 533.392 544.054 533.392 544.977V549.973H534.593V544.83C535.677 544.039 536.205 543.717 536.937 543.717C537.728 543.717 538.036 544.098 538.051 544.977V549.973H539.281V544.625C539.281 543.336 538.607 542.662 537.377 542.662C536.41 542.662 535.487 543.072 534.505 543.922C534.3 543.087 533.67 542.662 532.703 542.662C531.707 542.662 530.77 543.116 529.788 543.966L529.715 542.838ZM541.434 539.395C541.889 539.351 542.533 539.337 543.178 539.337C544.203 539.337 544.511 539.512 544.526 540.157C544.526 540.626 544.423 541.153 543.354 541.168H542.108V541.9H543.354C544.423 541.9 544.628 542.355 544.628 542.897C544.628 543.717 544.262 543.995 543.192 543.995C542.548 543.995 542.006 543.981 541.317 543.922L541.259 544.655C541.947 544.743 542.68 544.816 543.427 544.816C545.068 544.816 545.654 544.259 545.624 543.014C545.61 542.164 545.317 541.622 544.365 541.49V541.461C545.244 541.329 545.463 540.714 545.463 539.923C545.463 538.853 544.921 538.516 543.31 538.516C542.665 538.516 542.035 538.575 541.376 538.677L541.434 539.395Z" fill="white"/>
<path d="M578.899 522.963L578.958 521.864H573.61L573.376 526.201C573.361 526.508 573.566 526.743 573.859 526.772L574.533 526.816C577.097 526.977 578.02 527.065 577.991 528.94C577.961 530.273 577.61 531.006 575.691 531.006C575.017 531.006 574.035 530.903 573.127 530.742L572.98 531.782C574.064 532.031 575.178 532.148 575.984 532.148C578.753 532.148 579.251 530.566 579.251 528.94C579.265 526.757 578.24 525.995 575.588 525.805L574.504 525.717L574.65 522.963H578.899ZM581.538 530.244C581.201 530.244 581.069 530.361 581.069 530.713V531.504C581.069 531.855 581.201 531.973 581.538 531.973H581.948C582.3 531.973 582.417 531.855 582.417 531.504V530.713C582.417 530.361 582.3 530.244 581.948 530.244H581.538ZM590.35 521.908C589.53 521.688 588.724 521.688 588.314 521.688C585.648 521.688 584.388 522.421 584.388 527.167C584.388 530.991 584.944 532.148 587.801 532.148C590.526 532.148 590.995 530.786 590.995 528.706C590.995 526.259 590.35 525.38 588.226 525.38C587.098 525.38 586.395 525.629 585.677 526.435C585.765 523.3 586.453 522.787 588.314 522.787C589.193 522.787 589.588 522.787 590.233 522.846L590.35 521.908ZM587.816 531.05C585.853 531.05 585.662 530.185 585.662 527.358C586.497 526.625 587.069 526.42 587.889 526.42C589.383 526.42 589.764 527.05 589.764 528.706C589.764 530.215 589.545 531.05 587.816 531.05ZM594.485 526.757C593.211 526.889 592.815 527.871 592.815 529.453C592.815 531.299 593.519 532.134 596.258 532.119C599.027 532.09 599.686 531.299 599.686 529.453C599.686 527.871 599.305 526.889 598.031 526.757V526.699C599.056 526.581 599.467 525.702 599.467 524.384C599.467 522.538 598.837 521.718 596.258 521.718C593.694 521.718 593.035 522.538 593.035 524.384C593.035 525.702 593.46 526.581 594.485 526.699V526.757ZM596.273 522.758C597.943 522.758 598.295 523.183 598.295 524.501C598.295 525.864 597.987 526.215 596.287 526.215C594.617 526.215 594.222 525.893 594.222 524.501C594.222 523.183 594.603 522.758 596.273 522.758ZM596.287 527.241C598.06 527.241 598.456 527.592 598.456 529.189C598.456 530.552 598.06 531.006 596.273 531.006C594.471 531.006 594.031 530.552 594.031 529.189C594.031 527.622 594.456 527.255 596.287 527.241ZM579.158 542.838H578.133V549.973H579.378V544.816C580.477 544.025 581.004 543.717 581.722 543.717C582.469 543.717 582.835 544.054 582.835 544.977V549.973H584.037V544.83C585.121 544.039 585.648 543.717 586.381 543.717C587.172 543.717 587.479 544.098 587.494 544.977V549.973H588.725V544.625C588.725 543.336 588.051 542.662 586.82 542.662C585.853 542.662 584.93 543.072 583.949 543.922C583.744 543.087 583.114 542.662 582.147 542.662C581.15 542.662 580.213 543.116 579.231 543.966L579.158 542.838ZM590.878 539.395C591.332 539.351 591.977 539.337 592.621 539.337C593.647 539.337 593.954 539.512 593.969 540.157C593.969 540.626 593.866 541.153 592.797 541.168H591.552V541.9H592.797C593.866 541.9 594.072 542.355 594.072 542.897C594.072 543.717 593.705 543.995 592.636 543.995C591.991 543.995 591.449 543.981 590.761 543.922L590.702 544.655C591.391 544.743 592.123 544.816 592.87 544.816C594.511 544.816 595.097 544.259 595.068 543.014C595.053 542.164 594.76 541.622 593.808 541.49V541.461C594.687 541.329 594.907 540.714 594.907 539.923C594.907 538.853 594.365 538.516 592.753 538.516C592.108 538.516 591.478 538.575 590.819 538.677L590.878 539.395Z" fill="white"/>
<path d="M624.055 531.973V521.864H622.765L620.187 522.904L620.363 523.856L622.839 523.08C622.78 523.373 622.765 523.666 622.765 523.959V531.973H624.055ZM629.892 531.973V521.864H628.603L626.024 522.904L626.2 523.856L628.676 523.08C628.617 523.373 628.603 523.666 628.603 523.959V531.973H629.892ZM633.004 530.244C632.667 530.244 632.535 530.361 632.535 530.713V531.504C632.535 531.855 632.667 531.973 633.004 531.973H633.414C633.766 531.973 633.883 531.855 633.883 531.504V530.713C633.883 530.361 633.766 530.244 633.414 530.244H633.004ZM636.161 531.929C637.07 532.148 637.89 532.148 638.344 532.148C641.157 532.148 642.256 531.328 642.256 526.801C642.256 522.904 641.875 521.688 638.93 521.688C636.498 521.688 635.693 522.846 635.693 525.16C635.693 527.065 636.352 528.457 638.432 528.457C639.575 528.457 640.263 528.208 641.011 527.358C640.937 530.376 640.263 531.035 638.344 531.035C637.333 531.035 636.982 531.035 636.279 530.976L636.161 531.929ZM638.769 527.431C637.319 527.431 636.908 526.625 636.923 525.16C636.908 523.637 637.245 522.787 638.916 522.787C640.864 522.787 641.011 523.622 641.011 526.464C640.175 527.211 639.604 527.431 638.769 527.431ZM651.636 529.365V528.442H650.332V523.798H649.336L649.116 525.468V528.442H645.644C645.307 528.442 645.102 528.237 645.278 527.841L648.105 521.864H646.83L643.959 527.929C643.622 528.676 644.091 529.497 644.926 529.497H649.116V531.973H650.332V529.497L651.636 529.365ZM628.771 542.838H627.746V549.973H628.991V544.816C630.09 544.025 630.617 543.717 631.335 543.717C632.082 543.717 632.449 544.054 632.449 544.977V549.973H633.65V544.83C634.734 544.039 635.261 543.717 635.994 543.717C636.785 543.717 637.093 544.098 637.107 544.977V549.973H638.338V544.625C638.338 543.336 637.664 542.662 636.433 542.662C635.466 542.662 634.544 543.072 633.562 543.922C633.357 543.087 632.727 542.662 631.76 542.662C630.764 542.662 629.826 543.116 628.845 543.966L628.771 542.838ZM640.491 539.395C640.945 539.351 641.59 539.337 642.234 539.337C643.26 539.337 643.568 539.512 643.582 540.157C643.582 540.626 643.48 541.153 642.41 541.168H641.165V541.9H642.41C643.48 541.9 643.685 542.355 643.685 542.897C643.685 543.717 643.319 543.995 642.249 543.995C641.605 543.995 641.062 543.981 640.374 543.922L640.315 544.655C641.004 544.743 641.736 544.816 642.484 544.816C644.124 544.816 644.71 544.259 644.681 543.014C644.666 542.164 644.373 541.622 643.421 541.49V541.461C644.3 541.329 644.52 540.714 644.52 539.923C644.52 538.853 643.978 538.516 642.366 538.516C641.722 538.516 641.092 538.575 640.433 538.677L640.491 539.395Z" fill="white"/>
<path d="M672.863 523.065C674.123 522.86 674.812 522.831 675.764 522.831C676.921 522.831 677.624 522.948 677.654 523.93C677.698 524.897 677.097 525.908 675.808 527.299L672.878 530.61C672.731 530.771 672.687 530.947 672.687 531.167V531.973H679.324V530.727H675.896C675.368 530.727 674.768 530.742 674.255 530.786L677.156 527.548C678.504 526.054 678.958 525.146 678.958 523.871C678.958 522.04 677.786 521.688 675.852 521.688C674.944 521.688 674.152 521.747 672.775 522.069L672.863 523.065ZM681.573 530.244C681.236 530.244 681.104 530.361 681.104 530.713V531.504C681.104 531.855 681.236 531.973 681.573 531.973H681.983C682.335 531.973 682.452 531.855 682.452 531.504V530.713C682.452 530.361 682.335 530.244 681.983 530.244H681.573ZM683.498 521.864L683.556 522.963H688.596C688.479 523.197 688.376 523.446 688.288 523.71L685.446 531.973H686.736L689.885 522.758C690.061 522.201 689.812 521.864 689.211 521.864H683.498ZM691.405 523.065C692.665 522.86 693.353 522.831 694.305 522.831C695.463 522.831 696.166 522.948 696.195 523.93C696.239 524.897 695.639 525.908 694.349 527.299L691.419 530.61C691.273 530.771 691.229 530.947 691.229 531.167V531.973H697.865V530.727H694.437C693.91 530.727 693.309 530.742 692.797 530.786L695.697 527.548C697.045 526.054 697.499 525.146 697.499 523.871C697.499 522.04 696.327 521.688 694.393 521.688C693.485 521.688 692.694 521.747 691.317 522.069L691.405 523.065ZM677.963 542.838H676.937V549.973H678.183V544.816C679.281 544.025 679.809 543.717 680.527 543.717C681.274 543.717 681.64 544.054 681.64 544.977V549.973H682.841V544.83C683.925 544.039 684.453 543.717 685.185 543.717C685.976 543.717 686.284 544.098 686.299 544.977V549.973H687.529V544.625C687.529 543.336 686.855 542.662 685.625 542.662C684.658 542.662 683.735 543.072 682.753 543.922C682.548 543.087 681.918 542.662 680.951 542.662C679.955 542.662 679.018 543.116 678.036 543.966L677.963 542.838ZM689.683 539.395C690.137 539.351 690.781 539.337 691.426 539.337C692.451 539.337 692.759 539.512 692.774 540.157C692.774 540.626 692.671 541.153 691.602 541.168H690.356V541.9H691.602C692.671 541.9 692.876 542.355 692.876 542.897C692.876 543.717 692.51 543.995 691.441 543.995C690.796 543.995 690.254 543.981 689.565 543.922L689.507 544.655C690.195 544.743 690.928 544.816 691.675 544.816C693.316 544.816 693.902 544.259 693.872 543.014C693.858 542.164 693.565 541.622 692.613 541.49V541.461C693.492 541.329 693.711 540.714 693.711 539.923C693.711 538.853 693.169 538.516 691.558 538.516C690.913 538.516 690.283 538.575 689.624 538.677L689.683 539.395Z" fill="white"/>
<path d="M725.152 526.757C723.877 526.889 723.482 527.871 723.482 529.453C723.482 531.299 724.185 532.134 726.924 532.119C729.693 532.09 730.352 531.299 730.352 529.453C730.352 527.871 729.972 526.889 728.697 526.757V526.699C729.722 526.581 730.133 525.702 730.133 524.384C730.133 522.538 729.503 521.718 726.924 521.718C724.361 521.718 723.701 522.538 723.701 524.384C723.701 525.702 724.126 526.581 725.152 526.699V526.757ZM726.939 522.758C728.609 522.758 728.961 523.183 728.961 524.501C728.961 525.864 728.653 526.215 726.954 526.215C725.283 526.215 724.888 525.893 724.888 524.501C724.888 523.183 725.269 522.758 726.939 522.758ZM726.954 527.241C728.726 527.241 729.122 527.592 729.122 529.189C729.122 530.552 728.726 531.006 726.939 531.006C725.137 531.006 724.697 530.552 724.697 529.189C724.697 527.622 725.122 527.255 726.954 527.241ZM732.834 530.244C732.498 530.244 732.366 530.361 732.366 530.713V531.504C732.366 531.855 732.498 531.973 732.834 531.973H733.245C733.596 531.973 733.713 531.855 733.713 531.504V530.713C733.713 530.361 733.596 530.244 733.245 530.244H732.834ZM738.278 531.973V521.864H736.988L734.41 522.904L734.586 523.856L737.062 523.08C737.003 523.373 736.988 523.666 736.988 523.959V531.973H738.278ZM746.605 522.963L746.664 521.864H741.317L741.082 526.201C741.068 526.508 741.273 526.743 741.566 526.772L742.24 526.816C744.803 526.977 745.726 527.065 745.697 528.94C745.668 530.273 745.316 531.006 743.397 531.006C742.723 531.006 741.742 530.903 740.833 530.742L740.687 531.782C741.771 532.031 742.884 532.148 743.69 532.148C746.459 532.148 746.957 530.566 746.957 528.94C746.972 526.757 745.946 525.995 743.294 525.805L742.21 525.717L742.357 522.963H746.605ZM727.822 542.838H726.797V549.973H728.042V544.816C729.141 544.025 729.668 543.717 730.386 543.717C731.133 543.717 731.499 544.054 731.499 544.977V549.973H732.701V544.83C733.785 544.039 734.312 543.717 735.045 543.717C735.836 543.717 736.143 544.098 736.158 544.977V549.973H737.389V544.625C737.389 543.336 736.715 542.662 735.484 542.662C734.517 542.662 733.594 543.072 732.613 543.922C732.408 543.087 731.778 542.662 730.811 542.662C729.815 542.662 728.877 543.116 727.895 543.966L727.822 542.838ZM739.542 539.395C739.996 539.351 740.641 539.337 741.285 539.337C742.311 539.337 742.618 539.512 742.633 540.157C742.633 540.626 742.531 541.153 741.461 541.168H740.216V541.9H741.461C742.531 541.9 742.736 542.355 742.736 542.897C742.736 543.717 742.369 543.995 741.3 543.995C740.655 543.995 740.113 543.981 739.425 543.922L739.366 544.655C740.055 544.743 740.787 544.816 741.534 544.816C743.175 544.816 743.761 544.259 743.732 543.014C743.717 542.164 743.424 541.622 742.472 541.49V541.461C743.351 541.329 743.571 540.714 743.571 539.923C743.571 538.853 743.029 538.516 741.417 538.516C740.773 538.516 740.143 538.575 739.483 538.677L739.542 539.395Z" fill="white"/>
<path d="M772.387 531.973V521.864H771.097L768.519 522.904L768.695 523.856L771.171 523.08C771.112 523.373 771.097 523.666 771.097 523.959V531.973H772.387ZM778.224 531.973V521.864H776.935L774.356 522.904L774.532 523.856L777.008 523.08C776.949 523.373 776.935 523.666 776.935 523.959V531.973H778.224ZM781.336 530.244C780.999 530.244 780.867 530.361 780.867 530.713V531.504C780.867 531.855 780.999 531.973 781.336 531.973H781.746C782.098 531.973 782.215 531.855 782.215 531.504V530.713C782.215 530.361 782.098 530.244 781.746 530.244H781.336ZM784.493 531.929C785.402 532.148 786.222 532.148 786.676 532.148C789.489 532.148 790.588 531.328 790.588 526.801C790.588 522.904 790.207 521.688 787.262 521.688C784.83 521.688 784.025 522.846 784.025 525.16C784.025 527.065 784.684 528.457 786.764 528.457C787.907 528.457 788.595 528.208 789.343 527.358C789.269 530.376 788.595 531.035 786.676 531.035C785.665 531.035 785.314 531.035 784.611 530.976L784.493 531.929ZM787.101 527.431C785.651 527.431 785.241 526.625 785.255 525.16C785.241 523.637 785.577 522.787 787.248 522.787C789.196 522.787 789.343 523.622 789.343 526.464C788.507 527.211 787.936 527.431 787.101 527.431ZM799.968 529.365V528.442H798.664V523.798H797.668L797.448 525.468V528.442H793.976C793.639 528.442 793.434 528.237 793.61 527.841L796.437 521.864H795.163L792.291 527.929C791.954 528.676 792.423 529.497 793.258 529.497H797.448V531.973H798.664V529.497L799.968 529.365ZM777.103 542.838H776.078V549.973H777.323V544.816C778.422 544.025 778.949 543.717 779.667 543.717C780.414 543.717 780.781 544.054 780.781 544.977V549.973H781.982V544.83C783.066 544.039 783.593 543.717 784.326 543.717C785.117 543.717 785.425 544.098 785.439 544.977V549.973H786.67V544.625C786.67 543.336 785.996 542.662 784.765 542.662C783.798 542.662 782.876 543.072 781.894 543.922C781.689 543.087 781.059 542.662 780.092 542.662C779.096 542.662 778.158 543.116 777.177 543.966L777.103 542.838ZM788.823 539.395C789.277 539.351 789.922 539.337 790.567 539.337C791.592 539.337 791.9 539.512 791.914 540.157C791.914 540.626 791.812 541.153 790.742 541.168H789.497V541.9H790.742C791.812 541.9 792.017 542.355 792.017 542.897C792.017 543.717 791.651 543.995 790.581 543.995C789.937 543.995 789.395 543.981 788.706 543.922L788.647 544.655C789.336 544.743 790.068 544.816 790.816 544.816C792.456 544.816 793.042 544.259 793.013 543.014C792.998 542.164 792.705 541.622 791.753 541.49V541.461C792.632 541.329 792.852 540.714 792.852 539.923C792.852 538.853 792.31 538.516 790.698 538.516C790.054 538.516 789.424 538.575 788.765 538.677L788.823 539.395Z" fill="white"/>
<path d="M825.897 521.908C825.076 521.688 824.271 521.688 823.86 521.688C821.194 521.688 819.934 522.421 819.934 527.167C819.934 530.991 820.491 532.148 823.348 532.148C826.072 532.148 826.541 530.786 826.541 528.706C826.541 526.259 825.897 525.38 823.772 525.38C822.644 525.38 821.941 525.629 821.223 526.435C821.311 523.3 822 522.787 823.86 522.787C824.739 522.787 825.135 522.787 825.779 522.846L825.897 521.908ZM823.362 531.05C821.399 531.05 821.209 530.185 821.209 527.358C822.044 526.625 822.615 526.42 823.435 526.42C824.93 526.42 825.311 527.05 825.311 528.706C825.311 530.215 825.091 531.05 823.362 531.05ZM828.816 530.244C828.479 530.244 828.347 530.361 828.347 530.713V531.504C828.347 531.855 828.479 531.973 828.816 531.973H829.226C829.578 531.973 829.695 531.855 829.695 531.504V530.713C829.695 530.361 829.578 530.244 829.226 530.244H828.816ZM838.935 529.365V528.442H837.631V523.798H836.635L836.415 525.468V528.442H832.943C832.606 528.442 832.401 528.237 832.577 527.841L835.405 521.864H834.13L831.259 527.929C830.922 528.676 831.39 529.497 832.225 529.497H836.415V531.973H837.631V529.497L838.935 529.365ZM842.264 526.757C840.99 526.889 840.594 527.871 840.594 529.453C840.594 531.299 841.297 532.134 844.037 532.119C846.806 532.09 847.465 531.299 847.465 529.453C847.465 527.871 847.084 526.889 845.81 526.757V526.699C846.835 526.581 847.245 525.702 847.245 524.384C847.245 522.538 846.615 521.718 844.037 521.718C841.473 521.718 840.814 522.538 840.814 524.384C840.814 525.702 841.239 526.581 842.264 526.699V526.757ZM844.052 522.758C845.722 522.758 846.073 523.183 846.073 524.501C846.073 525.864 845.766 526.215 844.066 526.215C842.396 526.215 842 525.893 842 524.501C842 523.183 842.381 522.758 844.052 522.758ZM844.066 527.241C845.839 527.241 846.234 527.592 846.234 529.189C846.234 530.552 845.839 531.006 844.052 531.006C842.25 531.006 841.81 530.552 841.81 529.189C841.81 527.622 842.235 527.255 844.066 527.241ZM826.422 542.838H825.396V549.973H826.642V544.816C827.74 544.025 828.268 543.717 828.986 543.717C829.733 543.717 830.099 544.054 830.099 544.977V549.973H831.3V544.83C832.384 544.039 832.912 543.717 833.644 543.717C834.435 543.717 834.743 544.098 834.758 544.977V549.973H835.988V544.625C835.988 543.336 835.314 542.662 834.084 542.662C833.117 542.662 832.194 543.072 831.212 543.922C831.007 543.087 830.377 542.662 829.41 542.662C828.414 542.662 827.477 543.116 826.495 543.966L826.422 542.838ZM838.142 539.395C838.596 539.351 839.24 539.337 839.885 539.337C840.91 539.337 841.218 539.512 841.233 540.157C841.233 540.626 841.13 541.153 840.061 541.168H838.815V541.9H840.061C841.13 541.9 841.335 542.355 841.335 542.897C841.335 543.717 840.969 543.995 839.9 543.995C839.255 543.995 838.713 543.981 838.024 543.922L837.966 544.655C838.654 544.743 839.387 544.816 840.134 544.816C841.775 544.816 842.361 544.259 842.331 543.014C842.317 542.164 842.024 541.622 841.072 541.49V541.461C841.951 541.329 842.17 540.714 842.17 539.923C842.17 538.853 841.628 538.516 840.017 538.516C839.372 538.516 838.742 538.575 838.083 538.677L838.142 539.395Z" fill="white"/>
<path d="M513.818 389.015L538.136 369.604L587.282 386.24L636.727 380.165L685.255 398.638L735.912 422.758L785.218 370.109L833.901 388.889L857.236 375.155" stroke="#FFAC1C" stroke-width="1.83127"/>
<path d="M636.97 382.833C635.455 382.833 634.223 381.6 634.223 380.086C634.223 378.571 635.455 377.339 636.97 377.339C638.484 377.339 639.716 378.571 639.716 380.086C639.716 381.6 638.484 382.833 636.97 382.833Z" fill="#FFAC1C"/>
<path d="M636.97 377.797C635.708 377.797 634.681 378.823 634.681 380.086C634.681 381.348 635.708 382.375 636.97 382.375C638.233 382.375 639.259 381.348 639.259 380.086C639.259 378.823 638.233 377.797 636.97 377.797ZM636.97 376.881C638.74 376.881 640.175 378.316 640.175 380.086C640.175 381.856 638.74 383.29 636.97 383.29C635.2 383.29 633.766 381.856 633.766 380.086C633.766 378.316 635.2 376.881 636.97 376.881Z" fill="#FFAC1C"/>
<path d="M685.498 401.603C687.268 401.603 688.702 400.168 688.702 398.398C688.702 396.628 687.268 395.194 685.498 395.194C683.728 395.194 682.293 396.628 682.293 398.398C682.293 400.168 683.728 401.603 685.498 401.603Z" fill="#FFAC1C"/>
<path d="M685.497 401.145C687.014 401.145 688.244 399.915 688.244 398.398C688.244 396.881 687.014 395.651 685.497 395.651C683.98 395.651 682.75 396.881 682.75 398.398C682.75 399.915 683.98 401.145 685.497 401.145Z" stroke="#FFAC1C" stroke-width="0.915633"/>
<path d="M735.859 425.409C737.629 425.409 739.064 423.975 739.064 422.205C739.064 420.435 737.629 419 735.859 419C734.089 419 732.654 420.435 732.654 422.205C732.654 423.975 734.089 425.409 735.859 425.409Z" fill="#FFAC1C"/>
<path d="M735.858 424.952C737.375 424.952 738.605 423.722 738.605 422.205C738.605 420.688 737.375 419.458 735.858 419.458C734.341 419.458 733.111 420.688 733.111 422.205C733.111 423.722 734.341 424.952 735.858 424.952Z" stroke="#FFAC1C" stroke-width="0.915633"/>
<path d="M538.082 373.218C539.852 373.218 541.286 371.784 541.286 370.014C541.286 368.244 539.852 366.809 538.082 366.809C536.312 366.809 534.877 368.244 534.877 370.014C534.877 371.784 536.312 373.218 538.082 373.218Z" fill="#FFAC1C"/>
<path d="M538.081 372.761C539.598 372.761 540.828 371.531 540.828 370.014C540.828 368.497 539.598 367.267 538.081 367.267C536.564 367.267 535.334 368.497 535.334 370.014C535.334 371.531 536.564 372.761 538.081 372.761Z" stroke="#FFAC1C" stroke-width="0.915633"/>
<path d="M587.524 388.326C586.01 388.326 584.777 387.094 584.777 385.579C584.777 384.065 586.01 382.833 587.524 382.833C589.039 382.833 590.271 384.065 590.271 385.579C590.271 387.094 589.039 388.326 587.524 388.326Z" fill="#FFAC1C"/>
<path d="M587.525 383.29C586.263 383.29 585.236 384.317 585.236 385.579C585.236 386.842 586.263 387.869 587.525 387.869C588.787 387.869 589.814 386.842 589.814 385.579C589.814 384.317 588.787 383.29 587.525 383.29ZM587.525 382.375C589.295 382.375 590.73 383.81 590.73 385.579C590.73 387.349 589.295 388.784 587.525 388.784C585.755 388.784 584.32 387.349 584.32 385.579C584.32 383.81 585.755 382.375 587.525 382.375Z" fill="#FFAC1C"/>
<path d="M785.302 373.218C787.072 373.218 788.507 371.784 788.507 370.014C788.507 368.244 787.072 366.809 785.302 366.809C783.532 366.809 782.098 368.244 782.098 370.014C782.098 371.784 783.532 373.218 785.302 373.218Z" fill="#FFAC1C"/>
<path d="M785.302 372.761C786.819 372.761 788.048 371.531 788.048 370.014C788.048 368.497 786.819 367.267 785.302 367.267C783.785 367.267 782.555 368.497 782.555 370.014C782.555 371.531 783.785 372.761 785.302 372.761Z" stroke="#FFAC1C" stroke-width="0.915633"/>
<path d="M833.832 391.531C835.602 391.531 837.036 390.096 837.036 388.326C837.036 386.556 835.602 385.122 833.832 385.122C832.062 385.122 830.627 386.556 830.627 388.326C830.627 390.096 832.062 391.531 833.832 391.531Z" fill="#FFAC1C"/>
<path d="M833.831 391.073C835.348 391.073 836.578 389.843 836.578 388.326C836.578 386.809 835.348 385.579 833.831 385.579C832.314 385.579 831.084 386.809 831.084 388.326C831.084 389.843 832.314 391.073 833.831 391.073Z" stroke="#FFAC1C" stroke-width="0.915633"/>
<path d="M535.793 275.421H546.781" stroke="#FFAC1C" stroke-width="1.83127" stroke-linecap="round"/>
<path d="M562.31 272.076C562.053 272.076 561.887 272.204 561.822 272.46L560.169 277.831C560.041 278.254 559.951 278.639 559.835 279.049H559.605C559.489 278.639 559.4 278.254 559.271 277.857L557.618 272.46C557.541 272.204 557.4 272.076 557.144 272.076H555.862C555.567 272.076 555.4 272.242 555.387 272.55L555.041 280.921H556.169L556.477 273.011H556.733L558.707 279.536C558.784 279.78 558.951 279.921 559.22 279.921H560.233C560.489 279.921 560.656 279.78 560.72 279.536L562.694 273.011H562.963L563.284 280.921H564.412L564.04 272.55C564.04 272.242 563.873 272.076 563.579 272.076H562.31ZM571.885 274.678H570.705L569.077 279.331C569 279.562 568.911 279.831 568.808 280.087H568.629C568.577 279.831 568.488 279.587 568.398 279.331L566.744 274.678H565.578L567.847 280.639C567.898 280.818 568.052 280.921 568.231 280.921H568.475L568.372 281.19C568.052 281.972 567.565 282.523 566.552 282.843L566.655 283.561C568.206 283.484 568.975 282.369 569.385 281.267L571.885 274.678ZM576.595 274.678H575.698V283.497H576.788V281.69C576.788 281.254 576.788 280.869 576.749 280.434C577.48 280.869 578.262 281.074 579.057 281.074C580.659 281.074 581.415 280.241 581.415 277.831C581.415 275.665 580.8 274.524 579.275 274.524C578.377 274.524 577.365 274.96 576.685 275.678L576.595 274.678ZM576.788 276.434C577.647 275.793 578.236 275.473 578.916 275.473C579.903 275.473 580.3 276.062 580.3 277.831C580.3 279.664 579.877 280.126 578.787 280.126C578.121 280.126 577.57 279.972 576.788 279.741V276.434ZM587.044 274.524H586.762C585.916 274.524 585.006 274.947 584.095 275.665L583.98 274.678H583.134V280.921H584.224V276.344C585.211 275.844 585.864 275.55 586.557 275.55H586.916L587.044 274.524ZM591.872 278.331C592.911 278.331 593.372 277.677 593.359 276.562C593.359 275.216 592.565 274.524 590.68 274.524C588.668 274.524 587.809 275.332 587.809 277.78C587.809 280.177 588.642 281.074 590.796 281.074C591.513 281.074 592.629 280.972 593.218 280.728L593.103 279.998C592.462 280.087 591.603 280.152 590.937 280.152C589.655 280.152 589.078 279.818 588.962 278.331H591.872ZM588.95 277.485C588.988 275.908 589.424 275.447 590.731 275.447C591.847 275.447 592.257 275.767 592.27 276.562C592.27 277.024 592.154 277.485 591.59 277.485H588.95ZM600.515 274.678H599.361L597.823 279.049L597.438 280.139H597.271C597.156 279.793 597.028 279.408 596.9 279.049L595.361 274.678H594.195L596.477 280.651C596.541 280.818 596.682 280.921 596.861 280.921H597.848C598.028 280.921 598.169 280.818 598.233 280.651L600.515 274.678ZM602.095 272.024C601.877 272.024 601.761 272.153 601.761 272.358V273.088C601.761 273.319 601.877 273.422 602.095 273.422H602.608C602.838 273.422 602.941 273.319 602.941 273.088V272.358C602.941 272.153 602.838 272.024 602.608 272.024H602.095ZM602.89 280.921V274.678H601.813V280.921H602.89ZM607.582 274.524C605.441 274.524 604.646 275.421 604.646 277.806C604.646 280.203 605.441 281.087 607.582 281.087C609.735 281.087 610.517 280.203 610.517 277.806C610.517 275.421 609.735 274.524 607.582 274.524ZM607.582 275.447C608.941 275.447 609.389 275.985 609.389 277.806C609.389 279.626 608.941 280.164 607.582 280.164C606.223 280.164 605.787 279.626 605.787 277.806C605.787 275.985 606.223 275.447 607.582 275.447ZM617.534 274.678H616.444V279.241C615.534 279.831 614.932 280.139 614.265 280.139C613.547 280.139 613.265 279.857 613.278 279.062V274.678H612.188V279.37C612.188 280.498 612.765 281.087 613.893 281.087C614.791 281.087 615.65 280.728 616.585 280.023L616.662 280.921H617.534V274.678ZM622.383 278.395C622.986 278.536 623.37 278.652 623.37 279.267C623.37 280.011 622.935 280.139 621.537 280.139C620.73 280.152 619.999 280.126 619.384 280.087L619.307 280.882C620.371 281.049 621.307 281.062 621.755 281.062C623.563 281.062 624.422 280.805 624.422 279.267C624.422 278.203 623.96 277.793 622.973 277.549L621.153 277.139C620.55 276.998 620.243 276.896 620.243 276.242C620.243 275.46 620.627 275.434 621.781 275.447C622.563 275.447 623.37 275.485 624.152 275.511L624.242 274.716C623.473 274.601 622.435 274.537 621.614 274.524C619.909 274.498 619.179 274.793 619.179 276.242C619.179 277.267 619.576 277.742 620.589 277.985L622.383 278.395ZM637.893 274.678H636.765L635.471 279.28C635.368 279.6 635.33 279.895 635.253 280.216H635.086C635.022 279.895 634.932 279.587 634.868 279.28L633.843 275.037C633.791 274.819 633.638 274.678 633.432 274.678H632.445C632.228 274.678 632.074 274.819 632.035 275.024L630.997 279.28L630.766 280.216H630.6C630.548 279.908 630.484 279.587 630.394 279.28L629.1 274.678H627.972L629.792 280.613C629.843 280.805 630.01 280.921 630.215 280.921H631.189C631.407 280.921 631.574 280.78 631.625 280.575L632.638 276.332L632.856 275.344H633.009C633.086 275.691 633.138 276.011 633.215 276.332L634.24 280.575C634.279 280.78 634.458 280.921 634.663 280.921H635.65C635.855 280.921 636.022 280.805 636.073 280.613L637.893 274.678ZM642.935 278.331C643.973 278.331 644.435 277.677 644.422 276.562C644.422 275.216 643.627 274.524 641.743 274.524C639.73 274.524 638.871 275.332 638.871 277.78C638.871 280.177 639.705 281.074 641.858 281.074C642.576 281.074 643.691 280.972 644.281 280.728L644.166 279.998C643.525 280.087 642.666 280.152 641.999 280.152C640.717 280.152 640.14 279.818 640.025 278.331H642.935ZM640.012 277.485C640.051 275.908 640.487 275.447 641.794 275.447C642.909 275.447 643.32 275.767 643.332 276.562C643.332 277.024 643.217 277.485 642.653 277.485H640.012ZM649.82 278.331C650.858 278.331 651.32 277.677 651.307 276.562C651.307 275.216 650.512 274.524 648.628 274.524C646.615 274.524 645.757 275.332 645.757 277.78C645.757 280.177 646.59 281.074 648.743 281.074C649.461 281.074 650.576 280.972 651.166 280.728L651.051 279.998C650.41 280.087 649.551 280.152 648.884 280.152C647.602 280.152 647.026 279.818 646.91 278.331H649.82ZM646.897 277.485C646.936 275.908 647.372 275.447 648.679 275.447C649.794 275.447 650.205 275.767 650.217 276.562C650.217 277.024 650.102 277.485 649.538 277.485H646.897ZM654.821 277.793L656.987 280.921H658.256L656.09 277.921C655.975 277.729 655.769 277.511 655.654 277.421V277.395C655.769 277.319 655.975 277.126 656.09 276.972L658.051 274.678H656.782L654.808 276.998H653.988C654.039 276.652 654.052 276.319 654.052 275.934V271.947H652.949V280.921H654.039V278.793C654.039 278.472 654.013 278.139 653.975 277.793H654.821Z" fill="#C7C7C7"/>
<g filter="url(#filter1_d_350_1536)">
<path d="M675.795 220.308H542.292C538.703 220.308 535.793 223.119 535.793 226.587V237.835C535.793 241.303 538.703 244.114 542.292 244.114H675.795C679.384 244.114 682.294 241.303 682.294 237.835V226.587C682.294 223.119 679.384 220.308 675.795 220.308Z" fill="#0077E8"/>
<path d="M578.592 227.799H577.332V238.055H578.578V232.912C579.72 232.195 580.482 231.799 581.332 231.799C582.064 231.799 582.343 232.107 582.343 233.059V238.055H583.603V232.707C583.603 231.418 582.929 230.744 581.669 230.744C580.614 230.744 579.574 231.228 578.504 232.019C578.563 231.638 578.592 231.154 578.592 230.627V227.799ZM588.863 230.744C586.416 230.744 585.508 231.77 585.508 234.495C585.508 237.234 586.416 238.245 588.863 238.245C591.324 238.245 592.218 237.234 592.218 234.495C592.218 231.77 591.324 230.744 588.863 230.744ZM588.863 231.799C590.416 231.799 590.928 232.414 590.928 234.495C590.928 236.575 590.416 237.19 588.863 237.19C587.31 237.19 586.812 236.575 586.812 234.495C586.812 232.414 587.31 231.799 588.863 231.799ZM595.944 231.902H598.215V230.92H595.944V228.81H594.699V230.935L593.41 230.993V231.902H594.699V236.253C594.699 237.498 595.329 238.186 596.53 238.186C596.882 238.186 597.673 238.128 598.142 237.996L597.995 237.044H596.911C596.208 237.044 595.944 236.78 595.944 236.091V231.902ZM613.275 230.92H611.986L610.506 236.179C610.389 236.546 610.345 236.883 610.257 237.249H610.067C609.994 236.883 609.891 236.531 609.818 236.179L608.646 231.33C608.587 231.081 608.411 230.92 608.177 230.92H607.049C606.8 230.92 606.624 231.081 606.58 231.316L605.393 236.179L605.13 237.249H604.939C604.881 236.897 604.807 236.531 604.705 236.179L603.225 230.92H601.936L604.016 237.703C604.075 237.923 604.265 238.055 604.5 238.055H605.613C605.862 238.055 606.053 237.893 606.111 237.659L607.269 232.81L607.518 231.682H607.694C607.781 232.077 607.84 232.444 607.928 232.81L609.1 237.659C609.144 237.893 609.349 238.055 609.583 238.055H610.711C610.946 238.055 611.136 237.923 611.195 237.703L613.275 230.92ZM614.788 231.989C615.873 231.887 617.103 231.799 617.85 231.799C618.978 231.799 619.301 232.151 619.301 233.03V233.66H616.327C615.081 233.66 614.349 234.304 614.349 235.418V236.194C614.349 237.483 615.213 238.186 616.488 238.186C617.792 238.186 618.876 237.454 619.432 236.883L619.579 238.055H620.561V233.03C620.561 231.301 619.696 230.744 618.114 230.744C617.045 230.744 615.653 230.905 614.671 231.066L614.788 231.989ZM615.623 235.593C615.623 234.993 615.858 234.641 616.546 234.612H619.301V236.047C618.48 236.78 617.44 237.132 616.737 237.117C615.96 237.117 615.623 236.795 615.623 236.047V235.593ZM624.572 231.902H626.843V230.92H624.572V228.81H623.327V230.935L622.038 230.993V231.902H623.327V236.253C623.327 237.498 623.957 238.186 625.158 238.186C625.51 238.186 626.301 238.128 626.77 237.996L626.623 237.044H625.539C624.836 237.044 624.572 236.78 624.572 236.091V231.902ZM632.657 235.095C633.844 235.095 634.371 234.348 634.356 233.074C634.356 231.535 633.448 230.744 631.295 230.744C628.994 230.744 628.013 231.667 628.013 234.465C628.013 237.205 628.965 238.23 631.426 238.23C632.247 238.23 633.521 238.113 634.195 237.835L634.063 237C633.331 237.102 632.349 237.176 631.588 237.176C630.123 237.176 629.463 236.795 629.331 235.095H632.657ZM629.317 234.128C629.361 232.326 629.859 231.799 631.353 231.799C632.628 231.799 633.096 232.165 633.111 233.074C633.111 233.601 632.979 234.128 632.335 234.128H629.317ZM640.702 230.744H640.379C639.412 230.744 638.372 231.228 637.332 232.048L637.2 230.92H636.233V238.055H637.478V232.824C638.607 232.253 639.354 231.916 640.145 231.916H640.555L640.702 230.744Z" fill="white"/>
</g>
<g filter="url(#filter2_d_350_1536)">
<path d="M828.707 220.308H695.204C691.615 220.308 688.705 223.119 688.705 226.587V237.835C688.705 241.303 691.615 244.114 695.204 244.114H828.707C832.296 244.114 835.206 241.303 835.206 237.835V226.587C835.206 223.119 832.296 220.308 828.707 220.308Z" fill="white"/>
<path d="M732.984 237.029C732.252 237.146 731.314 237.176 730.889 237.176C729.19 237.176 728.604 236.575 728.604 234.48C728.604 232.4 729.19 231.799 730.889 231.799C731.387 231.799 732.178 231.828 732.823 231.887L732.984 231.081C732.281 230.817 731.314 230.744 730.684 230.744C728.208 230.744 727.285 231.726 727.285 234.48C727.285 237.234 728.208 238.23 730.67 238.23C731.505 238.23 732.398 238.113 733.116 237.864L732.984 237.029ZM737.708 230.744C735.262 230.744 734.353 231.77 734.353 234.495C734.353 237.234 735.262 238.245 737.708 238.245C740.169 238.245 741.063 237.234 741.063 234.495C741.063 231.77 740.169 230.744 737.708 230.744ZM737.708 231.799C739.261 231.799 739.774 232.414 739.774 234.495C739.774 236.575 739.261 237.19 737.708 237.19C736.155 237.19 735.657 236.575 735.657 234.495C735.657 232.414 736.155 231.799 737.708 231.799ZM744.277 227.799H743.031V236.37C743.031 237.542 743.72 238.186 744.775 238.186C745.126 238.186 745.8 238.128 746.079 237.996L745.932 237.044H745.244C744.614 237.044 744.262 236.721 744.277 236.091V227.799ZM753.46 227.799H752.215V229.997C752.215 230.495 752.23 230.92 752.274 231.403C751.483 230.949 750.618 230.744 749.739 230.744C747.908 230.744 747.044 231.682 747.044 234.465C747.044 236.956 747.747 238.23 749.549 238.23C750.648 238.23 751.615 237.703 752.376 237.029L752.494 238.055H753.46V227.799ZM752.215 236.165C751.248 236.853 750.75 237.146 749.959 237.146C748.802 237.146 748.318 236.56 748.318 234.451C748.318 232.341 748.802 231.828 750.032 231.828C750.779 231.828 751.38 231.989 752.215 232.224V236.165ZM769.303 230.92H768.013L766.534 236.179C766.417 236.546 766.373 236.883 766.285 237.249H766.094C766.021 236.883 765.918 236.531 765.845 236.179L764.673 231.33C764.615 231.081 764.439 230.92 764.204 230.92H763.076C762.827 230.92 762.651 231.081 762.607 231.316L761.421 236.179L761.157 237.249H760.967C760.908 236.897 760.835 236.531 760.732 236.179L759.253 230.92H757.963L760.044 237.703C760.102 237.923 760.293 238.055 760.527 238.055H761.641C761.89 238.055 762.08 237.893 762.139 237.659L763.296 232.81L763.545 231.682H763.721C763.809 232.077 763.867 232.444 763.955 232.81L765.127 237.659C765.171 237.893 765.376 238.055 765.611 238.055H766.739C766.973 238.055 767.164 237.923 767.222 237.703L769.303 230.92ZM770.816 231.989C771.9 231.887 773.13 231.799 773.878 231.799C775.006 231.799 775.328 232.151 775.328 233.03V233.66H772.354C771.109 233.66 770.376 234.304 770.376 235.418V236.194C770.376 237.483 771.241 238.186 772.515 238.186C773.819 238.186 774.903 237.454 775.46 236.883L775.606 238.055H776.588V233.03C776.588 231.301 775.724 230.744 774.141 230.744C773.072 230.744 771.68 230.905 770.699 231.066L770.816 231.989ZM771.651 235.593C771.651 234.993 771.885 234.641 772.574 234.612H775.328V236.047C774.508 236.78 773.467 237.132 772.764 237.117C771.988 237.117 771.651 236.795 771.651 236.047V235.593ZM780.6 231.902H782.87V230.92H780.6V228.81H779.354V230.935L778.065 230.993V231.902H779.354V236.253C779.354 237.498 779.984 238.186 781.186 238.186C781.537 238.186 782.328 238.128 782.797 237.996L782.651 237.044H781.566C780.863 237.044 780.6 236.78 780.6 236.091V231.902ZM788.684 235.095C789.871 235.095 790.398 234.348 790.384 233.074C790.384 231.535 789.475 230.744 787.322 230.744C785.022 230.744 784.04 231.667 784.04 234.465C784.04 237.205 784.993 238.23 787.454 238.23C788.274 238.23 789.549 238.113 790.223 237.835L790.091 237C789.358 237.102 788.377 237.176 787.615 237.176C786.15 237.176 785.491 236.795 785.359 235.095H788.684ZM785.344 234.128C785.388 232.326 785.886 231.799 787.38 231.799C788.655 231.799 789.124 232.165 789.139 233.074C789.139 233.601 789.007 234.128 788.362 234.128H785.344ZM796.729 230.744H796.407C795.44 230.744 794.4 231.228 793.359 232.048L793.227 230.92H792.261V238.055H793.506V232.824C794.634 232.253 795.381 231.916 796.172 231.916H796.582L796.729 230.744Z" fill="#0077E8"/>
</g>
<g filter="url(#filter3_d_350_1536)">
<path d="M777.52 258.764H755.545C749.982 258.764 745.473 263.274 745.473 268.836V282.571C745.473 288.133 749.982 292.643 755.545 292.643H777.52C783.082 292.643 787.592 288.133 787.592 282.571V268.836C787.592 263.274 783.082 258.764 777.52 258.764Z" fill="white"/>
</g>
<path d="M763.405 278.43L765.881 282.005H767.331L764.855 278.577C764.723 278.357 764.489 278.108 764.357 278.006V277.976C764.489 277.888 764.723 277.669 764.855 277.493L767.097 274.87H765.646L763.39 277.522H762.452C762.511 277.127 762.526 276.746 762.526 276.306V271.75H761.266V282.005H762.511V279.573C762.511 279.207 762.482 278.826 762.438 278.43H763.405ZM773.188 274.695H772.866C771.899 274.695 770.858 275.178 769.818 275.998L769.686 274.87H768.72V282.005H769.965V276.775C771.093 276.204 771.84 275.867 772.631 275.867H773.041L773.188 274.695Z" fill="#0077E8"/>
<g filter="url(#filter4_d_350_1536)">
<path d="M825.133 258.764H803.158C797.595 258.764 793.086 263.274 793.086 268.836V282.571C793.086 288.133 797.595 292.643 803.158 292.643H825.133C830.696 292.643 835.205 288.133 835.205 282.571V268.836C835.205 263.274 830.696 258.764 825.133 258.764Z" fill="#0077E8"/>
</g>
<path d="M807.185 274.87H806.16V282.005H807.405V276.848C808.504 276.057 809.031 275.749 809.749 275.749C810.496 275.749 810.863 276.086 810.863 277.009V282.005H812.064V276.863C813.148 276.072 813.675 275.749 814.408 275.749C815.199 275.749 815.507 276.13 815.521 277.009V282.005H816.752V276.658C816.752 275.368 816.078 274.695 814.847 274.695C813.881 274.695 812.958 275.105 811.976 275.955C811.771 275.119 811.141 274.695 810.174 274.695C809.178 274.695 808.24 275.149 807.259 275.998L807.185 274.87ZM818.905 271.428C819.359 271.384 820.004 271.369 820.649 271.369C821.674 271.369 821.982 271.545 821.996 272.189C821.996 272.658 821.894 273.186 820.824 273.2H819.579V273.933H820.824C821.894 273.933 822.099 274.387 822.099 274.929C822.099 275.749 821.733 276.028 820.663 276.028C820.019 276.028 819.477 276.013 818.788 275.955L818.729 276.687C819.418 276.775 820.15 276.848 820.898 276.848C822.538 276.848 823.124 276.291 823.095 275.046C823.08 274.196 822.787 273.654 821.835 273.523V273.493C822.714 273.361 822.934 272.746 822.934 271.955C822.934 270.886 822.392 270.549 820.78 270.549C820.136 270.549 819.506 270.607 818.847 270.71L818.905 271.428Z" fill="white"/>
</g>
</g>
<path d="M628.73 790.747H743.185C743.792 790.747 744.374 790.988 744.803 791.418C745.232 791.847 745.474 792.429 745.474 793.036C745.474 793.643 745.232 794.225 744.803 794.655C744.374 795.084 743.792 795.325 743.185 795.325H628.73C628.123 795.325 627.541 795.084 627.112 794.655C626.683 794.225 626.441 793.643 626.441 793.036C626.441 792.429 626.683 791.847 627.112 791.418C627.541 790.988 628.123 790.747 628.73 790.747V790.747Z" fill="#E2E2E2"/>
</g>
<defs>
<filter id="filter0_d_350_1536" x="410.352" y="-22.335" width="550.295" height="950.427" filterUnits="userSpaceOnUse" color-interpolation-filters="sRGB">
<feFlood flood-opacity="0" result="BackgroundImageFix"/>
<feColorMatrix in="SourceAlpha" type="matrix" values="0 0 0 0 0 0 0 0 0 0 0 0 0 0 0 0 0 0 127 0" result="hardAlpha"/>
<feOffset dy="18.3127"/>
<feGaussianBlur stdDeviation="45.3238"/>
<feColorMatrix type="matrix" values="0 0 0 0 0 0 0 0 0 0 0 0 0 0 0 0 0 0 0.161 0"/>
<feBlend mode="normal" in2="BackgroundImageFix" result="effect1_dropShadow_350_1536"/>
<feBlend mode="normal" in="SourceGraphic" in2="effect1_dropShadow_350_1536" result="shape"/>
</filter>
<filter id="filter1_d_350_1536" x="530.299" y="217.561" width="157.49" height="34.7941" filterUnits="userSpaceOnUse" color-interpolation-filters="sRGB">
<feFlood flood-opacity="0" result="BackgroundImageFix"/>
<feColorMatrix in="SourceAlpha" type="matrix" values="0 0 0 0 0 0 0 0 0 0 0 0 0 0 0 0 0 0 127 0" result="hardAlpha"/>
<feOffset dy="2.7469"/>
<feGaussianBlur stdDeviation="2.7469"/>
<feComposite in2="hardAlpha" operator="out"/>
<feColorMatrix type="matrix" values="0 0 0 0 0 0 0 0 0 0 0 0 0 0 0 0 0 0 0.16 0"/>
<feBlend mode="normal" in2="BackgroundImageFix" result="effect1_dropShadow_350_1536"/>
<feBlend mode="normal" in="SourceGraphic" in2="effect1_dropShadow_350_1536" result="shape"/>
</filter>
<filter id="filter2_d_350_1536" x="683.211" y="217.561" width="157.49" height="34.7941" filterUnits="userSpaceOnUse" color-interpolation-filters="sRGB">
<feFlood flood-opacity="0" result="BackgroundImageFix"/>
<feColorMatrix in="SourceAlpha" type="matrix" values="0 0 0 0 0 0 0 0 0 0 0 0 0 0 0 0 0 0 127 0" result="hardAlpha"/>
<feOffset dy="2.7469"/>
<feGaussianBlur stdDeviation="2.7469"/>
<feComposite in2="hardAlpha" operator="out"/>
<feColorMatrix type="matrix" values="0 0 0 0 0 0 0 0 0 0 0 0 0 0 0 0 0 0 0.16 0"/>
<feBlend mode="normal" in2="BackgroundImageFix" result="effect1_dropShadow_350_1536"/>
<feBlend mode="normal" in="SourceGraphic" in2="effect1_dropShadow_350_1536" result="shape"/>
</filter>
<filter id="filter3_d_350_1536" x="739.979" y="256.017" width="53.1067" height="44.866" filterUnits="userSpaceOnUse" color-interpolation-filters="sRGB">
<feFlood flood-opacity="0" result="BackgroundImageFix"/>
<feColorMatrix in="SourceAlpha" type="matrix" values="0 0 0 0 0 0 0 0 0 0 0 0 0 0 0 0 0 0 127 0" result="hardAlpha"/>
<feOffset dy="2.7469"/>
<feGaussianBlur stdDeviation="2.7469"/>
<feColorMatrix type="matrix" values="0 0 0 0 0 0 0 0 0 0 0 0 0 0 0 0 0 0 0.16 0"/>
<feBlend mode="normal" in2="BackgroundImageFix" result="effect1_dropShadow_350_1536"/>
<feBlend mode="normal" in="SourceGraphic" in2="effect1_dropShadow_350_1536" result="shape"/>
</filter>
<filter id="filter4_d_350_1536" x="787.592" y="256.017" width="53.1067" height="44.866" filterUnits="userSpaceOnUse" color-interpolation-filters="sRGB">
<feFlood flood-opacity="0" result="BackgroundImageFix"/>
<feColorMatrix in="SourceAlpha" type="matrix" values="0 0 0 0 0 0 0 0 0 0 0 0 0 0 0 0 0 0 127 0" result="hardAlpha"/>
<feOffset dy="2.7469"/>
<feGaussianBlur stdDeviation="2.7469"/>
<feColorMatrix type="matrix" values="0 0 0 0 0 0 0 0 0 0 0 0 0 0 0 0 0 0 0.16 0"/>
<feBlend mode="normal" in2="BackgroundImageFix" result="effect1_dropShadow_350_1536"/>
<feBlend mode="normal" in="SourceGraphic" in2="effect1_dropShadow_350_1536" result="shape"/>
</filter>
<linearGradient id="paint0_linear_350_1536" x1="685.5" y1="50" x2="685.5" y2="819.132" gradientUnits="userSpaceOnUse">
<stop stop-color="white"/>
<stop offset="1" stop-color="#EAEAEA"/>
</linearGradient>
<clipPath id="clip0_350_1536">
<rect width="950" height="870" fill="white"/>
</clipPath>
<clipPath id="clip1_350_1536">
<rect width="306.33" height="444.255" fill="white" transform="translate(80 478)"/>
</clipPath>
<clipPath id="clip2_350_1536">
<rect width="343.362" height="743.494" fill="white" transform="translate(513.818 62.8188)"/>
</clipPath>
<clipPath id="clip3_350_1536">
<rect width="343.362" height="80.5757" fill="white" transform="translate(513.818 62.8188)"/>
</clipPath>
<clipPath id="clip4_350_1536">
<rect width="171.223" height="62.263" fill="white" transform="translate(685.957 143.395)"/>
</clipPath>
<clipPath id="clip5_350_1536">
<rect width="171.223" height="62.263" fill="white" transform="translate(513.818 143.395)"/>
</clipPath>
</defs>
</svg>
